<svg width="48" height="48" viewBox="0 0 48 48" fill="none" xmlns="http://www.w3.org/2000/svg">
<g clip-path="url(#clip0_80_15300)">
<path d="M31.9163 15.8061C31.472 15.6865 31.0142 15.6837 30.58 15.7934L29.121 13.2713L27.8989 13.9629L29.3579 16.4852C29.0422 16.7995 28.8122 17.1914 28.6914 17.6308C28.5072 18.3005 28.5976 19.001 28.9463 19.6033L29.6783 20.8692C30.0266 21.4715 30.5917 21.9036 31.2688 22.0861C31.4981 22.1477 31.7313 22.1785 31.9628 22.1785C32.1796 22.1785 32.3949 22.1513 32.6051 22.0985L32.8922 22.5943C32.0836 23.4034 31.8814 24.6777 32.4798 25.712L33.2119 26.978C33.5606 27.5803 34.1252 28.0124 34.8024 28.1945C35.0316 28.2565 35.2649 28.2869 35.4963 28.2869C35.7132 28.2869 35.9288 28.26 36.1387 28.2069L37.6082 30.7477L38.8307 30.0563L37.3604 27.5147C38.169 26.7059 38.3711 25.4314 37.7727 24.3973L37.0407 23.1314C36.4423 22.097 35.229 21.6236 34.1143 21.9028L33.8271 21.407C34.1431 21.0923 34.3727 20.7008 34.4937 20.2614C34.6779 19.5917 34.5874 18.8909 34.2387 18.2885L33.5067 17.0231C33.1585 16.4204 32.5934 15.9883 31.9163 15.8061ZM35.8182 23.8228L36.5506 25.0888C36.7543 25.4408 36.7579 25.853 36.5975 26.1956L36.1881 25.4882L34.9661 26.1796L35.3758 26.8878C35.307 26.8811 35.2389 26.8688 35.1722 26.8509C35.0175 26.8097 34.8726 26.7386 34.7459 26.6417C34.6192 26.5447 34.5131 26.4239 34.434 26.2862L33.7019 25.0206C33.6051 24.8532 33.5503 24.6653 33.5422 24.4727C33.534 24.28 33.5727 24.0882 33.655 23.9134L34.0747 24.6389L35.2971 23.9474L34.8771 23.2216C35.2572 23.2586 35.6146 23.4709 35.8182 23.8228ZM32.6545 19.3798L31.4325 20.0713L31.842 20.7793C31.7732 20.7727 31.705 20.7604 31.6383 20.7424C31.4837 20.7012 31.3388 20.6301 31.2122 20.5332C31.0855 20.4363 30.9796 20.3155 30.9004 20.1777L30.1683 18.9119C30.0883 18.7746 30.0367 18.623 30.0163 18.4658C29.996 18.3086 30.0075 18.149 30.05 17.9963C30.0684 17.9295 30.0922 17.8655 30.1207 17.8039L30.5412 18.5304L31.7632 17.8387L31.3435 17.1132C31.7236 17.1498 32.081 17.362 32.2847 17.714L33.0167 18.98C33.0968 19.1172 33.1484 19.2689 33.1687 19.426C33.189 19.5832 33.1775 19.7428 33.135 19.8956C33.1167 19.9623 33.0929 20.0263 33.0644 20.0879L32.6545 19.3798ZM10.4296 30.7477L11.8999 28.2062C12.1115 28.259 12.3272 28.2851 12.5415 28.2851C13.4536 28.2851 14.3415 27.8153 14.826 26.9776L15.5583 25.712C15.9066 25.1097 15.9971 24.4089 15.8129 23.7392C15.6948 23.3066 15.4651 22.9119 15.1463 22.5936L15.4335 22.0977C15.6455 22.1506 15.8609 22.1767 16.0751 22.1767C16.9873 22.1767 17.8751 21.7069 18.3598 20.8692L19.092 19.6033C19.6903 18.5692 19.4881 17.295 18.6796 16.4859L20.1392 13.9629L18.9172 13.2714L17.4575 15.7944C16.3428 15.5148 15.1295 15.9886 14.5311 17.0227L13.799 18.2885C13.2007 19.3229 13.4028 20.5971 14.2114 21.4059L13.9243 21.9022C13.49 21.7924 13.0322 21.7949 12.5881 21.9144C11.9109 22.0966 11.3461 22.5287 10.9976 23.131L10.2655 24.397C9.66708 25.4314 9.8693 26.7056 10.6775 27.5147L9.20752 30.0559L10.4296 30.7477ZM14.9028 19.8956C14.8604 19.7428 14.849 19.5832 14.8693 19.4261C14.8896 19.2689 14.9412 19.1173 15.0211 18.98L15.7531 17.7141C15.9568 17.3621 16.3142 17.1502 16.6947 17.1133L16.2751 17.839L17.4971 18.5304L17.9167 17.8046C18.0775 18.1477 18.0738 18.5598 17.8698 18.9119L17.1378 20.1777C17.0409 20.3451 16.9049 20.487 16.741 20.5915C16.5772 20.6961 16.3904 20.7602 16.1963 20.7786L16.6053 20.0716L15.3833 19.3799L14.9739 20.0879C14.9447 20.0259 14.921 19.9616 14.9028 19.8956ZM11.4875 25.0888L12.2196 23.8228C12.2987 23.6851 12.4047 23.5643 12.5313 23.4674C12.658 23.3704 12.8028 23.2993 12.9574 23.2582C13.0242 23.2402 13.0923 23.2278 13.1611 23.2212L12.7411 23.9474L13.9632 24.6389L14.3828 23.9134C14.5436 24.256 14.5399 24.6682 14.3363 25.0206L13.6038 26.2862C13.4003 26.6385 13.0428 26.8505 12.6627 26.8874L13.0718 26.18L11.8498 25.4886L11.4406 26.1961C11.2799 25.853 11.2835 25.4408 11.4875 25.0888ZM31.0864 38.0746L34.0246 38.0662L34.0205 36.6735L31.0813 36.6819C30.7704 35.5895 29.7538 34.7869 28.5523 34.7869H28.5446L27.0702 34.7912C25.8654 34.7945 24.8495 35.604 24.5445 36.7003L23.9666 36.7022C23.846 36.2751 23.6154 35.884 23.2888 35.5631C22.7928 35.0756 22.1355 34.8071 21.4364 34.8071H21.4287L19.9544 34.8111C19.2526 34.8134 18.5939 35.0853 18.0991 35.5776C17.7743 35.9006 17.5457 36.2929 17.4278 36.7206L14.4681 36.729L14.4721 38.1212L17.4326 38.1129C17.7436 39.2057 18.7605 40.0079 19.962 40.0079H19.9694L21.4437 40.0036C22.1454 40.0017 22.8046 39.7294 23.2993 39.2376C23.6237 38.9145 23.8523 38.5222 23.9705 38.0944L24.5474 38.0926C24.6678 38.5196 24.8989 38.9108 25.2252 39.2321C25.7211 39.7197 26.3784 39.9876 27.0775 39.9876H27.0852L28.5596 39.9836C29.2612 39.9815 29.9204 39.7094 30.4152 39.2173C30.7395 38.8946 30.9681 38.5023 31.0864 38.0746ZM22.301 38.2557C22.1884 38.3683 22.0543 38.4577 21.9065 38.5188C21.7587 38.5798 21.6002 38.6113 21.44 38.6113L19.9657 38.6153H19.962C19.5533 38.6153 19.1904 38.4153 18.9691 38.1086L19.7932 38.1064L19.7892 36.7137L18.9642 36.7163C19.0036 36.6608 19.048 36.6084 19.0974 36.5595C19.21 36.4469 19.3441 36.3574 19.4919 36.2964C19.6397 36.2353 19.7982 36.2039 19.9584 36.2038L21.4327 36.1995H21.4365C21.7608 36.1995 22.0659 36.3241 22.2959 36.5504C22.3452 36.5985 22.3902 36.6507 22.4303 36.7066L21.584 36.7087L21.5881 38.1014L22.4343 38.0988C22.3944 38.1547 22.3498 38.2071 22.301 38.2557ZM28.5555 38.591L27.0811 38.5954H27.0775C26.7531 38.5954 26.448 38.4708 26.218 38.2448C26.169 38.1966 26.1241 38.1443 26.0839 38.0887L26.9086 38.0862L26.9046 36.6939L26.0806 36.696C26.1928 36.5383 26.3416 36.4094 26.5144 36.3203C26.6873 36.2311 26.8792 36.1842 27.0742 36.1835L28.5486 36.1795H28.5523C28.961 36.1795 29.3235 36.3794 29.5451 36.6862L28.6998 36.6888L28.7039 38.0811L29.5498 38.0788C29.5102 38.1343 29.466 38.1864 29.4165 38.2357C29.3038 38.3483 29.1698 38.4377 29.022 38.4987C28.8742 38.5597 28.7157 38.5911 28.5555 38.591ZM24.7228 19.1665V11.455L31.4753 7.59907L30.7711 6.39331L24.0189 10.2489L17.2667 6.39331L16.5625 7.59907L23.315 11.455V19.1665H24.7228Z" fill="black"/>
<path d="M31.9163 15.8061C31.472 15.6865 31.0142 15.6837 30.58 15.7934L29.121 13.2713L27.8989 13.9629L29.3579 16.4852C29.0422 16.7995 28.8122 17.1914 28.6914 17.6308C28.5072 18.3005 28.5976 19.001 28.9463 19.6033L29.6783 20.8692C30.0266 21.4715 30.5917 21.9036 31.2688 22.0861C31.4981 22.1477 31.7313 22.1785 31.9628 22.1785C32.1796 22.1785 32.3949 22.1513 32.6051 22.0985L32.8922 22.5943C32.0836 23.4034 31.8814 24.6777 32.4798 25.712L33.2119 26.978C33.5606 27.5803 34.1252 28.0124 34.8024 28.1945C35.0316 28.2565 35.2649 28.2869 35.4963 28.2869C35.7132 28.2869 35.9288 28.26 36.1387 28.2069L37.6082 30.7477L38.8307 30.0563L37.3604 27.5147C38.169 26.7059 38.3711 25.4314 37.7727 24.3973L37.0407 23.1314C36.4423 22.097 35.229 21.6236 34.1143 21.9028L33.8271 21.407C34.1431 21.0923 34.3727 20.7008 34.4937 20.2614C34.6779 19.5917 34.5874 18.8909 34.2387 18.2885L33.5067 17.0231C33.1585 16.4204 32.5934 15.9883 31.9163 15.8061ZM35.8182 23.8228L36.5506 25.0888C36.7543 25.4408 36.7579 25.853 36.5975 26.1956L36.1881 25.4882L34.9661 26.1796L35.3758 26.8878C35.307 26.8811 35.2389 26.8688 35.1722 26.8509C35.0175 26.8097 34.8726 26.7386 34.7459 26.6417C34.6192 26.5447 34.5131 26.4239 34.434 26.2862L33.7019 25.0206C33.6051 24.8532 33.5503 24.6653 33.5422 24.4727C33.534 24.28 33.5727 24.0882 33.655 23.9134L34.0747 24.6389L35.2971 23.9474L34.8771 23.2216C35.2572 23.2586 35.6146 23.4709 35.8182 23.8228ZM32.6545 19.3798L31.4325 20.0713L31.842 20.7793C31.7732 20.7727 31.705 20.7604 31.6383 20.7424C31.4837 20.7012 31.3388 20.6301 31.2122 20.5332C31.0855 20.4363 30.9796 20.3155 30.9004 20.1777L30.1683 18.9119C30.0883 18.7746 30.0367 18.623 30.0163 18.4658C29.996 18.3086 30.0075 18.149 30.05 17.9963C30.0684 17.9295 30.0922 17.8655 30.1207 17.8039L30.5412 18.5304L31.7632 17.8387L31.3435 17.1132C31.7236 17.1498 32.081 17.362 32.2847 17.714L33.0167 18.98C33.0968 19.1172 33.1484 19.2689 33.1687 19.426C33.189 19.5832 33.1775 19.7428 33.135 19.8956C33.1167 19.9623 33.0929 20.0263 33.0644 20.0879L32.6545 19.3798ZM10.4296 30.7477L11.8999 28.2062C12.1115 28.259 12.3272 28.2851 12.5415 28.2851C13.4536 28.2851 14.3415 27.8153 14.826 26.9776L15.5583 25.712C15.9066 25.1097 15.9971 24.4089 15.8129 23.7392C15.6948 23.3066 15.4651 22.9119 15.1463 22.5936L15.4335 22.0977C15.6455 22.1506 15.8609 22.1767 16.0751 22.1767C16.9873 22.1767 17.8751 21.7069 18.3598 20.8692L19.092 19.6033C19.6903 18.5692 19.4881 17.295 18.6796 16.4859L20.1392 13.9629L18.9172 13.2714L17.4575 15.7944C16.3428 15.5148 15.1295 15.9886 14.5311 17.0227L13.799 18.2885C13.2007 19.3229 13.4028 20.5971 14.2114 21.4059L13.9243 21.9022C13.49 21.7924 13.0322 21.7949 12.5881 21.9144C11.9109 22.0966 11.3461 22.5287 10.9976 23.131L10.2655 24.397C9.66708 25.4314 9.8693 26.7056 10.6775 27.5147L9.20752 30.0559L10.4296 30.7477ZM14.9028 19.8956C14.8604 19.7428 14.849 19.5832 14.8693 19.4261C14.8896 19.2689 14.9412 19.1173 15.0211 18.98L15.7531 17.7141C15.9568 17.3621 16.3142 17.1502 16.6947 17.1133L16.2751 17.839L17.4971 18.5304L17.9167 17.8046C18.0775 18.1477 18.0738 18.5598 17.8698 18.9119L17.1378 20.1777C17.0409 20.3451 16.9049 20.487 16.741 20.5915C16.5772 20.6961 16.3904 20.7602 16.1963 20.7786L16.6053 20.0716L15.3833 19.3799L14.9739 20.0879C14.9447 20.0259 14.921 19.9616 14.9028 19.8956ZM11.4875 25.0888L12.2196 23.8228C12.2987 23.6851 12.4047 23.5643 12.5313 23.4674C12.658 23.3704 12.8028 23.2993 12.9574 23.2582C13.0242 23.2402 13.0923 23.2278 13.1611 23.2212L12.7411 23.9474L13.9632 24.6389L14.3828 23.9134C14.5436 24.256 14.5399 24.6682 14.3363 25.0206L13.6038 26.2862C13.4003 26.6385 13.0428 26.8505 12.6627 26.8874L13.0718 26.18L11.8498 25.4886L11.4406 26.1961C11.2799 25.853 11.2835 25.4408 11.4875 25.0888ZM31.0864 38.0746L34.0246 38.0662L34.0205 36.6735L31.0813 36.6819C30.7704 35.5895 29.7538 34.7869 28.5523 34.7869H28.5446L27.0702 34.7912C25.8654 34.7945 24.8495 35.604 24.5445 36.7003L23.9666 36.7022C23.846 36.2751 23.6154 35.884 23.2888 35.5631C22.7928 35.0756 22.1355 34.8071 21.4364 34.8071H21.4287L19.9544 34.8111C19.2526 34.8134 18.5939 35.0853 18.0991 35.5776C17.7743 35.9006 17.5457 36.2929 17.4278 36.7206L14.4681 36.729L14.4721 38.1212L17.4326 38.1129C17.7436 39.2057 18.7605 40.0079 19.962 40.0079H19.9694L21.4437 40.0036C22.1454 40.0017 22.8046 39.7294 23.2993 39.2376C23.6237 38.9145 23.8523 38.5222 23.9705 38.0944L24.5474 38.0926C24.6678 38.5196 24.8989 38.9108 25.2252 39.2321C25.7211 39.7197 26.3784 39.9876 27.0775 39.9876H27.0852L28.5596 39.9836C29.2612 39.9815 29.9204 39.7094 30.4152 39.2173C30.7395 38.8946 30.9681 38.5023 31.0864 38.0746ZM22.301 38.2557C22.1884 38.3683 22.0543 38.4577 21.9065 38.5188C21.7587 38.5798 21.6002 38.6113 21.44 38.6113L19.9657 38.6153H19.962C19.5533 38.6153 19.1904 38.4153 18.9691 38.1086L19.7932 38.1064L19.7892 36.7137L18.9642 36.7163C19.0036 36.6608 19.048 36.6084 19.0974 36.5595C19.21 36.4469 19.3441 36.3574 19.4919 36.2964C19.6397 36.2353 19.7982 36.2039 19.9584 36.2038L21.4327 36.1995H21.4365C21.7608 36.1995 22.0659 36.3241 22.2959 36.5504C22.3452 36.5985 22.3902 36.6507 22.4303 36.7066L21.584 36.7087L21.5881 38.1014L22.4343 38.0988C22.3944 38.1547 22.3498 38.2071 22.301 38.2557ZM28.5555 38.591L27.0811 38.5954H27.0775C26.7531 38.5954 26.448 38.4708 26.218 38.2448C26.169 38.1966 26.1241 38.1443 26.0839 38.0887L26.9086 38.0862L26.9046 36.6939L26.0806 36.696C26.1928 36.5383 26.3416 36.4094 26.5144 36.3203C26.6873 36.2311 26.8792 36.1842 27.0742 36.1835L28.5486 36.1795H28.5523C28.961 36.1795 29.3235 36.3794 29.5451 36.6862L28.6998 36.6888L28.7039 38.0811L29.5498 38.0788C29.5102 38.1343 29.466 38.1864 29.4165 38.2357C29.3038 38.3483 29.1698 38.4377 29.022 38.4987C28.8742 38.5597 28.7157 38.5911 28.5555 38.591ZM24.7228 19.1665V11.455L31.4753 7.59907L30.7711 6.39331L24.0189 10.2489L17.2667 6.39331L16.5625 7.59907L23.315 11.455V19.1665H24.7228Z" fill="url(#paint0_linear_80_15300)"/>
<path d="M45.0618 30.8083L38.3114 34.6674L31.5563 30.8144L30.8528 32.0206L37.6079 35.8735L37.6117 43.585L39.0193 43.5847L39.016 35.8732L45.7664 32.0136L45.0618 30.8083ZM10.39 43.5354V35.8239L17.1423 31.9684L16.4384 30.7626L9.68616 34.6182L2.93288 30.7622L2.229 31.9684L8.982 35.8239V43.5354H10.39ZM15.7407 6.32598L24.0187 1.59901L32.2965 6.32598V14.9909H33.7046V5.52189L24.0186 -0.00878906L14.3331 5.52189V14.9909H15.7407V6.32598ZM24.0187 22.1141L27.907 19.8938L27.2032 18.6881L24.0186 20.5063L20.8333 18.6874L20.1294 19.8932L24.0187 22.1141Z" fill="black"/>
<path d="M45.0618 30.8083L38.3114 34.6674L31.5563 30.8144L30.8528 32.0206L37.6079 35.8735L37.6117 43.585L39.0193 43.5847L39.016 35.8732L45.7664 32.0136L45.0618 30.8083ZM10.39 43.5354V35.8239L17.1423 31.9684L16.4384 30.7626L9.68616 34.6182L2.93288 30.7622L2.229 31.9684L8.982 35.8239V43.5354H10.39ZM15.7407 6.32598L24.0187 1.59901L32.2965 6.32598V14.9909H33.7046V5.52189L24.0186 -0.00878906L14.3331 5.52189V14.9909H15.7407V6.32598ZM24.0187 22.1141L27.907 19.8938L27.2032 18.6881L24.0186 20.5063L20.8333 18.6874L20.1294 19.8932L24.0187 22.1141Z" fill="url(#paint1_linear_80_15300)"/>
<path d="M9.68587 44.8757L1.40813 40.1487V30.695L9.09778 26.3041L8.39391 25.0979L0 29.8914V40.9529L9.68587 46.4835L18.6251 41.3792L17.9212 40.173L9.68587 44.8757ZM19.3715 33.8736V29.8912L15.5925 27.7333L14.8887 28.9394L17.9637 30.695V33.8736H19.3715ZM47.9945 29.9359L39.6423 25.1718L38.9389 26.378L46.5872 30.7403L46.5919 40.1939L38.3163 44.9249L30.2238 40.3092L29.5203 41.5152L38.317 46.5327L48 40.9973L47.9945 29.9359ZM32.4617 27.7507L28.6231 29.9453L28.6249 33.7063L30.033 33.7055L30.0311 30.7486L33.1662 28.9561L32.4617 27.7507ZM19.6003 6.81251L18.8947 5.6075L20.1127 4.90958L20.8187 6.11422L19.6003 6.81251ZM27.9554 6.52674L24.0194 4.27935L23.6609 4.4851L22.9549 3.28008L24.018 2.6709L28.6597 5.32099L27.9554 6.52674ZM21.6307 5.64885L20.9249 4.44384L22.1429 3.74583L22.8487 4.95047L21.6307 5.64885Z" fill="black"/>
<path d="M9.68587 44.8757L1.40813 40.1487V30.695L9.09778 26.3041L8.39391 25.0979L0 29.8914V40.9529L9.68587 46.4835L18.6251 41.3792L17.9212 40.173L9.68587 44.8757ZM19.3715 33.8736V29.8912L15.5925 27.7333L14.8887 28.9394L17.9637 30.695V33.8736H19.3715ZM47.9945 29.9359L39.6423 25.1718L38.9389 26.378L46.5872 30.7403L46.5919 40.1939L38.3163 44.9249L30.2238 40.3092L29.5203 41.5152L38.317 46.5327L48 40.9973L47.9945 29.9359ZM32.4617 27.7507L28.6231 29.9453L28.6249 33.7063L30.033 33.7055L30.0311 30.7486L33.1662 28.9561L32.4617 27.7507ZM19.6003 6.81251L18.8947 5.6075L20.1127 4.90958L20.8187 6.11422L19.6003 6.81251ZM27.9554 6.52674L24.0194 4.27935L23.6609 4.4851L22.9549 3.28008L24.018 2.6709L28.6597 5.32099L27.9554 6.52674ZM21.6307 5.64885L20.9249 4.44384L22.1429 3.74583L22.8487 4.95047L21.6307 5.64885Z" fill="url(#paint2_linear_80_15300)"/>
<path d="M41.0136 42.3105L40.309 41.1051L44.2439 38.8555L44.2432 38.4455L45.6508 38.4426L45.6535 39.6578L41.0136 42.3105ZM44.2409 37.5172L44.2381 36.1249L45.6458 36.1216L45.6491 37.5143L44.2409 37.5172ZM44.2359 35.1966L44.2329 33.804L45.641 33.8011L45.6439 35.1933L44.2359 35.1966ZM7.48043 42.5333L2.34668 39.6132V38.1568H3.75443V38.8081L8.18187 41.3264L7.48043 42.5333ZM2.34668 37.2285V35.8358H3.75443V37.2281L2.34668 37.2285ZM3.75443 34.9075H2.34668V33.5148H3.75443V34.9075Z" fill="black"/>
<path d="M41.0136 42.3105L40.309 41.1051L44.2439 38.8555L44.2432 38.4455L45.6508 38.4426L45.6535 39.6578L41.0136 42.3105ZM44.2409 37.5172L44.2381 36.1249L45.6458 36.1216L45.6491 37.5143L44.2409 37.5172ZM44.2359 35.1966L44.2329 33.804L45.641 33.8011L45.6439 35.1933L44.2359 35.1966ZM7.48043 42.5333L2.34668 39.6132V38.1568H3.75443V38.8081L8.18187 41.3264L7.48043 42.5333ZM2.34668 37.2285V35.8358H3.75443V37.2281L2.34668 37.2285ZM3.75443 34.9075H2.34668V33.5148H3.75443V34.9075Z" fill="url(#paint3_linear_80_15300)"/>
</g>
<defs>
<linearGradient id="paint0_linear_80_15300" x1="24.0191" y1="6.39331" x2="24.0191" y2="40.0079" gradientUnits="userSpaceOnUse">
<stop stop-color="#00A3FF"/>
<stop offset="1" stop-color="#39FF14"/>
</linearGradient>
<linearGradient id="paint1_linear_80_15300" x1="23.9977" y1="-0.00878906" x2="23.9977" y2="43.585" gradientUnits="userSpaceOnUse">
<stop stop-color="#00A3FF"/>
<stop offset="1" stop-color="#39FF14"/>
</linearGradient>
<linearGradient id="paint2_linear_80_15300" x1="24" y1="2.6709" x2="24" y2="46.5327" gradientUnits="userSpaceOnUse">
<stop stop-color="#00A3FF"/>
<stop offset="1" stop-color="#39FF14"/>
</linearGradient>
<linearGradient id="paint3_linear_80_15300" x1="24.0001" y1="33.5148" x2="24.0001" y2="42.5333" gradientUnits="userSpaceOnUse">
<stop stop-color="#00A3FF"/>
<stop offset="1" stop-color="#39FF14"/>
</linearGradient>
<clipPath id="clip0_80_15300">
<rect width="48" height="47.4737" fill="white" transform="translate(0 -0.00878906)"/>
</clipPath>
</defs>
</svg>
