<svg width="48" height="48" viewBox="0 0 48 48" fill="none" xmlns="http://www.w3.org/2000/svg">
<g clip-path="url(#clip0_80_15306)">
<path d="M25.2074 21.9465L22.6396 25.9614L25.2074 21.9465ZM19.9477 25.9614L17.9912 23.954L19.9477 21.9465M28.0526 21.9465L30.009 23.954L28.0526 25.9614" fill="url(#paint0_linear_80_15306)"/>
<path d="M25.2074 21.9465L22.6396 25.9614L25.2074 21.9465ZM19.9477 25.9614L17.9912 23.954L19.9477 21.9465M28.0526 21.9465L30.009 23.954L28.0526 25.9614" fill="url(#paint1_linear_80_15306)"/>
<path d="M25.2074 21.9465L22.6396 25.9614M19.9477 25.9614L17.9912 23.954L19.9477 21.9465M28.0526 21.9465L30.009 23.954L28.0526 25.9614" stroke="black" stroke-width="1.875" stroke-miterlimit="10" stroke-linecap="round" stroke-linejoin="round"/>
<path d="M33.5343 29.0213V15.3316C33.5343 14.8195 33.1146 14.4044 32.5968 14.4044H15.4032C14.8854 14.4044 14.4657 14.8195 14.4657 15.3316V32.3366C14.4657 32.8487 15.4032 33.2639 15.4032 33.2639H29.1925M33.7914 23.9539H38.1167M14.2086 23.9539H9.88331M24 14.2698V9.99201M24 33.638V37.9158M5.13084 9.99201V19.4042M9.88331 5.29165H19.3085M42.8692 9.99201V19.4042M38.1167 5.29165H28.6915M5.13084 37.9158V28.5036M9.88331 42.6162H19.3085M42.8692 37.9158V28.5036M38.1167 42.6162H28.6915M46.125 28.1013H39.6132C39.0954 28.1013 38.6757 27.6862 38.6757 27.1741V20.7337C38.6757 20.2216 39.0954 19.8065 39.6132 19.8065H46.125C46.6428 19.8065 47.0625 20.2216 47.0625 20.7337V27.1741C47.0625 27.6862 46.6428 28.1013 46.125 28.1013ZM1.875 19.8065H8.38678C8.90456 19.8065 9.32428 20.2217 9.32428 20.7338V27.1741C9.32428 27.6862 8.90456 28.1014 8.38678 28.1014H1.875C1.35722 28.1014 0.9375 27.6862 0.9375 27.1741V20.7338C0.9375 20.2217 1.35722 19.8065 1.875 19.8065ZM28.1933 2.07151V8.51189C28.1933 9.02399 27.7736 9.43911 27.2558 9.43911H20.7441C20.2263 9.43911 19.8066 9.02399 19.8066 8.51189V2.07151C19.8066 1.5594 20.2263 1.14429 20.7441 1.14429H27.2558C27.7736 1.14429 28.1933 1.5594 28.1933 2.07151ZM19.8067 45.8363V39.3959C19.8067 38.8838 20.2264 38.4687 20.7442 38.4687H27.2559C27.7737 38.4687 28.1934 38.8838 28.1934 39.3959V45.8363C28.1934 46.3484 27.7737 46.7635 27.2559 46.7635H20.7442C20.2264 46.7635 19.8067 46.3484 19.8067 45.8363ZM9.32428 2.07151V8.51189C9.32428 9.02399 8.90456 9.43911 8.38678 9.43911H1.875C1.35722 9.43911 0.9375 9.02399 0.9375 8.51189V2.07151C0.9375 1.5594 1.35722 1.14429 1.875 1.14429H8.38678C8.90456 1.14429 9.32428 1.5594 9.32428 2.07151ZM38.6757 2.07151V8.51189C38.6757 9.02399 39.0954 9.43911 39.6132 9.43911H46.125C46.6428 9.43911 47.0625 9.02399 47.0625 8.51189V2.07151C47.0625 1.5594 46.6428 1.14429 46.125 1.14429H39.6132C39.0954 1.14429 38.6757 1.5594 38.6757 2.07151ZM9.32428 45.8363V39.3959C9.32428 38.8838 8.90456 38.4687 8.38678 38.4687H1.875C1.35722 38.4687 0.9375 38.8838 0.9375 39.3959V45.8363C0.9375 46.3484 1.35722 46.7635 1.875 46.7635H8.38678C8.90456 46.7635 9.32428 46.3484 9.32428 45.8363ZM38.6757 45.8363V39.3959C38.6757 38.8838 39.0954 38.4687 39.6132 38.4687H46.125C46.6428 38.4687 47.0625 38.8838 47.0625 39.3959V45.8363C47.0625 46.3484 46.6428 46.7635 46.125 46.7635H39.6132C39.0954 46.7635 38.6757 46.3484 38.6757 45.8363Z" stroke="url(#paint2_linear_80_15306)" stroke-width="1.875" stroke-miterlimit="10" stroke-linecap="round" stroke-linejoin="round"/>
</g>
<defs>
<linearGradient id="paint0_linear_80_15306" x1="24.0001" y1="21.9465" x2="24.0001" y2="25.9614" gradientUnits="userSpaceOnUse">
<stop stop-color="#00A3FF"/>
<stop offset="1" stop-color="#39FF14"/>
</linearGradient>
<linearGradient id="paint1_linear_80_15306" x1="24.0001" y1="21.9465" x2="24.0001" y2="25.9614" gradientUnits="userSpaceOnUse">
<stop stop-color="#00A3FF"/>
<stop offset="1" stop-color="#39FF14"/>
</linearGradient>
<linearGradient id="paint2_linear_80_15306" x1="24" y1="1.14429" x2="24" y2="46.7635" gradientUnits="userSpaceOnUse">
<stop stop-color="#39FF14"/>
<stop offset="1" stop-color="#00A3FF"/>
</linearGradient>
<clipPath id="clip0_80_15306">
<rect width="48" height="47.4737" fill="white" transform="translate(0 0.217041)"/>
</clipPath>
</defs>
</svg>
