<svg width="84" height="84" viewBox="0 0 84 84" fill="none" xmlns="http://www.w3.org/2000/svg">
<path d="M83.6182 42.454C83.6182 65.1808 64.9891 83.6117 42 83.6117C19.0109 83.6117 0.381818 65.1808 0.381818 42.454C0.381818 19.7272 19.0109 1.29637 42 1.29637C64.9891 1.29637 83.6182 19.7272 83.6182 42.454Z" fill="#171717" stroke="url(#paint0_linear_80_15273)" stroke-width="0.763636"/>
<g clip-path="url(#clip0_80_15273)">
<path d="M56.5793 29.5452C52.6851 25.6938 47.5072 23.5725 42 23.5725C36.4928 23.5725 31.315 25.6937 27.4207 29.5452C23.5266 33.3967 21.3818 38.5178 21.3818 43.9646C21.3818 49.4115 23.5265 54.5325 27.4207 58.3841C31.315 62.2355 36.4928 64.3567 42 64.3567C47.5072 64.3567 52.6851 62.2355 56.5793 58.3841C60.4734 54.5325 62.6182 49.4115 62.6182 43.9646C62.6182 38.5178 60.4735 33.3967 56.5793 29.5452ZM30.3302 57.7689C31.0111 51.975 36.0476 47.5019 42 47.5019C45.1378 47.5019 48.0887 48.711 50.3082 50.906C52.1832 52.7608 53.3659 55.1825 53.6701 57.7686C50.5083 60.3876 46.4373 61.967 42 61.967C37.5628 61.967 33.492 60.3879 30.3302 57.7689ZM42 45.0405C38.5472 45.0405 35.7377 42.262 35.7377 38.847C35.7377 35.4317 38.5473 32.6534 42 32.6534C45.4528 32.6534 48.2623 35.4317 48.2623 38.847C48.2623 42.262 45.4528 45.0406 42 45.0406V45.0405ZM55.7497 55.7485C55.1289 53.276 53.8382 51.0176 52.0165 49.2164C50.5316 47.7477 48.7748 46.6459 46.8588 45.9554C49.1621 44.4105 50.6785 41.8005 50.6785 38.847C50.6785 34.1143 46.7852 30.2637 42 30.2637C37.2148 30.2637 33.3215 34.1143 33.3215 38.847C33.3215 41.8021 34.8392 44.413 37.1444 45.9576C35.3816 46.593 33.7504 47.5753 32.3469 48.8684C30.3145 50.7404 28.9032 53.1273 28.2488 55.7466C25.4774 52.5868 23.798 48.4662 23.798 43.9646C23.798 34.038 31.9634 25.9622 42 25.9622C52.0366 25.9622 60.202 34.038 60.202 43.9646C60.202 48.467 58.5219 52.5887 55.7497 55.7485Z" fill="white"/>
<path d="M56.5793 29.5452C52.6851 25.6938 47.5072 23.5725 42 23.5725C36.4928 23.5725 31.315 25.6937 27.4207 29.5452C23.5266 33.3967 21.3818 38.5178 21.3818 43.9646C21.3818 49.4115 23.5265 54.5325 27.4207 58.3841C31.315 62.2355 36.4928 64.3567 42 64.3567C47.5072 64.3567 52.6851 62.2355 56.5793 58.3841C60.4734 54.5325 62.6182 49.4115 62.6182 43.9646C62.6182 38.5178 60.4735 33.3967 56.5793 29.5452ZM30.3302 57.7689C31.0111 51.975 36.0476 47.5019 42 47.5019C45.1378 47.5019 48.0887 48.711 50.3082 50.906C52.1832 52.7608 53.3659 55.1825 53.6701 57.7686C50.5083 60.3876 46.4373 61.967 42 61.967C37.5628 61.967 33.492 60.3879 30.3302 57.7689ZM42 45.0405C38.5472 45.0405 35.7377 42.262 35.7377 38.847C35.7377 35.4317 38.5473 32.6534 42 32.6534C45.4528 32.6534 48.2623 35.4317 48.2623 38.847C48.2623 42.262 45.4528 45.0406 42 45.0406V45.0405ZM55.7497 55.7485C55.1289 53.276 53.8382 51.0176 52.0165 49.2164C50.5316 47.7477 48.7748 46.6459 46.8588 45.9554C49.1621 44.4105 50.6785 41.8005 50.6785 38.847C50.6785 34.1143 46.7852 30.2637 42 30.2637C37.2148 30.2637 33.3215 34.1143 33.3215 38.847C33.3215 41.8021 34.8392 44.413 37.1444 45.9576C35.3816 46.593 33.7504 47.5753 32.3469 48.8684C30.3145 50.7404 28.9032 53.1273 28.2488 55.7466C25.4774 52.5868 23.798 48.4662 23.798 43.9646C23.798 34.038 31.9634 25.9622 42 25.9622C52.0366 25.9622 60.202 34.038 60.202 43.9646C60.202 48.467 58.5219 52.5887 55.7497 55.7485Z" fill="url(#paint1_linear_80_15273)"/>
</g>
<defs>
<linearGradient id="paint0_linear_80_15273" x1="42" y1="0.91455" x2="62.9598" y2="65.6263" gradientUnits="userSpaceOnUse">
<stop stop-color="#39FF14"/>
<stop offset="1" stop-color="#00A3FF"/>
</linearGradient>
<linearGradient id="paint1_linear_80_15273" x1="42" y1="23.5725" x2="42" y2="64.3567" gradientUnits="userSpaceOnUse">
<stop stop-color="#00A3FF"/>
<stop offset="1" stop-color="#39FF14"/>
</linearGradient>
<clipPath id="clip0_80_15273">
<rect width="41.2364" height="40.7842" fill="white" transform="translate(21.3818 23.5725)"/>
</clipPath>
</defs>
</svg>
