<svg width="23" height="22" viewBox="0 0 23 22" fill="none" xmlns="http://www.w3.org/2000/svg">
<g clip-path="url(#clip0_96_526)">
<path d="M18.8498 3.22065C14.5534 -1.07446 7.58852 -1.07343 3.29341 3.22302C-1.00171 7.51946 -1.00068 14.4843 3.29577 18.7794C7.59222 23.0745 14.557 23.0735 18.8521 18.777C19.8734 17.7554 20.6835 16.5427 21.2361 15.208C21.7887 13.8733 22.073 12.4429 22.0728 10.9983C22.0726 9.5538 21.7878 8.12345 21.2348 6.78895C20.6818 5.45445 19.8714 4.24194 18.8498 3.22065ZM16.7319 15.3229L16.7304 15.3243V15.3207L16.1731 15.8743C15.8187 16.2332 15.3777 16.4947 14.8928 16.6334C14.4078 16.7721 13.8953 16.7835 13.4047 16.6663C12.3995 16.3973 11.4439 15.969 10.5741 15.3977C9.76598 14.8813 9.01715 14.2775 8.34107 13.5973C7.71904 12.9798 7.16015 12.3018 6.67273 11.5733C6.13958 10.7895 5.71757 9.93563 5.41873 9.036C5.25076 8.51783 5.23039 7.96311 5.35992 7.43401C5.48944 6.90492 5.76374 6.42234 6.15207 6.04035L6.80473 5.3877C6.98618 5.20542 7.28104 5.20478 7.46327 5.38623L7.46473 5.3877L9.52538 7.44835C9.70765 7.62981 9.7083 7.92466 9.52684 8.10689L9.52538 8.10835L8.31538 9.31835C7.96819 9.66175 7.92454 10.2075 8.21273 10.6017C8.65038 11.2023 9.13466 11.7675 9.66107 12.292C10.248 12.8815 10.886 13.4177 11.5677 13.8944C11.9616 14.1691 12.4956 14.1228 12.8364 13.7844L14.006 12.5964C14.1875 12.4141 14.4823 12.4135 14.6646 12.5949L14.666 12.5964L16.7304 14.6644C16.9127 14.8458 16.9133 15.1406 16.7319 15.3229Z" fill="white"/>
</g>
<defs>
<clipPath id="clip0_96_526">
<rect width="22" height="22" fill="white" transform="translate(0.0727539)"/>
</clipPath>
</defs>
</svg>
