<svg width="23" height="22" viewBox="0 0 23 22" fill="none" xmlns="http://www.w3.org/2000/svg">
<g clip-path="url(#clip0_96_543)">
<path fill-rule="evenodd" clip-rule="evenodd" d="M11.0728 0C17.1479 0 22.0728 4.92486 22.0728 11C22.0728 17.0751 17.1479 22 11.0728 22C4.99762 22 0.0727539 17.0751 0.0727539 11C0.0727539 4.92486 4.99762 0 11.0728 0ZM18.0552 15.2643V7.0889L13.9673 11.1766L18.0552 15.2643ZM4.96363 15.4308H17.1821L13.4478 11.6965L12.0246 13.1195C11.9555 13.1883 11.8621 13.227 11.7646 13.2269H10.381C10.3327 13.227 10.2849 13.2175 10.2403 13.1991C10.1957 13.1807 10.1552 13.1536 10.121 13.1195L8.69779 11.6965L4.96346 15.4308H4.96363ZM4.09033 7.08864V15.2645L8.17825 11.1766L4.09033 7.08864ZM17.5355 6.56919H4.61025L10.5332 12.4922H11.6125L17.5355 6.56919Z" fill="white"/>
</g>
<defs>
<clipPath id="clip0_96_543">
<rect width="22" height="22" fill="white" transform="translate(0.0727539)"/>
</clipPath>
</defs>
</svg>
