<svg width="61" height="60" viewBox="0 0 61 60" fill="none" xmlns="http://www.w3.org/2000/svg">
<path fill-rule="evenodd" clip-rule="evenodd" d="M15.5042 31.293C15.72 31.2918 15.9079 31.1554 15.974 30.9497C16.0741 30.6301 15.8387 30.3091 15.5042 30.3073H14.5184C14.3026 30.3085 14.1147 30.445 14.0486 30.6507C13.9485 30.9703 14.1839 31.2912 14.5184 31.293H15.5042ZM19.4471 31.293C19.6629 31.2918 19.8508 31.1554 19.9169 30.9497C20.017 30.6301 19.7816 30.3091 19.4471 30.3073H18.4614C18.2455 30.3085 18.0576 30.445 17.9916 30.6507C17.8915 30.9703 18.1268 31.2912 18.4614 31.293H19.4471ZM23.39 31.293C23.6059 31.2918 23.7937 31.1554 23.8598 30.9497C23.9599 30.6301 23.7245 30.3091 23.39 30.3073H22.4043C22.1884 30.3085 22.0006 30.445 21.9345 30.6507C21.8344 30.9703 22.0698 31.2912 22.4043 31.293H23.39ZM27.3329 31.293C27.5488 31.2918 27.7366 31.1554 27.8027 30.9497C27.9028 30.6301 27.6674 30.3091 27.3329 30.3073H26.3472C26.1313 30.3085 25.9435 30.445 25.8774 30.6507C25.7773 30.9703 26.0127 31.2912 26.3472 31.293H27.3329ZM30.3744 31.293C30.2436 31.293 30.1183 31.2411 30.0258 31.1487C29.9334 31.0562 29.8815 30.9309 29.8815 30.8001C29.8815 30.6694 29.9334 30.5441 30.0258 30.4516C30.1183 30.3592 30.2436 30.3072 30.3744 30.3072H39.591L38.7736 29.4899C38.7274 29.4442 38.6907 29.3898 38.6656 29.3299C38.6405 29.27 38.6275 29.2058 38.6273 29.1408C38.6271 29.0759 38.6397 29.0115 38.6645 28.9515C38.6893 28.8914 38.7257 28.8369 38.7716 28.7909C38.8175 28.745 38.8721 28.7086 38.9321 28.6839C38.9922 28.6591 39.0565 28.6464 39.1215 28.6466C39.1864 28.6468 39.2507 28.6598 39.3106 28.6849C39.3705 28.71 39.4249 28.7467 39.4705 28.7929L41.1293 30.4517C41.2217 30.5441 41.2736 30.6694 41.2736 30.8001C41.2736 30.9309 41.2217 31.0562 41.1293 31.1486L39.4705 32.8074C39.4249 32.8536 39.3705 32.8903 39.3106 32.9154C39.2507 32.9405 39.1864 32.9535 39.1215 32.9537C39.0565 32.9539 38.9922 32.9412 38.9321 32.9164C38.8721 32.8917 38.8175 32.8553 38.7716 32.8093C38.7257 32.7634 38.6893 32.7089 38.6645 32.6488C38.6397 32.5888 38.6271 32.5244 38.6273 32.4595C38.6275 32.3945 38.6405 32.3303 38.6656 32.2704C38.6907 32.2105 38.7274 32.1561 38.7736 32.1104L39.591 31.293H30.3744ZM16.6575 26.4424C16.8733 26.4412 17.0612 26.3048 17.1273 26.099C17.2274 25.7794 16.992 25.4585 16.6575 25.4567H15.6718C15.4559 25.4579 15.2681 25.5943 15.202 25.8001C15.1019 26.1196 15.3372 26.4406 15.6718 26.4424H16.6575ZM20.6004 26.4424C20.8163 26.4412 21.0041 26.3048 21.0702 26.099C21.1703 25.7794 20.9349 25.4585 20.6004 25.4567H19.6147C19.3988 25.4579 19.211 25.5943 19.1449 25.8001C19.0448 26.1196 19.2802 26.4406 19.6147 26.4424H20.6004ZM24.5433 26.4424C24.7592 26.4412 24.947 26.3048 25.0131 26.099C25.1132 25.7794 24.8779 25.4585 24.5433 25.4567H23.5576C23.3418 25.4579 23.1539 25.5943 23.0878 25.8001C22.9877 26.1196 23.2231 26.4406 23.5576 26.4424H24.5433ZM28.4863 26.4424C28.7021 26.4412 28.89 26.3048 28.956 26.099C29.0561 25.7794 28.8208 25.4585 28.4863 25.4567H27.5005C27.2847 25.4579 27.0968 25.5943 27.0307 25.8001C26.9306 26.1196 27.166 26.4406 27.5005 26.4424H28.4863ZM32.4292 26.4424C32.645 26.4412 32.8329 26.3048 32.899 26.099C32.9991 25.7794 32.7637 25.4585 32.4292 25.4567H31.4434C31.2276 25.4579 31.0397 25.5943 30.9737 25.8001C30.8736 26.1196 31.1089 26.4406 31.4434 26.4424H32.4292ZM35.3526 26.4424C35.2218 26.4424 35.0965 26.3905 35.004 26.298C34.9116 26.2056 34.8597 26.0802 34.8597 25.9495C34.8597 25.8188 34.9116 25.6934 35.004 25.601C35.0965 25.5085 35.2218 25.4566 35.3526 25.4566H44.5691L43.7518 24.6392C43.7056 24.5935 43.6689 24.5392 43.6438 24.4793C43.6187 24.4194 43.6056 24.3551 43.6055 24.2902C43.6053 24.2252 43.6179 24.1609 43.6427 24.1008C43.6675 24.0408 43.7039 23.9862 43.7498 23.9403C43.7957 23.8944 43.8503 23.858 43.9103 23.8332C43.9704 23.8084 44.0347 23.7958 44.0997 23.796C44.1646 23.7961 44.2289 23.8092 44.2888 23.8343C44.3487 23.8594 44.4031 23.8961 44.4487 23.9423L46.1075 25.601C46.1999 25.6934 46.2518 25.8188 46.2518 25.9495C46.2518 26.0802 46.1999 26.2056 46.1075 26.298L44.4487 27.9567C44.4031 28.0029 44.3487 28.0396 44.2888 28.0647C44.2289 28.0898 44.1646 28.1029 44.0997 28.103C44.0347 28.1032 43.9704 28.0906 43.9103 28.0658C43.8503 28.041 43.7957 28.0046 43.7498 27.9587C43.7039 27.9128 43.6675 27.8582 43.6427 27.7982C43.6179 27.7381 43.6053 27.6738 43.6055 27.6088C43.6056 27.5439 43.6187 27.4796 43.6438 27.4197C43.6689 27.3598 43.7056 27.3055 43.7518 27.2598L44.5691 26.4424H35.3526ZM15.5042 21.5918C15.72 21.5906 15.9079 21.4542 15.974 21.2484C16.0741 20.9288 15.8387 20.6079 15.5042 20.6061H14.5184C14.3026 20.6073 14.1147 20.7437 14.0486 20.9495C13.9485 21.269 14.1839 21.59 14.5184 21.5918H15.5042ZM19.4471 21.5918C19.6629 21.5906 19.8508 21.4542 19.9169 21.2484C20.017 20.9288 19.7816 20.6079 19.4471 20.6061H18.4614C18.2455 20.6073 18.0576 20.7437 17.9916 20.9495C17.8915 21.269 18.1268 21.59 18.4614 21.5918H19.4471ZM23.39 21.5918C23.6059 21.5906 23.7937 21.4542 23.8598 21.2484C23.9599 20.9288 23.7245 20.6079 23.39 20.6061H22.4043C22.1884 20.6073 22.0006 20.7437 21.9345 20.9495C21.8344 21.269 22.0698 21.59 22.4043 21.5918H23.39ZM27.3329 21.5918C27.5488 21.5906 27.7366 21.4542 27.8027 21.2484C27.9028 20.9288 27.6674 20.6079 27.3329 20.6061H26.3472C26.1313 20.6073 25.9435 20.7437 25.8774 20.9495C25.7773 21.269 26.0127 21.59 26.3472 21.5918H27.3329ZM30.3744 21.5918C30.2436 21.5918 30.1183 21.5399 30.0258 21.4475C29.9334 21.355 29.8815 21.2296 29.8815 21.0989C29.8815 20.9682 29.9334 20.8428 30.0258 20.7504C30.1183 20.658 30.2436 20.606 30.3744 20.606H39.591L38.7736 19.7886C38.7274 19.743 38.6907 19.6886 38.6656 19.6287C38.6405 19.5688 38.6275 19.5045 38.6273 19.4396C38.6271 19.3746 38.6397 19.3103 38.6645 19.2502C38.6893 19.1902 38.7257 19.1356 38.7716 19.0897C38.8175 19.0438 38.8721 19.0074 38.9321 18.9826C38.9922 18.9579 39.0565 18.9452 39.1215 18.9454C39.1864 18.9456 39.2507 18.9586 39.3106 18.9837C39.3705 19.0088 39.4249 19.0455 39.4705 19.0917L41.1293 20.7504C41.2217 20.8429 41.2736 20.9682 41.2736 21.0989C41.2736 21.2296 41.2217 21.355 41.1293 21.4474L39.4705 23.1062C39.4249 23.1523 39.3705 23.189 39.3106 23.2142C39.2507 23.2393 39.1864 23.2523 39.1215 23.2525C39.0565 23.2526 38.9922 23.24 38.9321 23.2152C38.8721 23.1904 38.8175 23.154 38.7716 23.1081C38.7257 23.0622 38.6893 23.0076 38.6645 22.9476C38.6397 22.8876 38.6271 22.8232 38.6273 22.7583C38.6275 22.6933 38.6405 22.629 38.6656 22.5691C38.6907 22.5092 38.7274 22.4549 38.7736 22.4092L39.591 21.5918H30.3744ZM16.6575 16.7412C16.8733 16.74 17.0612 16.6035 17.1273 16.3978C17.2274 16.0782 16.992 15.7573 16.6575 15.7554H15.6718C15.4559 15.7567 15.2681 15.8931 15.202 16.0988C15.1019 16.4184 15.3372 16.7393 15.6718 16.7412H16.6575ZM20.6004 16.7412C20.8163 16.74 21.0041 16.6035 21.0702 16.3978C21.1703 16.0782 20.9349 15.7573 20.6004 15.7554H19.6147C19.3988 15.7567 19.211 15.8931 19.1449 16.0988C19.0448 16.4184 19.2802 16.7393 19.6147 16.7412H20.6004ZM24.5433 16.7412C24.7592 16.74 24.947 16.6035 25.0131 16.3978C25.1132 16.0782 24.8779 15.7573 24.5433 15.7554H23.5576C23.3418 15.7567 23.1539 15.8931 23.0878 16.0988C22.9877 16.4184 23.2231 16.7393 23.5576 16.7412H24.5433ZM28.4863 16.7412C28.7021 16.74 28.89 16.6035 28.956 16.3978C29.0561 16.0782 28.8208 15.7573 28.4863 15.7554H27.5005C27.2847 15.7567 27.0968 15.8931 27.0307 16.0988C26.9306 16.4184 27.166 16.7393 27.5005 16.7412H28.4863ZM32.4292 16.7412C32.645 16.74 32.8329 16.6035 32.899 16.3978C32.9991 16.0782 32.7637 15.7573 32.4292 15.7554H31.4434C31.2276 15.7567 31.0397 15.8931 30.9737 16.0988C30.8736 16.4184 31.1089 16.7393 31.4434 16.7412H32.4292ZM35.3526 16.7412C35.2218 16.7412 35.0965 16.6892 35.004 16.5968C34.9116 16.5044 34.8597 16.379 34.8597 16.2483C34.8597 16.1175 34.9116 15.9922 35.004 15.8997C35.0965 15.8073 35.2218 15.7554 35.3526 15.7554H44.5691L43.7518 14.938C43.7056 14.8923 43.6689 14.838 43.6438 14.7781C43.6187 14.7182 43.6056 14.6539 43.6055 14.5889C43.6053 14.524 43.6179 14.4596 43.6427 14.3996C43.6675 14.3396 43.7039 14.285 43.7498 14.2391C43.7957 14.1931 43.8503 14.1567 43.9103 14.132C43.9704 14.1072 44.0347 14.0945 44.0997 14.0947C44.1646 14.0949 44.2289 14.1079 44.2888 14.133C44.3487 14.1581 44.4031 14.1948 44.4487 14.241L46.1075 15.8998C46.1999 15.9922 46.2518 16.1176 46.2518 16.2483C46.2518 16.379 46.1999 16.5043 46.1075 16.5968L44.4487 18.2555C44.4031 18.3017 44.3487 18.3384 44.2888 18.3635C44.2289 18.3886 44.1646 18.4016 44.0997 18.4018C44.0347 18.402 43.9704 18.3893 43.9103 18.3646C43.8503 18.3398 43.7957 18.3034 43.7498 18.2575C43.7039 18.2115 43.6675 18.157 43.6427 18.0969C43.6179 18.0369 43.6053 17.9726 43.6055 17.9076C43.6056 17.8427 43.6187 17.7784 43.6438 17.7185C43.6689 17.6586 43.7056 17.6042 43.7518 17.5586L44.5691 16.7412H35.3526ZM19.3078 41.8833L16.2131 40.0966C15.515 41.4398 15.0927 42.9484 15.0206 44.5466H18.594C18.6562 43.6208 18.8987 42.7161 19.3077 41.8832L19.3078 41.8833ZM21.7526 39.0856C20.9828 39.6029 20.3201 40.264 19.8011 41.0326L16.7062 39.2457C17.5458 37.9388 18.6577 36.8286 19.9659 35.9911L21.7526 39.0856ZM25.265 37.8872V34.3145C23.666 34.385 22.159 34.805 20.8176 35.4994L22.6045 38.5944C23.437 38.188 24.3406 37.9478 25.265 37.8872ZM26.1829 44.6144C25.8055 44.2369 25.1567 44.5052 25.1567 45.0395C25.1567 45.5737 25.8054 45.842 26.1829 45.4645C26.2956 45.3518 26.3589 45.1989 26.3589 45.0394C26.3589 44.88 26.2956 44.7272 26.1829 44.6144ZM27.5756 40.9096C27.6404 40.7967 27.7474 40.7142 27.8731 40.6803C27.9987 40.6464 28.1327 40.6637 28.2456 40.7286C28.3584 40.7934 28.4409 40.9005 28.4748 41.0261C28.5088 41.1518 28.4914 41.2857 28.4266 41.3986L26.9374 43.978C27.8537 44.9955 27.1288 46.6264 25.7579 46.6264C24.3489 46.6264 23.6385 44.9148 24.6358 43.9175C24.8227 43.7304 25.0534 43.5931 25.307 43.5179C25.5605 43.4427 25.8288 43.4321 26.0875 43.487L27.5756 40.9096V40.9096ZM28.9064 38.6044L30.6822 35.5287C29.3439 34.8217 27.8418 34.3915 26.2507 34.3158V37.889C27.174 37.9527 28.0761 38.1957 28.9064 38.6044ZM31.6971 41.0437C31.1809 40.2762 30.5215 39.6153 29.7552 39.0972L31.5282 36.0264C32.8206 36.8682 33.9216 37.9793 34.7558 39.2778L31.697 41.0437H31.6971ZM35.2488 40.1265L32.1879 41.8937C32.5939 42.7236 32.8346 43.6247 32.8965 44.5466H36.4643C36.3769 42.9626 35.9472 41.4639 35.2487 40.1265H35.2488ZM35.7662 39.0417C35.8184 39.0814 35.8621 39.1311 35.8947 39.188C35.9277 39.2455 35.9478 39.3068 35.9559 39.3687C36.89 41.0383 37.4341 42.9548 37.4618 44.9878C37.4802 45.302 37.2577 45.5324 36.9716 45.5324H32.4206C32.2898 45.5324 32.1645 45.4804 32.072 45.388C31.9796 45.2956 31.9277 45.1702 31.9277 45.0395C31.9277 41.6249 29.1598 38.857 25.7453 38.857C22.3307 38.857 19.5629 41.6249 19.5629 45.0395C19.5629 45.1702 19.511 45.2956 19.4185 45.388C19.3261 45.4804 19.2007 45.5324 19.07 45.5324H14.5184V45.5305C14.3882 45.5305 14.2634 45.4787 14.1713 45.3867C14.0792 45.2946 14.0275 45.1697 14.0275 45.0395C14.0269 41.8275 15.3212 38.912 17.4204 36.7925C19.5063 34.6864 22.3884 33.3666 25.5855 33.3231C25.6025 33.3213 25.6197 33.3204 25.6371 33.3204V33.3223C27.7662 33.3025 29.7677 33.8635 31.4974 34.8555C31.6586 34.9232 31.5733 34.8726 31.7131 34.9823C32.5273 35.4731 33.2795 36.06 33.9536 36.7305C34.6506 37.4234 35.2594 38.1997 35.7663 39.0418L35.7662 39.0417Z" fill="black"/>
<path fill-rule="evenodd" clip-rule="evenodd" d="M15.5042 31.293C15.72 31.2918 15.9079 31.1554 15.974 30.9497C16.0741 30.6301 15.8387 30.3091 15.5042 30.3073H14.5184C14.3026 30.3085 14.1147 30.445 14.0486 30.6507C13.9485 30.9703 14.1839 31.2912 14.5184 31.293H15.5042ZM19.4471 31.293C19.6629 31.2918 19.8508 31.1554 19.9169 30.9497C20.017 30.6301 19.7816 30.3091 19.4471 30.3073H18.4614C18.2455 30.3085 18.0576 30.445 17.9916 30.6507C17.8915 30.9703 18.1268 31.2912 18.4614 31.293H19.4471ZM23.39 31.293C23.6059 31.2918 23.7937 31.1554 23.8598 30.9497C23.9599 30.6301 23.7245 30.3091 23.39 30.3073H22.4043C22.1884 30.3085 22.0006 30.445 21.9345 30.6507C21.8344 30.9703 22.0698 31.2912 22.4043 31.293H23.39ZM27.3329 31.293C27.5488 31.2918 27.7366 31.1554 27.8027 30.9497C27.9028 30.6301 27.6674 30.3091 27.3329 30.3073H26.3472C26.1313 30.3085 25.9435 30.445 25.8774 30.6507C25.7773 30.9703 26.0127 31.2912 26.3472 31.293H27.3329ZM30.3744 31.293C30.2436 31.293 30.1183 31.2411 30.0258 31.1487C29.9334 31.0562 29.8815 30.9309 29.8815 30.8001C29.8815 30.6694 29.9334 30.5441 30.0258 30.4516C30.1183 30.3592 30.2436 30.3072 30.3744 30.3072H39.591L38.7736 29.4899C38.7274 29.4442 38.6907 29.3898 38.6656 29.3299C38.6405 29.27 38.6275 29.2058 38.6273 29.1408C38.6271 29.0759 38.6397 29.0115 38.6645 28.9515C38.6893 28.8914 38.7257 28.8369 38.7716 28.7909C38.8175 28.745 38.8721 28.7086 38.9321 28.6839C38.9922 28.6591 39.0565 28.6464 39.1215 28.6466C39.1864 28.6468 39.2507 28.6598 39.3106 28.6849C39.3705 28.71 39.4249 28.7467 39.4705 28.7929L41.1293 30.4517C41.2217 30.5441 41.2736 30.6694 41.2736 30.8001C41.2736 30.9309 41.2217 31.0562 41.1293 31.1486L39.4705 32.8074C39.4249 32.8536 39.3705 32.8903 39.3106 32.9154C39.2507 32.9405 39.1864 32.9535 39.1215 32.9537C39.0565 32.9539 38.9922 32.9412 38.9321 32.9164C38.8721 32.8917 38.8175 32.8553 38.7716 32.8093C38.7257 32.7634 38.6893 32.7089 38.6645 32.6488C38.6397 32.5888 38.6271 32.5244 38.6273 32.4595C38.6275 32.3945 38.6405 32.3303 38.6656 32.2704C38.6907 32.2105 38.7274 32.1561 38.7736 32.1104L39.591 31.293H30.3744ZM16.6575 26.4424C16.8733 26.4412 17.0612 26.3048 17.1273 26.099C17.2274 25.7794 16.992 25.4585 16.6575 25.4567H15.6718C15.4559 25.4579 15.2681 25.5943 15.202 25.8001C15.1019 26.1196 15.3372 26.4406 15.6718 26.4424H16.6575ZM20.6004 26.4424C20.8163 26.4412 21.0041 26.3048 21.0702 26.099C21.1703 25.7794 20.9349 25.4585 20.6004 25.4567H19.6147C19.3988 25.4579 19.211 25.5943 19.1449 25.8001C19.0448 26.1196 19.2802 26.4406 19.6147 26.4424H20.6004ZM24.5433 26.4424C24.7592 26.4412 24.947 26.3048 25.0131 26.099C25.1132 25.7794 24.8779 25.4585 24.5433 25.4567H23.5576C23.3418 25.4579 23.1539 25.5943 23.0878 25.8001C22.9877 26.1196 23.2231 26.4406 23.5576 26.4424H24.5433ZM28.4863 26.4424C28.7021 26.4412 28.89 26.3048 28.956 26.099C29.0561 25.7794 28.8208 25.4585 28.4863 25.4567H27.5005C27.2847 25.4579 27.0968 25.5943 27.0307 25.8001C26.9306 26.1196 27.166 26.4406 27.5005 26.4424H28.4863ZM32.4292 26.4424C32.645 26.4412 32.8329 26.3048 32.899 26.099C32.9991 25.7794 32.7637 25.4585 32.4292 25.4567H31.4434C31.2276 25.4579 31.0397 25.5943 30.9737 25.8001C30.8736 26.1196 31.1089 26.4406 31.4434 26.4424H32.4292ZM35.3526 26.4424C35.2218 26.4424 35.0965 26.3905 35.004 26.298C34.9116 26.2056 34.8597 26.0802 34.8597 25.9495C34.8597 25.8188 34.9116 25.6934 35.004 25.601C35.0965 25.5085 35.2218 25.4566 35.3526 25.4566H44.5691L43.7518 24.6392C43.7056 24.5935 43.6689 24.5392 43.6438 24.4793C43.6187 24.4194 43.6056 24.3551 43.6055 24.2902C43.6053 24.2252 43.6179 24.1609 43.6427 24.1008C43.6675 24.0408 43.7039 23.9862 43.7498 23.9403C43.7957 23.8944 43.8503 23.858 43.9103 23.8332C43.9704 23.8084 44.0347 23.7958 44.0997 23.796C44.1646 23.7961 44.2289 23.8092 44.2888 23.8343C44.3487 23.8594 44.4031 23.8961 44.4487 23.9423L46.1075 25.601C46.1999 25.6934 46.2518 25.8188 46.2518 25.9495C46.2518 26.0802 46.1999 26.2056 46.1075 26.298L44.4487 27.9567C44.4031 28.0029 44.3487 28.0396 44.2888 28.0647C44.2289 28.0898 44.1646 28.1029 44.0997 28.103C44.0347 28.1032 43.9704 28.0906 43.9103 28.0658C43.8503 28.041 43.7957 28.0046 43.7498 27.9587C43.7039 27.9128 43.6675 27.8582 43.6427 27.7982C43.6179 27.7381 43.6053 27.6738 43.6055 27.6088C43.6056 27.5439 43.6187 27.4796 43.6438 27.4197C43.6689 27.3598 43.7056 27.3055 43.7518 27.2598L44.5691 26.4424H35.3526ZM15.5042 21.5918C15.72 21.5906 15.9079 21.4542 15.974 21.2484C16.0741 20.9288 15.8387 20.6079 15.5042 20.6061H14.5184C14.3026 20.6073 14.1147 20.7437 14.0486 20.9495C13.9485 21.269 14.1839 21.59 14.5184 21.5918H15.5042ZM19.4471 21.5918C19.6629 21.5906 19.8508 21.4542 19.9169 21.2484C20.017 20.9288 19.7816 20.6079 19.4471 20.6061H18.4614C18.2455 20.6073 18.0576 20.7437 17.9916 20.9495C17.8915 21.269 18.1268 21.59 18.4614 21.5918H19.4471ZM23.39 21.5918C23.6059 21.5906 23.7937 21.4542 23.8598 21.2484C23.9599 20.9288 23.7245 20.6079 23.39 20.6061H22.4043C22.1884 20.6073 22.0006 20.7437 21.9345 20.9495C21.8344 21.269 22.0698 21.59 22.4043 21.5918H23.39ZM27.3329 21.5918C27.5488 21.5906 27.7366 21.4542 27.8027 21.2484C27.9028 20.9288 27.6674 20.6079 27.3329 20.6061H26.3472C26.1313 20.6073 25.9435 20.7437 25.8774 20.9495C25.7773 21.269 26.0127 21.59 26.3472 21.5918H27.3329ZM30.3744 21.5918C30.2436 21.5918 30.1183 21.5399 30.0258 21.4475C29.9334 21.355 29.8815 21.2296 29.8815 21.0989C29.8815 20.9682 29.9334 20.8428 30.0258 20.7504C30.1183 20.658 30.2436 20.606 30.3744 20.606H39.591L38.7736 19.7886C38.7274 19.743 38.6907 19.6886 38.6656 19.6287C38.6405 19.5688 38.6275 19.5045 38.6273 19.4396C38.6271 19.3746 38.6397 19.3103 38.6645 19.2502C38.6893 19.1902 38.7257 19.1356 38.7716 19.0897C38.8175 19.0438 38.8721 19.0074 38.9321 18.9826C38.9922 18.9579 39.0565 18.9452 39.1215 18.9454C39.1864 18.9456 39.2507 18.9586 39.3106 18.9837C39.3705 19.0088 39.4249 19.0455 39.4705 19.0917L41.1293 20.7504C41.2217 20.8429 41.2736 20.9682 41.2736 21.0989C41.2736 21.2296 41.2217 21.355 41.1293 21.4474L39.4705 23.1062C39.4249 23.1523 39.3705 23.189 39.3106 23.2142C39.2507 23.2393 39.1864 23.2523 39.1215 23.2525C39.0565 23.2526 38.9922 23.24 38.9321 23.2152C38.8721 23.1904 38.8175 23.154 38.7716 23.1081C38.7257 23.0622 38.6893 23.0076 38.6645 22.9476C38.6397 22.8876 38.6271 22.8232 38.6273 22.7583C38.6275 22.6933 38.6405 22.629 38.6656 22.5691C38.6907 22.5092 38.7274 22.4549 38.7736 22.4092L39.591 21.5918H30.3744ZM16.6575 16.7412C16.8733 16.74 17.0612 16.6035 17.1273 16.3978C17.2274 16.0782 16.992 15.7573 16.6575 15.7554H15.6718C15.4559 15.7567 15.2681 15.8931 15.202 16.0988C15.1019 16.4184 15.3372 16.7393 15.6718 16.7412H16.6575ZM20.6004 16.7412C20.8163 16.74 21.0041 16.6035 21.0702 16.3978C21.1703 16.0782 20.9349 15.7573 20.6004 15.7554H19.6147C19.3988 15.7567 19.211 15.8931 19.1449 16.0988C19.0448 16.4184 19.2802 16.7393 19.6147 16.7412H20.6004ZM24.5433 16.7412C24.7592 16.74 24.947 16.6035 25.0131 16.3978C25.1132 16.0782 24.8779 15.7573 24.5433 15.7554H23.5576C23.3418 15.7567 23.1539 15.8931 23.0878 16.0988C22.9877 16.4184 23.2231 16.7393 23.5576 16.7412H24.5433ZM28.4863 16.7412C28.7021 16.74 28.89 16.6035 28.956 16.3978C29.0561 16.0782 28.8208 15.7573 28.4863 15.7554H27.5005C27.2847 15.7567 27.0968 15.8931 27.0307 16.0988C26.9306 16.4184 27.166 16.7393 27.5005 16.7412H28.4863ZM32.4292 16.7412C32.645 16.74 32.8329 16.6035 32.899 16.3978C32.9991 16.0782 32.7637 15.7573 32.4292 15.7554H31.4434C31.2276 15.7567 31.0397 15.8931 30.9737 16.0988C30.8736 16.4184 31.1089 16.7393 31.4434 16.7412H32.4292ZM35.3526 16.7412C35.2218 16.7412 35.0965 16.6892 35.004 16.5968C34.9116 16.5044 34.8597 16.379 34.8597 16.2483C34.8597 16.1175 34.9116 15.9922 35.004 15.8997C35.0965 15.8073 35.2218 15.7554 35.3526 15.7554H44.5691L43.7518 14.938C43.7056 14.8923 43.6689 14.838 43.6438 14.7781C43.6187 14.7182 43.6056 14.6539 43.6055 14.5889C43.6053 14.524 43.6179 14.4596 43.6427 14.3996C43.6675 14.3396 43.7039 14.285 43.7498 14.2391C43.7957 14.1931 43.8503 14.1567 43.9103 14.132C43.9704 14.1072 44.0347 14.0945 44.0997 14.0947C44.1646 14.0949 44.2289 14.1079 44.2888 14.133C44.3487 14.1581 44.4031 14.1948 44.4487 14.241L46.1075 15.8998C46.1999 15.9922 46.2518 16.1176 46.2518 16.2483C46.2518 16.379 46.1999 16.5043 46.1075 16.5968L44.4487 18.2555C44.4031 18.3017 44.3487 18.3384 44.2888 18.3635C44.2289 18.3886 44.1646 18.4016 44.0997 18.4018C44.0347 18.402 43.9704 18.3893 43.9103 18.3646C43.8503 18.3398 43.7957 18.3034 43.7498 18.2575C43.7039 18.2115 43.6675 18.157 43.6427 18.0969C43.6179 18.0369 43.6053 17.9726 43.6055 17.9076C43.6056 17.8427 43.6187 17.7784 43.6438 17.7185C43.6689 17.6586 43.7056 17.6042 43.7518 17.5586L44.5691 16.7412H35.3526ZM19.3078 41.8833L16.2131 40.0966C15.515 41.4398 15.0927 42.9484 15.0206 44.5466H18.594C18.6562 43.6208 18.8987 42.7161 19.3077 41.8832L19.3078 41.8833ZM21.7526 39.0856C20.9828 39.6029 20.3201 40.264 19.8011 41.0326L16.7062 39.2457C17.5458 37.9388 18.6577 36.8286 19.9659 35.9911L21.7526 39.0856ZM25.265 37.8872V34.3145C23.666 34.385 22.159 34.805 20.8176 35.4994L22.6045 38.5944C23.437 38.188 24.3406 37.9478 25.265 37.8872ZM26.1829 44.6144C25.8055 44.2369 25.1567 44.5052 25.1567 45.0395C25.1567 45.5737 25.8054 45.842 26.1829 45.4645C26.2956 45.3518 26.3589 45.1989 26.3589 45.0394C26.3589 44.88 26.2956 44.7272 26.1829 44.6144ZM27.5756 40.9096C27.6404 40.7967 27.7474 40.7142 27.8731 40.6803C27.9987 40.6464 28.1327 40.6637 28.2456 40.7286C28.3584 40.7934 28.4409 40.9005 28.4748 41.0261C28.5088 41.1518 28.4914 41.2857 28.4266 41.3986L26.9374 43.978C27.8537 44.9955 27.1288 46.6264 25.7579 46.6264C24.3489 46.6264 23.6385 44.9148 24.6358 43.9175C24.8227 43.7304 25.0534 43.5931 25.307 43.5179C25.5605 43.4427 25.8288 43.4321 26.0875 43.487L27.5756 40.9096V40.9096ZM28.9064 38.6044L30.6822 35.5287C29.3439 34.8217 27.8418 34.3915 26.2507 34.3158V37.889C27.174 37.9527 28.0761 38.1957 28.9064 38.6044ZM31.6971 41.0437C31.1809 40.2762 30.5215 39.6153 29.7552 39.0972L31.5282 36.0264C32.8206 36.8682 33.9216 37.9793 34.7558 39.2778L31.697 41.0437H31.6971ZM35.2488 40.1265L32.1879 41.8937C32.5939 42.7236 32.8346 43.6247 32.8965 44.5466H36.4643C36.3769 42.9626 35.9472 41.4639 35.2487 40.1265H35.2488ZM35.7662 39.0417C35.8184 39.0814 35.8621 39.1311 35.8947 39.188C35.9277 39.2455 35.9478 39.3068 35.9559 39.3687C36.89 41.0383 37.4341 42.9548 37.4618 44.9878C37.4802 45.302 37.2577 45.5324 36.9716 45.5324H32.4206C32.2898 45.5324 32.1645 45.4804 32.072 45.388C31.9796 45.2956 31.9277 45.1702 31.9277 45.0395C31.9277 41.6249 29.1598 38.857 25.7453 38.857C22.3307 38.857 19.5629 41.6249 19.5629 45.0395C19.5629 45.1702 19.511 45.2956 19.4185 45.388C19.3261 45.4804 19.2007 45.5324 19.07 45.5324H14.5184V45.5305C14.3882 45.5305 14.2634 45.4787 14.1713 45.3867C14.0792 45.2946 14.0275 45.1697 14.0275 45.0395C14.0269 41.8275 15.3212 38.912 17.4204 36.7925C19.5063 34.6864 22.3884 33.3666 25.5855 33.3231C25.6025 33.3213 25.6197 33.3204 25.6371 33.3204V33.3223C27.7662 33.3025 29.7677 33.8635 31.4974 34.8555C31.6586 34.9232 31.5733 34.8726 31.7131 34.9823C32.5273 35.4731 33.2795 36.06 33.9536 36.7305C34.6506 37.4234 35.2594 38.1997 35.7663 39.0418L35.7662 39.0417Z" fill="url(#paint0_linear_80_10362)"/>
<circle cx="30" cy="30" r="29.4" transform="matrix(-1 0 0 1 60.5 0)" stroke="url(#paint1_linear_80_10362)" stroke-width="1.2"/>
<defs>
<linearGradient id="paint0_linear_80_10362" x1="30.1386" y1="14.0947" x2="30.1386" y2="46.6264" gradientUnits="userSpaceOnUse">
<stop stop-color="#00A3FF"/>
<stop offset="1" stop-color="#39FF14"/>
</linearGradient>
<linearGradient id="paint1_linear_80_10362" x1="30" y1="0" x2="30" y2="60" gradientUnits="userSpaceOnUse">
<stop stop-color="#00A3FF"/>
<stop offset="1" stop-color="#39FF14"/>
</linearGradient>
</defs>
</svg>
