<svg width="42" height="42" viewBox="0 0 42 42" fill="none" xmlns="http://www.w3.org/2000/svg">
<circle cx="21" cy="21" r="20.5625" stroke="url(#paint0_linear_108_70)" stroke-width="0.875"/>
<g clip-path="url(#clip0_108_70)">
<path d="M25.8154 10.5H16.1845C13.05 10.5 10.5 13.05 10.5 16.1845V25.8156C10.5 28.9499 13.05 31.5 16.1845 31.5H25.8156C28.9499 31.5 31.5 28.9499 31.5 25.8156V16.1845C31.5 13.05 28.9499 10.5 25.8154 10.5ZM30.2688 25.8156C30.2688 28.2711 28.2711 30.2688 25.8154 30.2688H16.1845C13.7289 30.2688 11.7311 28.2711 11.7311 25.8156V16.1845C11.7311 13.7289 13.7289 11.7311 16.1845 11.7311H25.8156C28.2711 11.7311 30.2688 13.7289 30.2688 16.1845V25.8156Z" fill="url(#paint1_linear_108_70)"/>
<path d="M20.9998 15.2581C17.8336 15.2581 15.2578 17.8338 15.2578 21.0001C15.2578 24.1663 17.8336 26.7421 20.9998 26.7421C24.1661 26.7421 26.7419 24.1663 26.7419 21.0001C26.7419 17.8338 24.1661 15.2581 20.9998 15.2581ZM20.9998 25.511C18.5126 25.511 16.4889 23.4875 16.4889 21.0001C16.4889 18.5129 18.5126 16.4892 20.9998 16.4892C23.4872 16.4892 25.5107 18.5129 25.5107 21.0001C25.5107 23.4875 23.4872 25.511 20.9998 25.511ZM26.8792 13.2188C25.9435 13.2188 25.1825 13.98 25.1825 14.9155C25.1825 15.8512 25.9435 16.6124 26.8792 16.6124C27.8149 16.6124 28.576 15.8512 28.576 14.9155C28.576 13.9799 27.8148 13.2188 26.8792 13.2188ZM26.8792 15.3811C26.6225 15.3811 26.4136 15.1722 26.4136 14.9155C26.4136 14.6587 26.6225 14.4499 26.8792 14.4499C27.136 14.4499 27.3449 14.6587 27.3449 14.9155C27.3449 15.1722 27.136 15.3811 26.8792 15.3811Z" fill="url(#paint2_linear_108_70)"/>
</g>
<defs>
<linearGradient id="paint0_linear_108_70" x1="6.9" y1="8.4" x2="35.4" y2="30.6" gradientUnits="userSpaceOnUse">
<stop stop-color="#39FF14"/>
<stop offset="1" stop-color="#00A3FF"/>
</linearGradient>
<linearGradient id="paint1_linear_108_70" x1="21" y1="10.5" x2="21" y2="31.5" gradientUnits="userSpaceOnUse">
<stop stop-color="#39FF14"/>
<stop offset="1" stop-color="#00A3FF"/>
</linearGradient>
<linearGradient id="paint2_linear_108_70" x1="21.9169" y1="13.2188" x2="21.9169" y2="26.7421" gradientUnits="userSpaceOnUse">
<stop stop-color="#39FF14"/>
<stop offset="1" stop-color="#00A3FF"/>
</linearGradient>
<clipPath id="clip0_108_70">
<rect width="21" height="21" fill="white" transform="translate(10.5 10.5)"/>
</clipPath>
</defs>
</svg>
