<svg width="62" height="62" viewBox="0 0 62 62" fill="none" xmlns="http://www.w3.org/2000/svg">
<path d="M30.6265 35.1186C29.8856 35.1186 29.1614 34.8988 28.5454 34.4872C27.9294 34.0756 27.4492 33.4905 27.1658 32.806C26.8823 32.1215 26.8082 31.3683 26.9528 30.6417C27.0974 29.9151 27.4542 29.2476 27.9781 28.7238C28.5021 28.2 29.1696 27.8433 29.8962 27.6989C30.6229 27.5544 31.3761 27.6287 32.0605 27.9124C32.7449 28.196 33.3299 28.6763 33.7414 29.2924C34.1529 29.9085 34.3724 30.6327 34.3723 31.3736C34.3709 32.3666 33.9758 33.3185 33.2736 34.0205C32.5714 34.7226 31.6194 35.1174 30.6265 35.1186ZM30.6265 28.6074C30.0796 28.6074 29.545 28.7696 29.0902 29.0734C28.6355 29.3772 28.281 29.8091 28.0717 30.3143C27.8624 30.8196 27.8076 31.3756 27.9142 31.912C28.0208 32.4484 28.2841 32.9411 28.6708 33.3279C29.0574 33.7147 29.5501 33.9781 30.0865 34.0849C30.6228 34.1917 31.1788 34.137 31.6842 33.9279C32.1895 33.7187 32.6214 33.3644 32.9254 32.9097C33.2293 32.4551 33.3917 31.9205 33.3918 31.3736C33.3912 30.6403 33.0996 29.9373 32.5812 29.4187C32.0628 28.9001 31.3598 28.6083 30.6265 28.6074ZM30.6265 19.2934C30.0481 19.2934 29.4828 19.1219 29.0019 18.8006C28.521 18.4793 28.1462 18.0226 27.9249 17.4883C27.7036 16.954 27.6457 16.366 27.7585 15.7988C27.8713 15.2315 28.1498 14.7105 28.5588 14.3015C28.9677 13.8926 29.4888 13.6141 30.056 13.5013C30.6232 13.3884 31.2112 13.4463 31.7455 13.6677C32.2798 13.889 32.7365 14.2638 33.0579 14.7447C33.3792 15.2255 33.5507 15.7909 33.5507 16.3692C33.5498 17.1445 33.2414 17.8878 32.6932 18.436C32.145 18.9842 31.4018 19.2925 30.6265 19.2934ZM30.6265 14.4263C30.242 14.4263 29.8662 14.5403 29.5466 14.7539C29.2269 14.9675 28.9778 15.2711 28.8307 15.6262C28.6836 15.9814 28.6451 16.3722 28.7201 16.7493C28.7951 17.1263 28.9802 17.4727 29.252 17.7445C29.5239 18.0164 29.8702 18.2015 30.2473 18.2765C30.6243 18.3515 31.0152 18.313 31.3703 18.1659C31.7255 18.0188 32.0291 17.7696 32.2427 17.45C32.4562 17.1303 32.5702 16.7545 32.5702 16.3701C32.5696 15.8548 32.3647 15.3607 32.0003 14.9963C31.6359 14.6319 31.1418 14.4269 30.6265 14.4263ZM30.6265 43.4521C31.2048 43.4521 31.7702 43.6236 32.2511 43.945C32.732 44.2663 33.1068 44.723 33.3281 45.2573C33.5494 45.7916 33.6073 46.3796 33.4945 46.9468C33.3816 47.514 33.1031 48.0351 32.6942 48.444C32.2852 48.853 31.7642 49.1315 31.197 49.2443C30.6297 49.3571 30.0418 49.2992 29.5075 49.0779C28.9731 48.8566 28.5164 48.4818 28.1951 48.0009C27.8738 47.52 27.7023 46.9547 27.7023 46.3763C27.7032 45.601 28.0116 44.8578 28.5598 44.3096C29.108 43.7614 29.8512 43.453 30.6265 43.4521ZM30.6265 48.3209C31.0109 48.3209 31.3867 48.2069 31.7064 47.9933C32.026 47.7797 32.2752 47.4762 32.4223 47.121C32.5694 46.7658 32.6079 46.375 32.5329 45.9979C32.4579 45.6209 32.2728 45.2746 32.0009 45.0027C31.7291 44.7309 31.3827 44.5457 31.0057 44.4707C30.6286 44.3957 30.2378 44.4342 29.8826 44.5814C29.5275 44.7285 29.2239 44.9776 29.0103 45.2973C28.7967 45.6169 28.6827 45.9927 28.6827 46.3772C28.6833 46.8925 28.8883 47.3865 29.2527 47.7509C29.6171 48.1153 30.1112 48.3203 30.6265 48.3209ZM20.0172 23.6866C19.3413 23.686 18.6866 23.4511 18.1644 23.022C17.6423 22.5928 17.2851 21.9959 17.1537 21.3329C17.0223 20.6699 17.1249 19.9819 17.4438 19.386C17.7628 18.7902 18.2785 18.3233 18.9031 18.065C19.5276 17.8067 20.2224 17.7729 20.8691 17.9694C21.5158 18.1659 22.0743 18.5806 22.4496 19.1427C22.8248 19.7048 22.9936 20.3796 22.9271 21.0522C22.8607 21.7248 22.5631 22.3536 22.0851 22.8313C21.8137 23.1031 21.4913 23.3185 21.1365 23.4653C20.7816 23.612 20.4012 23.6872 20.0172 23.6866ZM21.3918 19.3892C21.0738 19.0711 20.6553 18.8732 20.2077 18.829C19.7601 18.7849 19.311 18.8973 18.937 19.1472C18.563 19.397 18.2872 19.7688 18.1566 20.1993C18.026 20.6297 18.0487 21.092 18.2208 21.5076C18.393 21.9231 18.7038 22.2661 19.1005 22.4782C19.4972 22.6902 19.9551 22.7581 20.3963 22.6703C20.8374 22.5826 21.2344 22.3446 21.5198 21.9969C21.8051 21.6492 21.961 21.2133 21.961 20.7635C21.9613 20.5082 21.9112 20.2554 21.8135 20.0196C21.7158 19.7837 21.5725 19.5695 21.3918 19.3892ZM41.2358 39.0579C41.9121 39.058 42.5675 39.2926 43.0903 39.7218C43.6131 40.151 43.9709 40.7481 44.1028 41.4115C44.2346 42.0749 44.1324 42.7635 43.8135 43.36C43.4946 43.9564 42.9788 44.4239 42.3538 44.6827C41.7289 44.9415 41.0336 44.9756 40.3864 44.7792C39.7392 44.5828 39.18 44.1681 38.8043 43.6057C38.4285 43.0433 38.2594 42.368 38.3257 41.6949C38.392 41.0218 38.6897 40.3925 39.1679 39.9142C39.4388 39.6418 39.7611 39.4259 40.1161 39.2789C40.471 39.1319 40.8516 39.0568 41.2358 39.0579ZM39.8612 43.3563C40.1792 43.6744 40.5977 43.8724 41.0453 43.9165C41.4929 43.9607 41.942 43.8482 42.316 43.5984C42.69 43.3485 42.9658 42.9767 43.0963 42.5463C43.2269 42.1159 43.2042 41.6535 43.0321 41.238C42.86 40.8224 42.5491 40.4794 42.1525 40.2674C41.7558 40.0554 41.2979 39.9875 40.8567 40.0752C40.4156 40.163 40.0185 40.401 39.7332 40.7487C39.4479 41.0964 39.292 41.5323 39.292 41.9821C39.2923 42.4975 39.497 42.9917 39.8612 43.3563ZM15.623 28.4486C16.2013 28.4486 16.7666 28.6201 17.2475 28.9414C17.7283 29.2626 18.1031 29.7193 18.3245 30.2536C18.5458 30.7878 18.6038 31.3757 18.491 31.943C18.3782 32.5102 18.0998 33.0312 17.691 33.4402C17.2821 33.8492 16.7611 34.1277 16.1939 34.2407C15.6268 34.3536 15.0388 34.2958 14.5045 34.0746C13.9702 33.8534 13.5134 33.4787 13.192 32.998C12.8706 32.5172 12.6989 31.9519 12.6988 31.3736C12.6995 30.5982 13.0078 29.8548 13.556 29.3064C14.1042 28.7581 14.8476 28.4496 15.623 28.4486ZM15.623 33.3165C16.0074 33.3165 16.3833 33.2025 16.7029 32.9889C17.0226 32.7753 17.2717 32.4717 17.4188 32.1164C17.5659 31.7612 17.6044 31.3703 17.5293 30.9933C17.4542 30.6162 17.269 30.2698 16.9971 29.998C16.7252 29.7262 16.3788 29.5412 16.0016 29.4663C15.6245 29.3914 15.2337 29.43 14.8785 29.5772C14.5234 29.7245 14.2199 29.9737 14.0064 30.2935C13.7929 30.6133 13.679 30.9891 13.6792 31.3736C13.68 31.8888 13.8851 32.3827 14.2495 32.7469C14.6138 33.1111 15.1078 33.3159 15.623 33.3165ZM42.7058 31.3736C42.7057 30.7952 42.877 30.2298 43.1982 29.7488C43.5195 29.2678 43.9761 28.8929 44.5104 28.6714C45.0447 28.45 45.6327 28.392 46.2 28.5047C46.7673 28.6174 47.2884 28.8959 47.6974 29.3048C48.1065 29.7137 48.3851 30.2347 48.4979 30.802C48.6108 31.3693 48.553 31.9573 48.3317 32.4916C48.1104 33.026 47.7356 33.4827 47.2547 33.8041C46.7738 34.1254 46.2084 34.297 45.63 34.297C44.8549 34.2961 44.1118 33.9878 43.5636 33.4398C43.0154 32.8918 42.707 32.1487 42.7058 31.3736ZM45.63 33.3165C46.0145 33.3165 46.3903 33.2025 46.71 32.9889C47.0297 32.7753 47.2788 32.4717 47.4259 32.1164C47.573 31.7612 47.6114 31.3703 47.5364 30.9933C47.4613 30.6162 47.2761 30.2698 47.0042 29.998C46.7322 29.7262 46.3858 29.5412 46.0087 29.4663C45.6316 29.3914 45.2408 29.43 44.8856 29.5772C44.5304 29.7245 44.2269 29.9737 44.0134 30.2935C43.8 30.6133 43.6861 30.9891 43.6863 31.3736C43.6871 31.8888 43.8922 32.3827 44.2565 32.7469C44.6209 33.1111 45.1148 33.3159 45.63 33.3165ZM22.0851 39.9142C22.494 40.3232 22.7725 40.8442 22.8853 41.4114C22.9982 41.9787 22.9403 42.5666 22.7189 43.101C22.4976 43.6353 22.1228 44.092 21.6419 44.4133C21.161 44.7346 20.5957 44.9061 20.0173 44.9061C19.439 44.9061 18.8736 44.7346 18.3928 44.4133C17.9119 44.092 17.5371 43.6353 17.3158 43.101C17.0944 42.5666 17.0365 41.9787 17.1493 41.4114C17.2622 40.8442 17.5407 40.3232 17.9496 39.9142C18.2198 39.6403 18.5417 39.4228 18.8967 39.2743C19.2517 39.1259 19.6326 39.0494 20.0173 39.0494C20.4021 39.0494 20.783 39.1259 21.138 39.2743C21.4929 39.4228 21.8149 39.6403 22.0851 39.9142ZM18.6429 43.3563C18.9609 43.6744 19.3794 43.8724 19.827 43.9165C20.2746 43.9607 20.7237 43.8482 21.0977 43.5984C21.4717 43.3485 21.7475 42.9767 21.8781 42.5463C22.0086 42.1159 21.986 41.6535 21.8138 41.238C21.6417 40.8224 21.3308 40.4794 20.9342 40.2674C20.5375 40.0554 20.0796 39.9875 19.6384 40.0752C19.1973 40.163 18.8002 40.401 18.5149 40.7487C18.2296 41.0964 18.0737 41.5323 18.0737 41.9821C18.074 42.4975 18.2787 42.9917 18.6429 43.3563ZM41.2358 23.688C40.5592 23.688 39.9035 23.4535 39.3804 23.0244C38.8573 22.5952 38.4992 21.9979 38.3672 21.3343C38.2351 20.6707 38.3372 19.9819 38.6561 19.3852C38.975 18.7884 39.4909 18.3207 40.116 18.0617C40.7411 17.8028 41.4366 17.7685 42.0841 17.9649C42.7316 18.1613 43.291 18.5761 43.6669 19.1386C44.0428 19.7012 44.2121 20.3767 44.1458 21.05C44.0795 21.7234 43.7818 22.3529 43.3033 22.8313C43.0325 23.1038 42.7103 23.3197 42.3554 23.4668C42.0005 23.6138 41.6199 23.689 41.2358 23.688ZM42.61 19.3892C42.3382 19.1173 41.9918 18.9321 41.6147 18.857C41.2375 18.7819 40.8466 18.8204 40.4914 18.9675C40.1361 19.1146 39.8324 19.3638 39.6188 19.6835C39.4052 20.0032 39.2911 20.3791 39.2911 20.7636C39.2911 21.1482 39.4052 21.524 39.6188 21.8438C39.8324 22.1635 40.1361 22.4126 40.4914 22.5598C40.8466 22.7069 41.2375 22.7453 41.6147 22.6703C41.9918 22.5952 42.3382 22.41 42.61 22.138C42.7913 21.958 42.9351 21.7438 43.0332 21.508C43.1314 21.2721 43.1819 21.0191 43.1819 20.7636C43.1819 20.5082 43.1314 20.2552 43.0332 20.0193C42.9351 19.7834 42.7913 19.5693 42.61 19.3892Z" fill="black"/>
<path d="M30.6265 35.1186C29.8856 35.1186 29.1614 34.8988 28.5454 34.4872C27.9294 34.0756 27.4492 33.4905 27.1658 32.806C26.8823 32.1215 26.8082 31.3683 26.9528 30.6417C27.0974 29.9151 27.4542 29.2476 27.9781 28.7238C28.5021 28.2 29.1696 27.8433 29.8962 27.6989C30.6229 27.5544 31.3761 27.6287 32.0605 27.9124C32.7449 28.196 33.3299 28.6763 33.7414 29.2924C34.1529 29.9085 34.3724 30.6327 34.3723 31.3736C34.3709 32.3666 33.9758 33.3185 33.2736 34.0205C32.5714 34.7226 31.6194 35.1174 30.6265 35.1186ZM30.6265 28.6074C30.0796 28.6074 29.545 28.7696 29.0902 29.0734C28.6355 29.3772 28.281 29.8091 28.0717 30.3143C27.8624 30.8196 27.8076 31.3756 27.9142 31.912C28.0208 32.4484 28.2841 32.9411 28.6708 33.3279C29.0574 33.7147 29.5501 33.9781 30.0865 34.0849C30.6228 34.1917 31.1788 34.137 31.6842 33.9279C32.1895 33.7187 32.6214 33.3644 32.9254 32.9097C33.2293 32.4551 33.3917 31.9205 33.3918 31.3736C33.3912 30.6403 33.0996 29.9373 32.5812 29.4187C32.0628 28.9001 31.3598 28.6083 30.6265 28.6074ZM30.6265 19.2934C30.0481 19.2934 29.4828 19.1219 29.0019 18.8006C28.521 18.4793 28.1462 18.0226 27.9249 17.4883C27.7036 16.954 27.6457 16.366 27.7585 15.7988C27.8713 15.2315 28.1498 14.7105 28.5588 14.3015C28.9677 13.8926 29.4888 13.6141 30.056 13.5013C30.6232 13.3884 31.2112 13.4463 31.7455 13.6677C32.2798 13.889 32.7365 14.2638 33.0579 14.7447C33.3792 15.2255 33.5507 15.7909 33.5507 16.3692C33.5498 17.1445 33.2414 17.8878 32.6932 18.436C32.145 18.9842 31.4018 19.2925 30.6265 19.2934ZM30.6265 14.4263C30.242 14.4263 29.8662 14.5403 29.5466 14.7539C29.2269 14.9675 28.9778 15.2711 28.8307 15.6262C28.6836 15.9814 28.6451 16.3722 28.7201 16.7493C28.7951 17.1263 28.9802 17.4727 29.252 17.7445C29.5239 18.0164 29.8702 18.2015 30.2473 18.2765C30.6243 18.3515 31.0152 18.313 31.3703 18.1659C31.7255 18.0188 32.0291 17.7696 32.2427 17.45C32.4562 17.1303 32.5702 16.7545 32.5702 16.3701C32.5696 15.8548 32.3647 15.3607 32.0003 14.9963C31.6359 14.6319 31.1418 14.4269 30.6265 14.4263ZM30.6265 43.4521C31.2048 43.4521 31.7702 43.6236 32.2511 43.945C32.732 44.2663 33.1068 44.723 33.3281 45.2573C33.5494 45.7916 33.6073 46.3796 33.4945 46.9468C33.3816 47.514 33.1031 48.0351 32.6942 48.444C32.2852 48.853 31.7642 49.1315 31.197 49.2443C30.6297 49.3571 30.0418 49.2992 29.5075 49.0779C28.9731 48.8566 28.5164 48.4818 28.1951 48.0009C27.8738 47.52 27.7023 46.9547 27.7023 46.3763C27.7032 45.601 28.0116 44.8578 28.5598 44.3096C29.108 43.7614 29.8512 43.453 30.6265 43.4521ZM30.6265 48.3209C31.0109 48.3209 31.3867 48.2069 31.7064 47.9933C32.026 47.7797 32.2752 47.4762 32.4223 47.121C32.5694 46.7658 32.6079 46.375 32.5329 45.9979C32.4579 45.6209 32.2728 45.2746 32.0009 45.0027C31.7291 44.7309 31.3827 44.5457 31.0057 44.4707C30.6286 44.3957 30.2378 44.4342 29.8826 44.5814C29.5275 44.7285 29.2239 44.9776 29.0103 45.2973C28.7967 45.6169 28.6827 45.9927 28.6827 46.3772C28.6833 46.8925 28.8883 47.3865 29.2527 47.7509C29.6171 48.1153 30.1112 48.3203 30.6265 48.3209ZM20.0172 23.6866C19.3413 23.686 18.6866 23.4511 18.1644 23.022C17.6423 22.5928 17.2851 21.9959 17.1537 21.3329C17.0223 20.6699 17.1249 19.9819 17.4438 19.386C17.7628 18.7902 18.2785 18.3233 18.9031 18.065C19.5276 17.8067 20.2224 17.7729 20.8691 17.9694C21.5158 18.1659 22.0743 18.5806 22.4496 19.1427C22.8248 19.7048 22.9936 20.3796 22.9271 21.0522C22.8607 21.7248 22.5631 22.3536 22.0851 22.8313C21.8137 23.1031 21.4913 23.3185 21.1365 23.4653C20.7816 23.612 20.4012 23.6872 20.0172 23.6866ZM21.3918 19.3892C21.0738 19.0711 20.6553 18.8732 20.2077 18.829C19.7601 18.7849 19.311 18.8973 18.937 19.1472C18.563 19.397 18.2872 19.7688 18.1566 20.1993C18.026 20.6297 18.0487 21.092 18.2208 21.5076C18.393 21.9231 18.7038 22.2661 19.1005 22.4782C19.4972 22.6902 19.9551 22.7581 20.3963 22.6703C20.8374 22.5826 21.2344 22.3446 21.5198 21.9969C21.8051 21.6492 21.961 21.2133 21.961 20.7635C21.9613 20.5082 21.9112 20.2554 21.8135 20.0196C21.7158 19.7837 21.5725 19.5695 21.3918 19.3892ZM41.2358 39.0579C41.9121 39.058 42.5675 39.2926 43.0903 39.7218C43.6131 40.151 43.9709 40.7481 44.1028 41.4115C44.2346 42.0749 44.1324 42.7635 43.8135 43.36C43.4946 43.9564 42.9788 44.4239 42.3538 44.6827C41.7289 44.9415 41.0336 44.9756 40.3864 44.7792C39.7392 44.5828 39.18 44.1681 38.8043 43.6057C38.4285 43.0433 38.2594 42.368 38.3257 41.6949C38.392 41.0218 38.6897 40.3925 39.1679 39.9142C39.4388 39.6418 39.7611 39.4259 40.1161 39.2789C40.471 39.1319 40.8516 39.0568 41.2358 39.0579ZM39.8612 43.3563C40.1792 43.6744 40.5977 43.8724 41.0453 43.9165C41.4929 43.9607 41.942 43.8482 42.316 43.5984C42.69 43.3485 42.9658 42.9767 43.0963 42.5463C43.2269 42.1159 43.2042 41.6535 43.0321 41.238C42.86 40.8224 42.5491 40.4794 42.1525 40.2674C41.7558 40.0554 41.2979 39.9875 40.8567 40.0752C40.4156 40.163 40.0185 40.401 39.7332 40.7487C39.4479 41.0964 39.292 41.5323 39.292 41.9821C39.2923 42.4975 39.497 42.9917 39.8612 43.3563ZM15.623 28.4486C16.2013 28.4486 16.7666 28.6201 17.2475 28.9414C17.7283 29.2626 18.1031 29.7193 18.3245 30.2536C18.5458 30.7878 18.6038 31.3757 18.491 31.943C18.3782 32.5102 18.0998 33.0312 17.691 33.4402C17.2821 33.8492 16.7611 34.1277 16.1939 34.2407C15.6268 34.3536 15.0388 34.2958 14.5045 34.0746C13.9702 33.8534 13.5134 33.4787 13.192 32.998C12.8706 32.5172 12.6989 31.9519 12.6988 31.3736C12.6995 30.5982 13.0078 29.8548 13.556 29.3064C14.1042 28.7581 14.8476 28.4496 15.623 28.4486ZM15.623 33.3165C16.0074 33.3165 16.3833 33.2025 16.7029 32.9889C17.0226 32.7753 17.2717 32.4717 17.4188 32.1164C17.5659 31.7612 17.6044 31.3703 17.5293 30.9933C17.4542 30.6162 17.269 30.2698 16.9971 29.998C16.7252 29.7262 16.3788 29.5412 16.0016 29.4663C15.6245 29.3914 15.2337 29.43 14.8785 29.5772C14.5234 29.7245 14.2199 29.9737 14.0064 30.2935C13.7929 30.6133 13.679 30.9891 13.6792 31.3736C13.68 31.8888 13.8851 32.3827 14.2495 32.7469C14.6138 33.1111 15.1078 33.3159 15.623 33.3165ZM42.7058 31.3736C42.7057 30.7952 42.877 30.2298 43.1982 29.7488C43.5195 29.2678 43.9761 28.8929 44.5104 28.6714C45.0447 28.45 45.6327 28.392 46.2 28.5047C46.7673 28.6174 47.2884 28.8959 47.6974 29.3048C48.1065 29.7137 48.3851 30.2347 48.4979 30.802C48.6108 31.3693 48.553 31.9573 48.3317 32.4916C48.1104 33.026 47.7356 33.4827 47.2547 33.8041C46.7738 34.1254 46.2084 34.297 45.63 34.297C44.8549 34.2961 44.1118 33.9878 43.5636 33.4398C43.0154 32.8918 42.707 32.1487 42.7058 31.3736ZM45.63 33.3165C46.0145 33.3165 46.3903 33.2025 46.71 32.9889C47.0297 32.7753 47.2788 32.4717 47.4259 32.1164C47.573 31.7612 47.6114 31.3703 47.5364 30.9933C47.4613 30.6162 47.2761 30.2698 47.0042 29.998C46.7322 29.7262 46.3858 29.5412 46.0087 29.4663C45.6316 29.3914 45.2408 29.43 44.8856 29.5772C44.5304 29.7245 44.2269 29.9737 44.0134 30.2935C43.8 30.6133 43.6861 30.9891 43.6863 31.3736C43.6871 31.8888 43.8922 32.3827 44.2565 32.7469C44.6209 33.1111 45.1148 33.3159 45.63 33.3165ZM22.0851 39.9142C22.494 40.3232 22.7725 40.8442 22.8853 41.4114C22.9982 41.9787 22.9403 42.5666 22.7189 43.101C22.4976 43.6353 22.1228 44.092 21.6419 44.4133C21.161 44.7346 20.5957 44.9061 20.0173 44.9061C19.439 44.9061 18.8736 44.7346 18.3928 44.4133C17.9119 44.092 17.5371 43.6353 17.3158 43.101C17.0944 42.5666 17.0365 41.9787 17.1493 41.4114C17.2622 40.8442 17.5407 40.3232 17.9496 39.9142C18.2198 39.6403 18.5417 39.4228 18.8967 39.2743C19.2517 39.1259 19.6326 39.0494 20.0173 39.0494C20.4021 39.0494 20.783 39.1259 21.138 39.2743C21.4929 39.4228 21.8149 39.6403 22.0851 39.9142ZM18.6429 43.3563C18.9609 43.6744 19.3794 43.8724 19.827 43.9165C20.2746 43.9607 20.7237 43.8482 21.0977 43.5984C21.4717 43.3485 21.7475 42.9767 21.8781 42.5463C22.0086 42.1159 21.986 41.6535 21.8138 41.238C21.6417 40.8224 21.3308 40.4794 20.9342 40.2674C20.5375 40.0554 20.0796 39.9875 19.6384 40.0752C19.1973 40.163 18.8002 40.401 18.5149 40.7487C18.2296 41.0964 18.0737 41.5323 18.0737 41.9821C18.074 42.4975 18.2787 42.9917 18.6429 43.3563ZM41.2358 23.688C40.5592 23.688 39.9035 23.4535 39.3804 23.0244C38.8573 22.5952 38.4992 21.9979 38.3672 21.3343C38.2351 20.6707 38.3372 19.9819 38.6561 19.3852C38.975 18.7884 39.4909 18.3207 40.116 18.0617C40.7411 17.8028 41.4366 17.7685 42.0841 17.9649C42.7316 18.1613 43.291 18.5761 43.6669 19.1386C44.0428 19.7012 44.2121 20.3767 44.1458 21.05C44.0795 21.7234 43.7818 22.3529 43.3033 22.8313C43.0325 23.1038 42.7103 23.3197 42.3554 23.4668C42.0005 23.6138 41.6199 23.689 41.2358 23.688ZM42.61 19.3892C42.3382 19.1173 41.9918 18.9321 41.6147 18.857C41.2375 18.7819 40.8466 18.8204 40.4914 18.9675C40.1361 19.1146 39.8324 19.3638 39.6188 19.6835C39.4052 20.0032 39.2911 20.3791 39.2911 20.7636C39.2911 21.1482 39.4052 21.524 39.6188 21.8438C39.8324 22.1635 40.1361 22.4126 40.4914 22.5598C40.8466 22.7069 41.2375 22.7453 41.6147 22.6703C41.9918 22.5952 42.3382 22.41 42.61 22.138C42.7913 21.958 42.9351 21.7438 43.0332 21.508C43.1314 21.2721 43.1819 21.0191 43.1819 20.7636C43.1819 20.5082 43.1314 20.2552 43.0332 20.0193C42.9351 19.7834 42.7913 19.5693 42.61 19.3892Z" fill="url(#paint0_linear_80_10370)"/>
<path d="M22.8022 33.5181C22.7568 33.5637 22.7027 33.5998 22.6433 33.6245C22.5838 33.6491 22.5201 33.6618 22.4557 33.6618C22.3914 33.6618 22.3276 33.6491 22.2682 33.6245C22.2087 33.5998 22.1547 33.5637 22.1092 33.5181L20.3103 31.7192C20.2647 31.6737 20.2286 31.6197 20.2039 31.5602C20.1793 31.5008 20.1666 31.4371 20.1666 31.3727C20.1666 31.3083 20.1793 31.2446 20.2039 31.1851C20.2286 31.1257 20.2647 31.0717 20.3103 31.0262L22.1092 29.2272C22.2017 29.138 22.3255 29.0886 22.4541 29.0897C22.5826 29.0909 22.7055 29.1424 22.7964 29.2334C22.8873 29.3243 22.9388 29.4472 22.9399 29.5758C22.941 29.7043 22.8916 29.8281 22.8022 29.9205L21.8358 30.887H24.665C24.7656 29.6407 25.2556 28.4577 26.0656 27.5053L24.0698 25.5095V26.8636C24.0698 26.9936 24.0181 27.1183 23.9262 27.2102C23.8343 27.3022 23.7096 27.3538 23.5796 27.3538C23.4496 27.3538 23.3249 27.3022 23.2329 27.2102C23.141 27.1183 23.0894 26.9936 23.0894 26.8636V24.3198C23.0894 24.1898 23.141 24.0651 23.2329 23.9732C23.3249 23.8812 23.4496 23.8296 23.5796 23.8296H26.1222C26.2522 23.8296 26.3769 23.8812 26.4689 23.9732C26.5608 24.0651 26.6124 24.1898 26.6124 24.3198C26.6124 24.4498 26.5608 24.5745 26.4689 24.6664C26.3769 24.7584 26.2522 24.81 26.1222 24.81H24.7552L26.7575 26.8123C27.7089 26.0023 28.891 25.5123 30.1364 25.4117V22.5864L29.1786 23.5442C29.0867 23.6361 28.962 23.6877 28.832 23.6877C28.702 23.6877 28.5773 23.6361 28.4853 23.5442C28.3934 23.4522 28.3417 23.3275 28.3417 23.1975C28.3417 23.0675 28.3934 22.9428 28.4853 22.8509L30.2843 21.0519C30.3762 20.9601 30.5009 20.9084 30.6309 20.9084C30.7609 20.9084 30.8856 20.9601 30.9776 21.0519L32.7765 22.8509C32.8684 22.9428 32.9201 23.0675 32.9201 23.1975C32.9201 23.3275 32.8684 23.4522 32.7765 23.5442C32.6846 23.6361 32.5599 23.6877 32.4298 23.6877C32.2998 23.6877 32.1751 23.6361 32.0832 23.5442L31.1168 22.5777V25.4109C32.3643 25.5121 33.5482 26.0038 34.5003 26.8162L36.5066 24.81H35.1396C35.0096 24.81 34.8849 24.7584 34.793 24.6664C34.701 24.5745 34.6494 24.4498 34.6494 24.3198C34.6494 24.1898 34.701 24.0651 34.793 23.9732C34.8849 23.8812 35.0096 23.8296 35.1396 23.8296H37.6836C37.8136 23.8297 37.9383 23.8813 38.0302 23.9733C38.1221 24.0652 38.1738 24.1898 38.1739 24.3198V26.8636C38.1739 26.9936 38.1222 27.1183 38.0303 27.2102C37.9383 27.3022 37.8137 27.3538 37.6836 27.3538C37.5536 27.3538 37.4289 27.3022 37.337 27.2102C37.2451 27.1183 37.1934 26.9936 37.1934 26.8636V25.5095L35.1925 27.5101C36 28.4617 36.4882 29.6429 36.5881 30.887H39.426L38.4596 29.9205C38.3676 29.8286 38.316 29.7039 38.316 29.5739C38.316 29.4439 38.3676 29.3192 38.4596 29.2272C38.5515 29.1353 38.6762 29.0837 38.8062 29.0837C38.9362 29.0837 39.0609 29.1353 39.1529 29.2272L40.9515 31.0262C40.9971 31.0717 41.0332 31.1257 41.0579 31.1851C41.0825 31.2446 41.0952 31.3083 41.0952 31.3727C41.0952 31.4371 41.0825 31.5008 41.0579 31.5602C41.0332 31.6197 40.9971 31.6737 40.9515 31.7192L39.1529 33.5181C39.1077 33.565 39.0536 33.6023 38.9938 33.628C38.934 33.6537 38.8696 33.6673 38.8046 33.6678C38.7395 33.6684 38.6749 33.656 38.6147 33.6314C38.5544 33.6068 38.4997 33.5704 38.4536 33.5243C38.4076 33.4783 38.3712 33.4236 38.3465 33.3634C38.3219 33.3031 38.3095 33.2386 38.31 33.1735C38.3106 33.1084 38.3241 33.0441 38.3497 32.9843C38.3754 32.9244 38.4128 32.8703 38.4596 32.8251L39.4173 31.8674H36.5881C36.4863 33.1111 35.9964 34.2915 35.1875 35.2417L37.1937 37.2482V35.8815C37.1937 35.7515 37.2454 35.6268 37.3373 35.5349C37.4292 35.4429 37.5539 35.3913 37.6839 35.3913C37.8139 35.3913 37.9386 35.4429 38.0306 35.5349C38.1225 35.6268 38.1741 35.7515 38.1741 35.8815V38.4256C38.1741 38.5555 38.1224 38.6802 38.0305 38.7721C37.9386 38.864 37.8139 38.9157 37.6839 38.9158H35.1399C35.0099 38.9158 34.8852 38.8641 34.7932 38.7722C34.7013 38.6803 34.6497 38.5556 34.6497 38.4256C34.6497 38.2955 34.7013 38.1709 34.7932 38.0789C34.8852 37.987 35.0099 37.9354 35.1399 37.9354H36.4942L34.4939 35.935C33.5429 36.7444 32.3615 37.2343 31.1168 37.3356V40.1676L32.0832 39.2012C32.1751 39.1093 32.2998 39.0576 32.4298 39.0576C32.5599 39.0576 32.6846 39.1093 32.7765 39.2012C32.8684 39.2932 32.9201 39.4178 32.9201 39.5479C32.9201 39.6779 32.8684 39.8026 32.7765 39.8945L30.9776 41.6934C30.9321 41.739 30.878 41.7751 30.8185 41.7998C30.7591 41.8245 30.6953 41.8372 30.6309 41.8372C30.5665 41.8372 30.5028 41.8245 30.4433 41.7998C30.3838 41.7751 30.3298 41.739 30.2843 41.6934L28.4853 39.8945C28.3934 39.8026 28.3417 39.6779 28.3417 39.5479C28.3417 39.4178 28.3934 39.2932 28.4853 39.2012C28.5773 39.1093 28.702 39.0576 28.832 39.0576C28.962 39.0576 29.0867 39.1093 29.1786 39.2012L30.1364 40.1589V37.3345C28.8939 37.2341 27.7143 36.7462 26.764 35.9395L24.7676 37.9359H26.1222C26.2522 37.9359 26.3769 37.9876 26.4689 38.0795C26.5608 38.1714 26.6124 38.2961 26.6124 38.4261C26.6124 38.5561 26.5608 38.6808 26.4689 38.7728C26.3769 38.8647 26.2522 38.9163 26.1222 38.9163H23.5782C23.4482 38.9163 23.3235 38.8647 23.2315 38.7728C23.1396 38.6808 23.088 38.5561 23.088 38.4261V35.8815C23.088 35.7515 23.1396 35.6268 23.2315 35.5349C23.3235 35.4429 23.4482 35.3913 23.5782 35.3913C23.7082 35.3913 23.8329 35.4429 23.9248 35.5349C24.0167 35.6268 24.0684 35.7515 24.0684 35.8815V37.2482L26.0701 35.2462C25.2587 34.2953 24.767 33.1132 24.6648 31.8674H21.8445L22.8022 32.8251C22.8478 32.8706 22.8839 32.9246 22.9086 32.9841C22.9332 33.0435 22.9459 33.1073 22.9459 33.1716C22.9459 33.236 22.9332 33.2997 22.9086 33.3592C22.8839 33.4186 22.8478 33.4727 22.8022 33.5181ZM30.6266 26.3664C29.9698 26.366 29.3195 26.4953 28.7128 26.7467C28.1062 26.9982 27.5551 27.3669 27.0912 27.8317L27.0878 27.8359L27.0844 27.8387C26.1534 28.7689 25.6276 30.0294 25.6217 31.3455C25.6217 31.3559 25.6247 31.3657 25.6247 31.376C25.6247 31.3864 25.6225 31.3943 25.6219 31.4041C25.6291 32.7213 26.1567 33.9822 27.0898 34.912L27.094 34.9151V34.9168C27.6767 35.4976 28.3937 35.9258 29.1814 36.1634C29.9691 36.4011 30.8033 36.4409 31.61 36.2793C32.4168 36.1177 33.1713 35.7598 33.8067 35.2371C34.4421 34.7145 34.9389 34.0432 35.2531 33.2828C35.5673 32.5223 35.6891 31.6962 35.6079 30.8774C35.5267 30.0587 35.2449 29.2726 34.7874 28.5887C34.3299 27.9048 33.7109 27.3443 32.9852 26.9566C32.2595 26.569 31.4493 26.3663 30.6266 26.3664Z" fill="black"/>
<path d="M22.8022 33.5181C22.7568 33.5637 22.7027 33.5998 22.6433 33.6245C22.5838 33.6491 22.5201 33.6618 22.4557 33.6618C22.3914 33.6618 22.3276 33.6491 22.2682 33.6245C22.2087 33.5998 22.1547 33.5637 22.1092 33.5181L20.3103 31.7192C20.2647 31.6737 20.2286 31.6197 20.2039 31.5602C20.1793 31.5008 20.1666 31.4371 20.1666 31.3727C20.1666 31.3083 20.1793 31.2446 20.2039 31.1851C20.2286 31.1257 20.2647 31.0717 20.3103 31.0262L22.1092 29.2272C22.2017 29.138 22.3255 29.0886 22.4541 29.0897C22.5826 29.0909 22.7055 29.1424 22.7964 29.2334C22.8873 29.3243 22.9388 29.4472 22.9399 29.5758C22.941 29.7043 22.8916 29.8281 22.8022 29.9205L21.8358 30.887H24.665C24.7656 29.6407 25.2556 28.4577 26.0656 27.5053L24.0698 25.5095V26.8636C24.0698 26.9936 24.0181 27.1183 23.9262 27.2102C23.8343 27.3022 23.7096 27.3538 23.5796 27.3538C23.4496 27.3538 23.3249 27.3022 23.2329 27.2102C23.141 27.1183 23.0894 26.9936 23.0894 26.8636V24.3198C23.0894 24.1898 23.141 24.0651 23.2329 23.9732C23.3249 23.8812 23.4496 23.8296 23.5796 23.8296H26.1222C26.2522 23.8296 26.3769 23.8812 26.4689 23.9732C26.5608 24.0651 26.6124 24.1898 26.6124 24.3198C26.6124 24.4498 26.5608 24.5745 26.4689 24.6664C26.3769 24.7584 26.2522 24.81 26.1222 24.81H24.7552L26.7575 26.8123C27.7089 26.0023 28.891 25.5123 30.1364 25.4117V22.5864L29.1786 23.5442C29.0867 23.6361 28.962 23.6877 28.832 23.6877C28.702 23.6877 28.5773 23.6361 28.4853 23.5442C28.3934 23.4522 28.3417 23.3275 28.3417 23.1975C28.3417 23.0675 28.3934 22.9428 28.4853 22.8509L30.2843 21.0519C30.3762 20.9601 30.5009 20.9084 30.6309 20.9084C30.7609 20.9084 30.8856 20.9601 30.9776 21.0519L32.7765 22.8509C32.8684 22.9428 32.9201 23.0675 32.9201 23.1975C32.9201 23.3275 32.8684 23.4522 32.7765 23.5442C32.6846 23.6361 32.5599 23.6877 32.4298 23.6877C32.2998 23.6877 32.1751 23.6361 32.0832 23.5442L31.1168 22.5777V25.4109C32.3643 25.5121 33.5482 26.0038 34.5003 26.8162L36.5066 24.81H35.1396C35.0096 24.81 34.8849 24.7584 34.793 24.6664C34.701 24.5745 34.6494 24.4498 34.6494 24.3198C34.6494 24.1898 34.701 24.0651 34.793 23.9732C34.8849 23.8812 35.0096 23.8296 35.1396 23.8296H37.6836C37.8136 23.8297 37.9383 23.8813 38.0302 23.9733C38.1221 24.0652 38.1738 24.1898 38.1739 24.3198V26.8636C38.1739 26.9936 38.1222 27.1183 38.0303 27.2102C37.9383 27.3022 37.8137 27.3538 37.6836 27.3538C37.5536 27.3538 37.4289 27.3022 37.337 27.2102C37.2451 27.1183 37.1934 26.9936 37.1934 26.8636V25.5095L35.1925 27.5101C36 28.4617 36.4882 29.6429 36.5881 30.887H39.426L38.4596 29.9205C38.3676 29.8286 38.316 29.7039 38.316 29.5739C38.316 29.4439 38.3676 29.3192 38.4596 29.2272C38.5515 29.1353 38.6762 29.0837 38.8062 29.0837C38.9362 29.0837 39.0609 29.1353 39.1529 29.2272L40.9515 31.0262C40.9971 31.0717 41.0332 31.1257 41.0579 31.1851C41.0825 31.2446 41.0952 31.3083 41.0952 31.3727C41.0952 31.4371 41.0825 31.5008 41.0579 31.5602C41.0332 31.6197 40.9971 31.6737 40.9515 31.7192L39.1529 33.5181C39.1077 33.565 39.0536 33.6023 38.9938 33.628C38.934 33.6537 38.8696 33.6673 38.8046 33.6678C38.7395 33.6684 38.6749 33.656 38.6147 33.6314C38.5544 33.6068 38.4997 33.5704 38.4536 33.5243C38.4076 33.4783 38.3712 33.4236 38.3465 33.3634C38.3219 33.3031 38.3095 33.2386 38.31 33.1735C38.3106 33.1084 38.3241 33.0441 38.3497 32.9843C38.3754 32.9244 38.4128 32.8703 38.4596 32.8251L39.4173 31.8674H36.5881C36.4863 33.1111 35.9964 34.2915 35.1875 35.2417L37.1937 37.2482V35.8815C37.1937 35.7515 37.2454 35.6268 37.3373 35.5349C37.4292 35.4429 37.5539 35.3913 37.6839 35.3913C37.8139 35.3913 37.9386 35.4429 38.0306 35.5349C38.1225 35.6268 38.1741 35.7515 38.1741 35.8815V38.4256C38.1741 38.5555 38.1224 38.6802 38.0305 38.7721C37.9386 38.864 37.8139 38.9157 37.6839 38.9158H35.1399C35.0099 38.9158 34.8852 38.8641 34.7932 38.7722C34.7013 38.6803 34.6497 38.5556 34.6497 38.4256C34.6497 38.2955 34.7013 38.1709 34.7932 38.0789C34.8852 37.987 35.0099 37.9354 35.1399 37.9354H36.4942L34.4939 35.935C33.5429 36.7444 32.3615 37.2343 31.1168 37.3356V40.1676L32.0832 39.2012C32.1751 39.1093 32.2998 39.0576 32.4298 39.0576C32.5599 39.0576 32.6846 39.1093 32.7765 39.2012C32.8684 39.2932 32.9201 39.4178 32.9201 39.5479C32.9201 39.6779 32.8684 39.8026 32.7765 39.8945L30.9776 41.6934C30.9321 41.739 30.878 41.7751 30.8185 41.7998C30.7591 41.8245 30.6953 41.8372 30.6309 41.8372C30.5665 41.8372 30.5028 41.8245 30.4433 41.7998C30.3838 41.7751 30.3298 41.739 30.2843 41.6934L28.4853 39.8945C28.3934 39.8026 28.3417 39.6779 28.3417 39.5479C28.3417 39.4178 28.3934 39.2932 28.4853 39.2012C28.5773 39.1093 28.702 39.0576 28.832 39.0576C28.962 39.0576 29.0867 39.1093 29.1786 39.2012L30.1364 40.1589V37.3345C28.8939 37.2341 27.7143 36.7462 26.764 35.9395L24.7676 37.9359H26.1222C26.2522 37.9359 26.3769 37.9876 26.4689 38.0795C26.5608 38.1714 26.6124 38.2961 26.6124 38.4261C26.6124 38.5561 26.5608 38.6808 26.4689 38.7728C26.3769 38.8647 26.2522 38.9163 26.1222 38.9163H23.5782C23.4482 38.9163 23.3235 38.8647 23.2315 38.7728C23.1396 38.6808 23.088 38.5561 23.088 38.4261V35.8815C23.088 35.7515 23.1396 35.6268 23.2315 35.5349C23.3235 35.4429 23.4482 35.3913 23.5782 35.3913C23.7082 35.3913 23.8329 35.4429 23.9248 35.5349C24.0167 35.6268 24.0684 35.7515 24.0684 35.8815V37.2482L26.0701 35.2462C25.2587 34.2953 24.767 33.1132 24.6648 31.8674H21.8445L22.8022 32.8251C22.8478 32.8706 22.8839 32.9246 22.9086 32.9841C22.9332 33.0435 22.9459 33.1073 22.9459 33.1716C22.9459 33.236 22.9332 33.2997 22.9086 33.3592C22.8839 33.4186 22.8478 33.4727 22.8022 33.5181ZM30.6266 26.3664C29.9698 26.366 29.3195 26.4953 28.7128 26.7467C28.1062 26.9982 27.5551 27.3669 27.0912 27.8317L27.0878 27.8359L27.0844 27.8387C26.1534 28.7689 25.6276 30.0294 25.6217 31.3455C25.6217 31.3559 25.6247 31.3657 25.6247 31.376C25.6247 31.3864 25.6225 31.3943 25.6219 31.4041C25.6291 32.7213 26.1567 33.9822 27.0898 34.912L27.094 34.9151V34.9168C27.6767 35.4976 28.3937 35.9258 29.1814 36.1634C29.9691 36.4011 30.8033 36.4409 31.61 36.2793C32.4168 36.1177 33.1713 35.7598 33.8067 35.2371C34.4421 34.7145 34.9389 34.0432 35.2531 33.2828C35.5673 32.5223 35.6891 31.6962 35.6079 30.8774C35.5267 30.0587 35.2449 29.2726 34.7874 28.5887C34.3299 27.9048 33.7109 27.3443 32.9852 26.9566C32.2595 26.569 31.4493 26.3663 30.6266 26.3664Z" fill="url(#paint1_linear_80_10370)"/>
<circle cx="31" cy="31" r="30.38" transform="matrix(-1 0 0 1 62 0)" stroke="url(#paint2_linear_80_10370)" stroke-width="1.24"/>
<defs>
<linearGradient id="paint0_linear_80_10370" x1="30.6265" y1="13.4451" x2="30.6265" y2="49.3005" gradientUnits="userSpaceOnUse">
<stop stop-color="#00A3FF"/>
<stop offset="1" stop-color="#39FF14"/>
</linearGradient>
<linearGradient id="paint1_linear_80_10370" x1="30.6309" y1="20.9084" x2="30.6309" y2="41.8372" gradientUnits="userSpaceOnUse">
<stop stop-color="#00A3FF"/>
<stop offset="1" stop-color="#39FF14"/>
</linearGradient>
<linearGradient id="paint2_linear_80_10370" x1="31" y1="0" x2="31" y2="62" gradientUnits="userSpaceOnUse">
<stop stop-color="#00A3FF"/>
<stop offset="1" stop-color="#39FF14"/>
</linearGradient>
</defs>
</svg>
