<svg width="49" height="48" viewBox="0 0 49 48" fill="none" xmlns="http://www.w3.org/2000/svg">
<g clip-path="url(#clip0_80_15265)">
<path d="M20.0579 31.7327H28.0812C28.7196 31.7327 29.3318 31.4819 29.7832 31.0354C30.2346 30.589 30.4882 29.9835 30.4882 29.3521V22.2103C30.4882 21.5789 30.2346 20.9734 29.7832 20.5269C29.3318 20.0805 28.7196 19.8297 28.0812 19.8297V18.2426C28.0812 17.1903 27.6586 16.1811 26.9062 15.437C26.1539 14.6929 25.1335 14.2749 24.0695 14.2749C23.0056 14.2749 21.9852 14.6929 21.2329 15.437C20.4805 16.1811 20.0579 17.1903 20.0579 18.2426V19.8297C19.4195 19.8297 18.8073 20.0805 18.3559 20.5269C17.9045 20.9734 17.6509 21.5789 17.6509 22.2103V29.3521C17.6509 29.9835 17.9045 30.589 18.3559 31.0354C18.8073 31.4819 19.4195 31.7327 20.0579 31.7327ZM21.6625 18.2426C21.6625 17.6112 21.9161 17.0057 22.3675 16.5592C22.8189 16.1128 23.4312 15.862 24.0695 15.862C24.7079 15.862 25.3202 16.1128 25.7716 16.5592C26.223 17.0057 26.4765 17.6112 26.4765 18.2426V19.8297H21.6625V18.2426ZM19.2555 22.2103C19.2555 21.9998 19.3401 21.798 19.4905 21.6491C19.641 21.5003 19.8451 21.4167 20.0579 21.4167H28.0812C28.294 21.4167 28.4981 21.5003 28.6485 21.6491C28.799 21.798 28.8835 21.9998 28.8835 22.2103V29.3521C28.8835 29.5625 28.799 29.7644 28.6485 29.9132C28.4981 30.062 28.294 30.1456 28.0812 30.1456H20.0579C19.8451 30.1456 19.641 30.062 19.4905 29.9132C19.3401 29.7644 19.2555 29.5625 19.2555 29.3521V22.2103Z" fill="url(#paint0_linear_80_15265)"/>
<path d="M23.2665 27.619V27.765C23.2665 27.9754 23.3511 28.1773 23.5015 28.3261C23.652 28.4749 23.8561 28.5585 24.0689 28.5585C24.2817 28.5585 24.4857 28.4749 24.6362 28.3261C24.7867 28.1773 24.8712 27.9754 24.8712 27.765V27.619C25.4065 27.4318 25.8577 27.0634 26.145 26.579C26.4323 26.0947 26.5372 25.5254 26.4412 24.9719C26.3452 24.4185 26.0544 23.9164 25.6203 23.5544C25.1862 23.1924 24.6367 22.9939 24.0689 22.9939C23.5011 22.9939 22.9515 23.1924 22.5174 23.5544C22.0833 23.9164 21.7926 24.4185 21.6965 24.9719C21.6005 25.5254 21.7054 26.0947 21.9927 26.579C22.28 27.0634 22.7312 27.4318 23.2665 27.619ZM24.0689 24.5908C24.2817 24.5908 24.4857 24.6744 24.6362 24.8232C24.7867 24.9721 24.8712 25.1739 24.8712 25.3844C24.8712 25.5948 24.7867 25.7967 24.6362 25.9455C24.4857 26.0943 24.2817 26.1779 24.0689 26.1779C23.8561 26.1779 23.652 26.0943 23.5015 25.9455C23.3511 25.7967 23.2665 25.5948 23.2665 25.3844C23.2665 25.1739 23.3511 24.9721 23.5015 24.8232C23.652 24.6744 23.8561 24.5908 24.0689 24.5908Z" fill="url(#paint1_linear_80_15265)"/>
<path d="M10.4297 23.7972C10.4297 31.2477 16.5362 37.2873 24.0693 37.2873C31.6024 37.2873 37.709 31.2477 37.709 23.7972C37.709 16.3467 31.6024 10.3071 24.0693 10.3071C16.5394 10.3151 10.4377 16.3499 10.4297 23.7972ZM24.0693 11.8942C30.7159 11.8942 36.1043 17.2236 36.1043 23.7972C36.1043 30.3709 30.7159 35.7003 24.0693 35.7003C17.4228 35.7003 12.0343 30.3709 12.0343 23.7972C12.0423 17.2268 17.426 11.9021 24.0693 11.8942ZM40.116 41.255C39.4066 41.2577 38.718 41.4927 38.158 41.9234C37.5979 42.3541 37.1979 42.9563 37.0206 43.6356H31.2903V38.8387C33.0842 38.0035 34.7141 36.8603 36.1043 35.4622C36.1798 35.3882 36.2397 35.3 36.2805 35.2029C36.3213 35.1058 36.3421 35.0016 36.3418 34.8965C36.3415 34.7913 36.3201 34.6872 36.2788 34.5903C36.2375 34.4934 36.1771 34.4056 36.1012 34.332C36.0252 34.2584 35.9353 34.2004 35.8365 34.1615C35.7377 34.1226 35.6321 34.1034 35.5258 34.1052C35.4195 34.107 35.3146 34.1297 35.2172 34.1719C35.1199 34.2142 35.0319 34.2751 34.9586 34.3513C33.5963 35.7287 31.9792 36.8346 30.1951 37.6087C30.0874 37.651 29.9904 37.7163 29.9111 37.8C29.9023 37.8095 29.8975 37.8222 29.8886 37.8333C29.83 37.8979 29.7825 37.9716 29.7482 38.0515C29.7325 38.1014 29.722 38.1527 29.717 38.2047C29.702 38.2496 29.6916 38.2958 29.6857 38.3428V43.6356C29.6857 44.0566 29.8547 44.4602 30.1557 44.7579C30.4566 45.0555 30.8647 45.2227 31.2903 45.2227H37.0206C37.1717 45.7961 37.4823 46.3161 37.9172 46.7236C38.352 47.1312 38.8937 47.41 39.4808 47.5283C40.0678 47.6467 40.6766 47.5999 41.2381 47.3932C41.7996 47.1866 42.2912 46.8284 42.6572 46.3593C43.0232 45.8902 43.2488 45.3289 43.3085 44.7394C43.3682 44.1498 43.2596 43.5555 42.9949 43.0239C42.7303 42.4923 42.3202 42.0448 41.8113 41.7321C41.3024 41.4194 40.7151 41.2541 40.116 41.255ZM40.116 46.0162C39.6904 46.0162 39.2823 45.849 38.9813 45.5514C38.6804 45.2538 38.5113 44.8501 38.5113 44.4292C38.5113 44.0083 38.6804 43.6046 38.9813 43.3069C39.2823 43.0093 39.6904 42.8421 40.116 42.8421C40.5416 42.8421 40.9497 43.0093 41.2507 43.3069C41.5516 43.6046 41.7207 44.0083 41.7207 44.4292C41.7207 44.8501 41.5516 45.2538 41.2507 45.5514C40.9497 45.849 40.5416 46.0162 40.116 46.0162ZM6.30406 32.5261H10.1809C10.1874 32.5261 10.193 32.5222 10.2002 32.5222C10.28 32.5186 10.3588 32.5028 10.4337 32.4753C10.4711 32.4632 10.5076 32.4484 10.5428 32.4309C10.5516 32.4261 10.562 32.4246 10.5709 32.419C10.5797 32.4135 10.5933 32.3968 10.6062 32.3881C10.679 32.3437 10.7435 32.2873 10.7971 32.2214C10.8066 32.2092 10.8154 32.1965 10.8236 32.1833C10.8755 32.1111 10.9146 32.0305 10.9391 31.9453C10.9391 31.9334 10.944 31.9215 10.9464 31.9096C10.9658 31.8522 10.9782 31.7928 10.9833 31.7326C10.9791 31.7026 10.973 31.6729 10.9648 31.6437C10.9648 31.6334 10.9648 31.6239 10.9592 31.6128C10.9456 31.5197 10.9149 31.4299 10.8685 31.3477L10.8645 31.335C10.0418 29.9305 9.45593 28.4028 9.12988 26.8119C9.10881 26.7098 9.0676 26.6127 9.00862 26.5264C8.94964 26.44 8.87403 26.3659 8.78611 26.3085C8.6982 26.251 8.5997 26.2112 8.49624 26.1914C8.39278 26.1716 8.28638 26.1721 8.18313 26.1929C8.07987 26.2138 7.98177 26.2545 7.89444 26.3129C7.80711 26.3712 7.73225 26.446 7.67414 26.5329C7.61602 26.6199 7.5758 26.7173 7.55575 26.8196C7.5357 26.9219 7.53623 27.0272 7.55731 27.1293C7.82689 28.4458 8.25855 29.7242 8.84104 30.9383H6.30406C6.10878 30.1902 5.64436 29.5383 4.99786 29.1047C4.35135 28.6711 3.56715 28.4856 2.79225 28.583C2.01734 28.6803 1.30494 29.0538 0.788564 29.6335C0.272191 30.2132 -0.0126953 30.9592 -0.0126953 31.7318C-0.0126953 32.5044 0.272191 33.2504 0.788564 33.8301C1.30494 34.4098 2.01734 34.7833 2.79225 34.8806C3.56715 34.978 4.35135 34.7925 4.99786 34.3589C5.64436 33.9253 6.10878 33.2742 6.30406 32.5261ZM3.20866 33.3197C2.78308 33.3197 2.37492 33.1525 2.07399 32.8548C1.77306 32.5572 1.60399 32.1535 1.60399 31.7326C1.60399 31.3117 1.77306 30.908 2.07399 30.6104C2.37492 30.3127 2.78308 30.1455 3.20866 30.1455C3.63424 30.1455 4.0424 30.3127 4.34333 30.6104C4.64426 30.908 4.81333 31.3117 4.81333 31.7326C4.81333 32.1535 4.64426 32.5572 4.34333 32.8548C4.0424 33.1525 3.63424 33.3197 3.20866 33.3197Z" fill="url(#paint2_linear_80_15265)"/>
<path d="M-0.000729937 15.8619C-0.00170124 16.6335 0.282082 17.3789 0.797355 17.9582C1.31263 18.5375 2.02396 18.9109 2.79784 19.0083C3.57173 19.1057 4.35495 18.9204 5.0005 18.4872C5.64605 18.054 6.10955 17.4027 6.30401 16.6555H10.2025C10.282 16.6507 10.3598 16.6348 10.4344 16.6087C10.4697 16.5975 10.504 16.5837 10.5371 16.5674C10.5799 16.5451 10.6202 16.5185 10.6575 16.488C10.7251 16.4375 10.7837 16.3761 10.8308 16.3063C10.8412 16.2912 10.8548 16.2801 10.8645 16.2643C11.8933 14.4985 13.2739 12.9578 14.9227 11.7355C15.007 11.673 15.078 11.5947 15.1317 11.505C15.1853 11.4154 15.2206 11.3161 15.2355 11.2129C15.2504 11.1098 15.2447 11.0047 15.2185 10.9038C15.1924 10.8028 15.1464 10.708 15.0831 10.6246C15.0199 10.5412 14.9407 10.471 14.8501 10.4179C14.7594 10.3648 14.659 10.3299 14.5547 10.3152C14.4504 10.3004 14.3442 10.3061 14.2421 10.332C14.1401 10.3579 14.0442 10.4034 13.9599 10.4659C12.2714 11.7238 10.8377 13.2853 9.73398 15.0684H6.30401C6.10955 14.3212 5.64605 13.6698 5.0005 13.2366C4.35495 12.8034 3.57173 12.6181 2.79784 12.7155C2.02396 12.8129 1.31263 13.1863 0.797355 13.7657C0.282082 14.345 -0.00170124 15.0904 -0.000729937 15.8619ZM4.81327 15.8619C4.81327 16.2829 4.64421 16.6865 4.34327 16.9842C4.04234 17.2818 3.63419 17.449 3.2086 17.449C2.78302 17.449 2.37487 17.2818 2.07393 16.9842C1.773 16.6865 1.60394 16.2829 1.60394 15.8619C1.60394 15.441 1.773 15.0373 2.07393 14.7397C2.37487 14.4421 2.78302 14.2749 3.2086 14.2749C3.63419 14.2749 4.04234 14.4421 4.34327 14.7397C4.64421 15.0373 4.81327 15.441 4.81327 15.8619ZM44.9299 28.5585C44.2205 28.5611 43.5319 28.7962 42.9719 29.2269C42.4119 29.6576 42.0119 30.2597 41.8345 30.9391H39.2968C39.88 29.7259 40.3111 28.4468 40.5805 27.1301C40.623 26.9238 40.581 26.7092 40.4635 26.5335C40.3461 26.3578 40.1629 26.2355 39.9543 26.1934C39.7456 26.1513 39.5286 26.1929 39.351 26.309C39.1734 26.4252 39.0497 26.6064 39.0071 26.8127C38.6816 28.4035 38.0963 29.9313 37.2741 31.3359V31.3462C37.2261 31.4301 37.1946 31.5222 37.181 31.6176C37.181 31.6263 37.181 31.6343 37.1754 31.643C37.1674 31.6723 37.1601 31.7025 37.1553 31.7327C37.1602 31.795 37.1726 31.8565 37.1922 31.916C37.2155 32.0128 37.2577 32.1042 37.3166 32.185C37.3246 32.1969 37.331 32.2088 37.3399 32.2199C37.3942 32.2861 37.4593 32.3429 37.5324 32.3881C37.5453 32.3968 37.5533 32.4103 37.5669 32.4183C37.5806 32.4262 37.5862 32.4254 37.595 32.4302C37.6303 32.4484 37.6672 32.4635 37.7057 32.4754C37.7803 32.502 37.8584 32.5175 37.9376 32.5214C37.9448 32.5214 37.9504 32.5254 37.9577 32.5254H41.8345C41.9855 33.0989 42.296 33.619 42.7308 34.0266C43.1656 34.4343 43.7073 34.7132 44.2944 34.8317C44.8814 34.9502 45.4903 34.9035 46.0518 34.6969C46.6134 34.4903 47.1051 34.1321 47.4712 33.663C47.8372 33.1939 48.0629 32.6326 48.1227 32.043C48.1824 31.4534 48.0738 30.859 47.8091 30.3274C47.5444 29.7958 47.1344 29.3482 46.6254 29.0355C46.1165 28.7229 45.5291 28.5576 44.9299 28.5585ZM44.9299 33.3197C44.5044 33.3197 44.0962 33.1525 43.7953 32.8549C43.4943 32.5573 43.3253 32.1536 43.3253 31.7327C43.3253 31.3117 43.4943 30.9081 43.7953 30.6104C44.0962 30.3128 44.5044 30.1456 44.9299 30.1456C45.3555 30.1456 45.7637 30.3128 46.0646 30.6104C46.3655 30.9081 46.5346 31.3117 46.5346 31.7327C46.5346 32.1536 46.3655 32.5573 46.0646 32.8549C45.7637 33.1525 45.3555 33.3197 44.9299 33.3197ZM18.4529 38.3563V38.3428C18.4478 38.2982 18.439 38.2542 18.4265 38.2111C18.4208 38.1572 18.4098 38.1041 18.3936 38.0524C18.3598 37.9737 18.3132 37.901 18.2556 37.8373C18.2451 37.8254 18.2403 37.8111 18.2299 37.8C18.1503 37.7164 18.053 37.6511 17.9451 37.6088C15.8449 36.692 13.979 35.3216 12.4844 33.5983C12.4169 33.516 12.3334 33.448 12.2388 33.3982C12.1443 33.3484 12.0407 33.3178 11.934 33.3083C11.8274 33.2987 11.7198 33.3104 11.6178 33.3426C11.5158 33.3747 11.4213 33.4268 11.3399 33.4957C11.2586 33.5646 11.1919 33.6488 11.144 33.7436C11.0961 33.8383 11.0679 33.9416 11.061 34.0473C11.054 34.153 11.0686 34.259 11.1037 34.359C11.1389 34.4591 11.1939 34.5512 11.2656 34.6299C12.8086 36.4062 14.7102 37.8436 16.8483 38.8499V43.6357H11.118C10.9227 42.8877 10.4583 42.2357 9.8118 41.8022C9.1653 41.3686 8.3811 41.183 7.60619 41.2804C6.83129 41.3777 6.11888 41.7513 5.60251 42.3309C5.08613 42.9106 4.80125 43.6567 4.80125 44.4292C4.80125 45.2018 5.08613 45.9478 5.60251 46.5275C6.11888 47.1072 6.83129 47.4807 7.60619 47.5781C8.3811 47.6754 9.1653 47.4899 9.8118 47.0563C10.4583 46.6227 10.9227 45.9708 11.118 45.2228H16.8483C17.2739 45.2228 17.682 45.0556 17.9829 44.7579C18.2839 44.4603 18.4529 44.0566 18.4529 43.6357V38.3563ZM8.0226 46.0163C7.59702 46.0163 7.18887 45.8491 6.88793 45.5515C6.587 45.2538 6.41794 44.8501 6.41794 44.4292C6.41794 44.0083 6.587 43.6046 6.88793 43.307C7.18887 43.0094 7.59702 42.8422 8.0226 42.8422C8.44819 42.8422 8.85634 43.0094 9.15727 43.307C9.45821 43.6046 9.62727 44.0083 9.62727 44.4292C9.62727 44.8501 9.45821 45.2538 9.15727 45.5515C8.85634 45.8491 8.44819 46.0163 8.0226 46.0163ZM27.1181 38.5729C25.1056 38.9727 23.0329 38.9727 21.0204 38.5729C20.9161 38.5493 20.8081 38.5465 20.7027 38.5647C20.5973 38.583 20.4967 38.6219 20.4067 38.6791C20.3168 38.7364 20.2393 38.8109 20.1789 38.8982C20.1185 38.9856 20.0763 39.084 20.0549 39.1876C20.0335 39.2913 20.0333 39.3982 20.0542 39.5019C20.0752 39.6057 20.117 39.7043 20.177 39.7918C20.2371 39.8794 20.3142 39.9542 20.404 40.0119C20.4937 40.0695 20.5942 40.1088 20.6995 40.1275C21.5467 40.2901 22.4044 40.3893 23.2669 40.4219V46.8098C23.2669 47.0203 23.3515 47.2221 23.5019 47.371C23.6524 47.5198 23.8565 47.6034 24.0693 47.6034C24.2821 47.6034 24.4861 47.5198 24.6366 47.371C24.7871 47.2221 24.8716 47.0203 24.8716 46.8098V40.4219C25.7338 40.3887 26.5921 40.2903 27.4391 40.1275C27.6432 40.0812 27.821 39.9577 27.9343 39.7835C28.0477 39.6094 28.0877 39.3982 28.0458 39.1953C28.0039 38.9923 27.8834 38.8136 27.7101 38.6973C27.5367 38.581 27.3243 38.5364 27.1181 38.5729ZM16.8483 2.37183H11.118C10.9227 1.62379 10.4583 0.971879 9.8118 0.538281C9.1653 0.104683 8.3811 -0.080829 7.60619 0.0165176C6.83129 0.113864 6.11888 0.487386 5.60251 1.06707C5.08613 1.64675 4.80125 2.3928 4.80125 3.16536C4.80125 3.93793 5.08613 4.68397 5.60251 5.26366C6.11888 5.84334 6.83129 6.21686 7.60619 6.31421C8.3811 6.41155 9.1653 6.22604 9.8118 5.79244C10.4583 5.35885 10.9227 4.70693 11.118 3.9589H16.8483V9.25337C16.8483 9.28511 16.8635 9.31606 16.8675 9.3478C16.8756 9.43033 16.8972 9.51048 16.9309 9.58586C16.9811 9.69247 17.0562 9.78577 17.1499 9.85804C17.2221 9.91672 17.3037 9.96287 17.3915 9.99453C17.4484 10.0128 17.5078 10.0239 17.568 10.0294C17.5943 10.0366 17.6211 10.0421 17.6482 10.0461C17.7632 10.0437 17.8762 10.0166 17.9796 9.96676C18.957 9.5476 19.9762 9.23109 21.0204 9.02245C21.229 8.98036 21.4122 8.85802 21.5297 8.68234C21.6471 8.50666 21.6892 8.29204 21.6466 8.08568C21.6041 7.87933 21.4804 7.69814 21.3027 7.58199C21.1251 7.46584 20.9081 7.42423 20.6995 7.46633C19.9373 7.62027 19.1863 7.82739 18.4529 8.08528V3.9589C18.4529 3.53798 18.2839 3.1343 17.9829 2.83667C17.682 2.53904 17.2739 2.37183 16.8483 2.37183ZM8.0226 4.75243C7.59702 4.75243 7.18887 4.58523 6.88793 4.28759C6.587 3.98996 6.41794 3.58628 6.41794 3.16536C6.41794 2.74444 6.587 2.34077 6.88793 2.04313C7.18887 1.7455 7.59702 1.57829 8.0226 1.57829C8.44819 1.57829 8.85634 1.7455 9.15727 2.04313C9.45821 2.34077 9.62727 2.74444 9.62727 3.16536C9.62727 3.58628 9.45821 3.98996 9.15727 4.28759C8.85634 4.58523 8.44819 4.75243 8.0226 4.75243ZM37.0205 3.9589C37.2158 4.70693 37.6802 5.35885 38.3267 5.79244C38.9732 6.22604 39.7574 6.41155 40.5323 6.31421C41.3073 6.21686 42.0197 5.84334 42.536 5.26366C43.0524 4.68397 43.3373 3.93793 43.3373 3.16536C43.3373 2.3928 43.0524 1.64675 42.536 1.06707C42.0197 0.487386 41.3073 0.113864 40.5323 0.0165176C39.7574 -0.080829 38.9732 0.104683 38.3267 0.538281C37.6802 0.971879 37.2158 1.62379 37.0205 2.37183H31.2903C30.8647 2.37183 30.4565 2.53904 30.1556 2.83667C29.8547 3.1343 29.6856 3.53798 29.6856 3.9589V9.25099C29.6905 9.2978 29.6999 9.34404 29.7137 9.38906C29.7185 9.44144 29.7297 9.49222 29.745 9.54222C29.7795 9.62157 29.8268 9.69616 29.8854 9.76044C29.8942 9.77075 29.899 9.78424 29.9079 9.79377C29.9873 9.87709 30.0844 9.94295 30.1919 9.98501C31.9756 10.758 33.5927 11.8625 34.9553 13.2385C35.0276 13.3179 35.1153 13.3821 35.2132 13.4271C35.3112 13.4722 35.4173 13.4973 35.5252 13.5008C35.6332 13.5043 35.7407 13.4863 35.8415 13.4477C35.9422 13.4091 36.034 13.3508 36.1114 13.2763C36.1888 13.2018 36.2502 13.1126 36.2919 13.014C36.3336 12.9155 36.3547 12.8096 36.354 12.7028C36.3534 12.596 36.3309 12.4904 36.288 12.3924C36.2451 12.2943 36.1826 12.2059 36.1043 12.1323C34.7141 10.7342 33.0841 9.59099 31.2903 8.75582V3.9589H37.0205ZM40.1159 1.57829C40.5415 1.57829 40.9497 1.7455 41.2506 2.04313C41.5515 2.34077 41.7206 2.74444 41.7206 3.16536C41.7206 3.58628 41.5515 3.98996 41.2506 4.28759C40.9497 4.58523 40.5415 4.75243 40.1159 4.75243C39.6904 4.75243 39.2822 4.58523 38.9813 4.28759C38.6803 3.98996 38.5113 3.58628 38.5113 3.16536C38.5113 2.74444 38.6803 2.34077 38.9813 2.04313C39.2822 1.7455 39.6904 1.57829 40.1159 1.57829ZM24.0693 -0.00878133C23.8565 -0.00878133 23.6524 0.0748231 23.5019 0.22364C23.3515 0.372457 23.2669 0.574296 23.2669 0.784755V7.92658C23.2669 8.13704 23.3515 8.33887 23.5019 8.48769C23.6524 8.63651 23.8565 8.72011 24.0693 8.72011C25.093 8.72011 26.1152 8.82089 27.1181 9.02166C27.3243 9.0582 27.5367 9.01356 27.7101 8.89728C27.8834 8.78099 28.0039 8.60228 28.0458 8.39932C28.0877 8.19636 28.0477 7.98524 27.9343 7.81105C27.821 7.63687 27.6432 7.51344 27.4391 7.46712C26.5921 7.3043 25.7338 7.20588 24.8716 7.17272V0.784755C24.8716 0.574296 24.7871 0.372457 24.6366 0.22364C24.4861 0.0748231 24.2821 -0.00878133 24.0693 -0.00878133ZM41.8345 16.6555C42.0298 17.4035 42.4942 18.0554 43.1407 18.489C43.7872 18.9226 44.5714 19.1081 45.3464 19.0108C46.1213 18.9134 46.8337 18.5399 47.35 17.9602C47.8664 17.3805 48.1513 16.6345 48.1513 15.8619C48.1513 15.0894 47.8664 14.3433 47.35 13.7636C46.8337 13.184 46.1213 12.8104 45.3464 12.7131C44.5714 12.6157 43.7872 12.8013 43.1407 13.2349C42.4942 13.6685 42.0298 14.3204 41.8345 15.0684H37.9577C37.9424 15.0684 37.9304 15.0763 37.9159 15.0763C37.8694 15.0813 37.8235 15.0906 37.7787 15.1041C37.7128 15.117 37.6489 15.1383 37.5886 15.1676C37.5822 15.1676 37.5741 15.1676 37.5669 15.1755C37.5597 15.1835 37.5461 15.197 37.5324 15.2057C37.4593 15.2509 37.3942 15.3077 37.3399 15.3739C37.331 15.385 37.3246 15.3969 37.3166 15.4088C37.2635 15.4807 37.2236 15.5613 37.1987 15.6469C37.1987 15.6572 37.1987 15.6675 37.1922 15.6778C37.1725 15.7375 37.1601 15.7993 37.1553 15.8619C37.1593 15.8921 37.1658 15.9222 37.173 15.9524C37.173 15.9611 37.177 15.9691 37.1786 15.9778C37.1922 16.073 37.2235 16.1651 37.2717 16.2492V16.2595C38.6098 18.5512 39.314 21.1509 39.3136 23.7973C39.3136 24.0078 39.3981 24.2096 39.5486 24.3584C39.6991 24.5072 39.9031 24.5908 40.1159 24.5908H47.3369C47.5497 24.5908 47.7538 24.5072 47.9043 24.3584C48.0547 24.2096 48.1393 24.0078 48.1393 23.7973C48.1393 23.5868 48.0547 23.385 47.9043 23.2362C47.7538 23.0874 47.5497 23.0038 47.3369 23.0038H40.8918C40.7866 20.8035 40.2412 18.6458 39.2871 16.6555H41.8345ZM44.9299 14.2749C45.3555 14.2749 45.7637 14.4421 46.0646 14.7397C46.3655 15.0373 46.5346 15.441 46.5346 15.8619C46.5346 16.2829 46.3655 16.6865 46.0646 16.9842C45.7637 17.2818 45.3555 17.449 44.9299 17.449C44.5044 17.449 44.0962 17.2818 43.7953 16.9842C43.4943 16.6865 43.3253 16.2829 43.3253 15.8619C43.3253 15.441 43.4943 15.0373 43.7953 14.7397C44.0962 14.4421 44.5044 14.2749 44.9299 14.2749ZM0.801603 24.5908H8.0226C8.2354 24.5908 8.43947 24.5072 8.58994 24.3584C8.74041 24.2096 8.82494 24.0078 8.82494 23.7973C8.82324 22.1939 9.08028 20.6006 9.58635 19.0773C9.61928 18.9783 9.63217 18.8739 9.62428 18.77C9.6164 18.6661 9.58789 18.5647 9.5404 18.4717C9.4929 18.3786 9.42734 18.2958 9.34747 18.2278C9.26759 18.1598 9.17496 18.1081 9.07486 18.0755C8.97477 18.0429 8.86917 18.0302 8.76409 18.038C8.65901 18.0458 8.55652 18.074 8.46246 18.121C8.3684 18.1679 8.28461 18.2328 8.21589 18.3118C8.14716 18.3908 8.09484 18.4824 8.06192 18.5814C7.59058 20.0124 7.31796 21.5001 7.25156 23.0038H0.801603C0.588811 23.0038 0.384735 23.0874 0.234268 23.2362C0.0838014 23.385 -0.000729937 23.5868 -0.000729937 23.7973C-0.000729937 24.0078 0.0838014 24.2096 0.234268 24.3584C0.384735 24.5072 0.588811 24.5908 0.801603 24.5908Z" fill="url(#paint3_linear_80_15265)"/>
</g>
<defs>
<linearGradient id="paint0_linear_80_15265" x1="24.0695" y1="14.2749" x2="24.0695" y2="31.7327" gradientUnits="userSpaceOnUse">
<stop stop-color="#00A3FF"/>
<stop offset="1" stop-color="#39FF14"/>
</linearGradient>
<linearGradient id="paint1_linear_80_15265" x1="24.0689" y1="22.9939" x2="24.0689" y2="28.5585" gradientUnits="userSpaceOnUse">
<stop stop-color="#00A3FF"/>
<stop offset="1" stop-color="#39FF14"/>
</linearGradient>
<linearGradient id="paint2_linear_80_15265" x1="21.6559" y1="10.3071" x2="21.6559" y2="47.5922" gradientUnits="userSpaceOnUse">
<stop stop-color="#00A3FF"/>
<stop offset="1" stop-color="#39FF14"/>
</linearGradient>
<linearGradient id="paint3_linear_80_15265" x1="24.0753" y1="-0.00878906" x2="24.0753" y2="47.6034" gradientUnits="userSpaceOnUse">
<stop stop-color="#00A3FF"/>
<stop offset="1" stop-color="#39FF14"/>
</linearGradient>
<clipPath id="clip0_80_15265">
<rect width="48.14" height="47.6121" fill="white" transform="translate(0 -0.00878906)"/>
</clipPath>
</defs>
</svg>
