<svg width="24" height="24" viewBox="0 0 24 24" fill="none" xmlns="http://www.w3.org/2000/svg">
<path d="M14.9268 19.0666C14.6689 19.3245 14.2513 19.3245 13.9935 19.0666L7.39347 12.4666C7.26457 12.3377 7.20011 12.1689 7.20011 12C7.20011 11.8311 7.26456 11.6623 7.39347 11.5334L13.9935 4.93337C14.251 4.67556 14.6689 4.67556 14.9268 4.93337C15.1846 5.19119 15.1846 5.60916 14.9268 5.86665L8.7934 12L14.9268 18.1334C15.1846 18.3909 15.1846 18.8092 14.9268 19.0666Z" fill="#39FF14" fill-opacity="0.38"/>
<path d="M14.9268 15.1067C14.6689 15.3645 14.2513 15.3645 13.9935 15.1067L11.3535 12.4667C11.2246 12.3378 11.1601 12.1689 11.1601 12.0001C11.1601 11.8312 11.2246 11.6623 11.3535 11.5334L13.9935 8.89341C14.2513 8.6356 14.6689 8.6356 14.9268 8.89341C15.1846 9.1509 15.1846 9.5692 14.9268 9.82669L12.7534 12.0001L14.9268 14.1734C15.1846 14.4309 15.1846 14.8492 14.9268 15.1067Z" fill="#39FF14" fill-opacity="0.38"/>
</svg>
