<svg width="36" height="36" viewBox="0 0 36 36" fill="none" xmlns="http://www.w3.org/2000/svg">
<path d="M13.6099 28.6C13.9966 28.9867 14.6231 28.9867 15.0098 28.6L24.9098 18.7C25.1031 18.5066 25.1998 18.2533 25.1998 18C25.1998 17.7467 25.1032 17.4934 24.9098 17.3001L15.0098 7.40006C14.6236 7.01334 13.9966 7.01334 13.6099 7.40006C13.2231 7.78678 13.2231 8.41375 13.6099 8.79998L22.8099 18L13.6099 27.2001C13.2231 27.5863 13.2231 28.2137 13.6099 28.6Z" fill="#39FF14"/>
<path d="M13.6099 22.66C13.9966 23.0468 14.6231 23.0468 15.0098 22.66L18.9698 18.7C19.1631 18.5067 19.2598 18.2534 19.2598 18.0001C19.2598 17.7468 19.1632 17.4935 18.9698 17.3001L15.0098 13.3401C14.6231 12.9534 13.9966 12.9534 13.6099 13.3401C13.2231 13.7264 13.2231 14.3538 13.6099 14.74L16.8699 18.0001L13.6099 21.2601C13.2231 21.6464 13.2231 22.2738 13.6099 22.66Z" fill="#39FF14"/>
</svg>
