<svg width="62" height="63" viewBox="0 0 62 63" fill="none" xmlns="http://www.w3.org/2000/svg">
<path d="M34.3614 31.8735H16.4337C16.0374 31.8735 15.6574 32.0309 15.3773 32.3111C15.0971 32.5913 14.9397 32.9713 14.9397 33.3675V37.8494C14.9397 38.2457 15.0971 38.6257 15.3773 38.9058C15.6574 39.186 16.0374 39.3434 16.4337 39.3434V40.8374C16.0374 40.8374 15.6574 40.9948 15.3773 41.275C15.0971 41.5551 14.9397 41.9351 14.9397 42.3314V46.8133C14.9397 47.2095 15.0971 47.5895 15.3773 47.8697C15.6574 48.1499 16.0374 48.3073 16.4337 48.3073H34.3614C34.7576 48.3073 35.1376 48.1499 35.4178 47.8697C35.698 47.5895 35.8554 47.2095 35.8554 46.8133V42.3314C35.8554 41.9351 35.698 41.5551 35.4178 41.275C35.1376 40.9948 34.7576 40.8374 34.3614 40.8374V39.3434C34.7576 39.3434 35.1376 39.186 35.4178 38.9058C35.698 38.6257 35.8554 38.2457 35.8554 37.8494V33.3675C35.8554 32.9713 35.698 32.5913 35.4178 32.3111C35.1376 32.0309 34.7576 31.8735 34.3614 31.8735ZM34.3614 46.8133H16.4337V42.3314H34.3614V46.8133ZM17.9276 40.8374V39.3434H32.8674V40.8374H17.9276ZM16.4337 37.8494V33.3675H34.3614V37.8494H16.4337Z" fill="black"/>
<path d="M34.3614 31.8735H16.4337C16.0374 31.8735 15.6574 32.0309 15.3773 32.3111C15.0971 32.5913 14.9397 32.9713 14.9397 33.3675V37.8494C14.9397 38.2457 15.0971 38.6257 15.3773 38.9058C15.6574 39.186 16.0374 39.3434 16.4337 39.3434V40.8374C16.0374 40.8374 15.6574 40.9948 15.3773 41.275C15.0971 41.5551 14.9397 41.9351 14.9397 42.3314V46.8133C14.9397 47.2095 15.0971 47.5895 15.3773 47.8697C15.6574 48.1499 16.0374 48.3073 16.4337 48.3073H34.3614C34.7576 48.3073 35.1376 48.1499 35.4178 47.8697C35.698 47.5895 35.8554 47.2095 35.8554 46.8133V42.3314C35.8554 41.9351 35.698 41.5551 35.4178 41.275C35.1376 40.9948 34.7576 40.8374 34.3614 40.8374V39.3434C34.7576 39.3434 35.1376 39.186 35.4178 38.9058C35.698 38.6257 35.8554 38.2457 35.8554 37.8494V33.3675C35.8554 32.9713 35.698 32.5913 35.4178 32.3111C35.1376 32.0309 34.7576 31.8735 34.3614 31.8735ZM34.3614 46.8133H16.4337V42.3314H34.3614V46.8133ZM17.9276 40.8374V39.3434H32.8674V40.8374H17.9276ZM16.4337 37.8494V33.3675H34.3614V37.8494H16.4337Z" fill="url(#paint0_linear_80_15319)"/>
<path d="M20.1685 34.8615H18.6746C18.4764 34.8615 18.2865 34.9402 18.1464 35.0802C18.0063 35.2203 17.9276 35.4103 17.9276 35.6085C17.9276 35.8066 18.0063 35.9966 18.1464 36.1367C18.2865 36.2767 18.4764 36.3554 18.6746 36.3554H20.1685C20.3667 36.3554 20.5567 36.2767 20.6967 36.1367C20.8368 35.9966 20.9155 35.8066 20.9155 35.6085C20.9155 35.4103 20.8368 35.2203 20.6967 35.0802C20.5567 34.9402 20.3667 34.8615 20.1685 34.8615ZM20.1685 43.8253H18.6746C18.4764 43.8253 18.2865 43.904 18.1464 44.0441C18.0063 44.1842 17.9276 44.3742 17.9276 44.5723C17.9276 44.7704 18.0063 44.9604 18.1464 45.1005C18.2865 45.2406 18.4764 45.3193 18.6746 45.3193H20.1685C20.3667 45.3193 20.5567 45.2406 20.6967 45.1005C20.8368 44.9604 20.9155 44.7704 20.9155 44.5723C20.9155 44.3742 20.8368 44.1842 20.6967 44.0441C20.5567 43.904 20.3667 43.8253 20.1685 43.8253ZM32.1203 34.8615C31.9222 34.8615 31.7322 34.9402 31.5921 35.0802C31.4521 35.2203 31.3734 35.4103 31.3734 35.6085C31.3734 35.8066 31.4521 35.9966 31.5921 36.1367C31.7322 36.2767 31.9222 36.3554 32.1203 36.3554C32.3185 36.3554 32.5085 36.2767 32.6485 36.1367C32.7886 35.9966 32.8673 35.8066 32.8673 35.6085C32.8673 35.4103 32.7886 35.2203 32.6485 35.0802C32.5085 34.9402 32.3185 34.8615 32.1203 34.8615ZM32.1203 43.8253C31.9222 43.8253 31.7322 43.904 31.5921 44.0441C31.4521 44.1842 31.3734 44.3742 31.3734 44.5723C31.3734 44.7704 31.4521 44.9604 31.5921 45.1005C31.7322 45.2406 31.9222 45.3193 32.1203 45.3193C32.3185 45.3193 32.5085 45.2406 32.6485 45.1005C32.7886 44.9604 32.8673 44.7704 32.8673 44.5723C32.8673 44.3742 32.7886 44.1842 32.6485 44.0441C32.5085 43.904 32.3185 43.8253 32.1203 43.8253ZM14.9396 29.6325C14.9396 29.8307 15.0183 30.0207 15.1584 30.1607C15.2985 30.3008 15.4885 30.3795 15.6866 30.3795H18.6746C18.8727 30.3795 19.0627 30.3008 19.2028 30.1607C19.3429 30.0207 19.4216 29.8307 19.4216 29.6325V19.1747C19.922 19.1747 20.5794 19.3017 20.8408 18.7489C21.1023 18.1962 20.9753 18.241 17.7632 14.267C17.6932 14.1798 17.6046 14.1094 17.5037 14.061C17.4029 14.0126 17.2924 13.9875 17.1806 13.9875C17.0687 13.9875 16.9583 14.0126 16.8575 14.061C16.7566 14.1094 16.6679 14.1798 16.5979 14.267L13.61 18.0019C13.5336 18.1118 13.4881 18.2402 13.4783 18.3737C13.4685 18.5072 13.4948 18.6409 13.5543 18.7607C13.6139 18.8806 13.7045 18.9822 13.8168 19.0551C13.9291 19.1279 14.0589 19.1692 14.1926 19.1747H14.9396V29.6325ZM17.1806 15.888L18.6148 17.6807C18.4272 17.6958 18.2522 17.7811 18.1248 17.9196C17.9974 18.0581 17.927 18.2395 17.9276 18.4277V28.8856H16.4336V18.4277C16.4342 18.2395 16.3638 18.0581 16.2363 17.9196C16.1089 17.7811 15.934 17.6958 15.7464 17.6807L17.1806 15.888ZM45.2897 42.4957C45.18 42.4066 45.0472 42.3505 44.9068 42.334C44.7664 42.3174 44.6242 42.341 44.4967 42.402C44.3692 42.463 44.2616 42.5589 44.1865 42.6787C44.1113 42.7984 44.0717 42.937 44.0722 43.0783V43.8253H38.0963C37.8981 43.8253 37.7081 43.904 37.5681 44.0441C37.428 44.1842 37.3493 44.3742 37.3493 44.5723V47.5603C37.3493 47.7584 37.428 47.9484 37.5681 48.0885C37.7081 48.2285 37.8981 48.3072 38.0963 48.3072H44.0722C44.0722 48.8227 43.9452 49.4651 44.4979 49.7265C44.6249 49.7878 44.7667 49.812 44.9068 49.7961C45.0469 49.7802 45.1797 49.725 45.2897 49.6369C49.3459 46.3875 49.3011 46.5518 49.3011 46.0663C49.3011 45.5807 49.3907 45.7824 45.2897 42.4957ZM45.5661 47.5005C45.5511 47.3129 45.4658 47.1379 45.3273 47.0105C45.1888 46.8831 45.0073 46.8127 44.8191 46.8133H38.8432V45.3193H44.8191C45.0073 45.3199 45.1888 45.2495 45.3273 45.122C45.4658 44.9946 45.5511 44.8196 45.5661 44.6321L47.3589 46.0663L45.5661 47.5005ZM21.6625 22.1627C21.4644 22.1627 21.2744 22.2414 21.1343 22.3815C20.9942 22.5215 20.9155 22.7115 20.9155 22.9097C20.9155 23.1078 20.9942 23.2978 21.1343 23.4379C21.2744 23.5779 21.4644 23.6566 21.6625 23.6566H23.1565C23.3546 23.6566 23.5446 23.5779 23.6847 23.4379C23.8248 23.2978 23.9035 23.1078 23.9035 22.9097C23.9035 22.7115 23.8248 22.5215 23.6847 22.3815C23.5446 22.2414 23.3546 22.1627 23.1565 22.1627H21.6625ZM26.1444 22.1627C25.9463 22.1627 25.7563 22.2414 25.6162 22.3815C25.4762 22.5215 25.3975 22.7115 25.3975 22.9097C25.3975 23.1078 25.4762 23.2978 25.6162 23.4379C25.7563 23.5779 25.9463 23.6566 26.1444 23.6566H27.6384C27.8365 23.6566 28.0265 23.5779 28.1666 23.4379C28.3067 23.2978 28.3854 23.1078 28.3854 22.9097C28.3854 22.7115 28.3067 22.5215 28.1666 22.3815C28.0265 22.2414 27.8365 22.1627 27.6384 22.1627H26.1444ZM30.6264 22.1627C30.4283 22.1627 30.2383 22.2414 30.0982 22.3815C29.9581 22.5215 29.8794 22.7115 29.8794 22.9097C29.8794 23.1078 29.9581 23.2978 30.0982 23.4379C30.2383 23.5779 30.4283 23.6566 30.6264 23.6566H32.1203C32.3185 23.6566 32.5085 23.5779 32.6485 23.4379C32.7886 23.2978 32.8673 23.1078 32.8673 22.9097C32.8673 22.7115 32.7886 22.5215 32.6485 22.3815C32.5085 22.2414 32.3185 22.1627 32.1203 22.1627H30.6264ZM36.6023 22.1627H35.1083C34.9102 22.1627 34.7202 22.2414 34.5801 22.3815C34.44 22.5215 34.3613 22.7115 34.3613 22.9097C34.3613 23.1078 34.44 23.2978 34.5801 23.4379C34.7202 23.5779 34.9102 23.6566 35.1083 23.6566H36.6023C36.8004 23.6566 36.9904 23.5779 37.1305 23.4379C37.2706 23.2978 37.3493 23.1078 37.3493 22.9097C37.3493 22.7115 37.2706 22.5215 37.1305 22.3815C36.9904 22.2414 36.8004 22.1627 36.6023 22.1627ZM39.5902 40.0904V41.5844C39.5902 41.7825 39.6689 41.9725 39.809 42.1126C39.9491 42.2526 40.1391 42.3313 40.3372 42.3313C40.5353 42.3313 40.7253 42.2526 40.8654 42.1126C41.0055 41.9725 41.0842 41.7825 41.0842 41.5844V40.0904C41.0842 39.8923 41.0055 39.7023 40.8654 39.5622C40.7253 39.4221 40.5353 39.3434 40.3372 39.3434C40.1391 39.3434 39.9491 39.4221 39.809 39.5622C39.6689 39.7023 39.5902 39.8923 39.5902 40.0904ZM41.0842 35.6085C41.0842 35.4103 41.0055 35.2203 40.8654 35.0802C40.7253 34.9402 40.5353 34.8615 40.3372 34.8615C40.1391 34.8615 39.9491 34.9402 39.809 35.0802C39.6689 35.2203 39.5902 35.4103 39.5902 35.6085V37.1024C39.5902 37.3005 39.6689 37.4905 39.809 37.6306C39.9491 37.7707 40.1391 37.8494 40.3372 37.8494C40.5353 37.8494 40.7253 37.7707 40.8654 37.6306C41.0055 37.4905 41.0842 37.3005 41.0842 37.1024V35.6085ZM41.0842 31.1265C41.0842 30.9284 41.0055 30.7384 40.8654 30.5983C40.7253 30.4582 40.5353 30.3795 40.3372 30.3795C40.1391 30.3795 39.9491 30.4582 39.809 30.5983C39.6689 30.7384 39.5902 30.9284 39.5902 31.1265V32.6205C39.5902 32.8186 39.6689 33.0086 39.809 33.1487C39.9491 33.2888 40.1391 33.3675 40.3372 33.3675C40.5353 33.3675 40.7253 33.2888 40.8654 33.1487C41.0055 33.0086 41.0842 32.8186 41.0842 32.6205V31.1265ZM41.0842 26.6446C41.0842 26.4465 41.0055 26.2565 40.8654 26.1164C40.7253 25.9763 40.5353 25.8976 40.3372 25.8976C40.1391 25.8976 39.9491 25.9763 39.809 26.1164C39.6689 26.2565 39.5902 26.4465 39.5902 26.6446V28.1386C39.5902 28.3367 39.6689 28.5267 39.809 28.6668C39.9491 28.8069 40.1391 28.8856 40.3372 28.8856C40.5353 28.8856 40.7253 28.8069 40.8654 28.6668C41.0055 28.5267 41.0842 28.3367 41.0842 28.1386V26.6446ZM41.0842 22.9097C41.0842 22.7115 41.0055 22.5215 40.8654 22.3815C40.7253 22.2414 40.5353 22.1627 40.3372 22.1627H39.5902C39.3921 22.1627 39.2021 22.2414 39.062 22.3815C38.9219 22.5215 38.8432 22.7115 38.8432 22.9097C38.8432 23.1078 38.9219 23.2978 39.062 23.4379C39.2021 23.5779 39.3921 23.6566 39.5902 23.6566C39.5902 23.8548 39.6689 24.0448 39.809 24.1848C39.9491 24.3249 40.1391 24.4036 40.3372 24.4036C40.5353 24.4036 40.7253 24.3249 40.8654 24.1848C41.0055 24.0448 41.0842 23.8548 41.0842 23.6566V22.9097ZM29.8794 15.4398H31.3734C31.5715 15.4398 31.7615 15.3611 31.9016 15.221C32.0416 15.0809 32.1203 14.8909 32.1203 14.6928C32.1203 14.4947 32.0416 14.3047 31.9016 14.1646C31.7615 14.0245 31.5715 13.9458 31.3734 13.9458H29.8794C29.6813 13.9458 29.4913 14.0245 29.3512 14.1646C29.2111 14.3047 29.1324 14.4947 29.1324 14.6928C29.1324 14.8909 29.2111 15.0809 29.3512 15.221C29.4913 15.3611 29.6813 15.4398 29.8794 15.4398ZM34.3613 15.4398H35.8553C36.0534 15.4398 36.2434 15.3611 36.3835 15.221C36.5236 15.0809 36.6023 14.8909 36.6023 14.6928C36.6023 14.4947 36.5236 14.3047 36.3835 14.1646C36.2434 14.0245 36.0534 13.9458 35.8553 13.9458H34.3613C34.1632 13.9458 33.9732 14.0245 33.8331 14.1646C33.693 14.3047 33.6143 14.4947 33.6143 14.6928C33.6143 14.8909 33.693 15.0809 33.8331 15.221C33.9732 15.3611 34.1632 15.4398 34.3613 15.4398ZM38.8432 15.4398H40.3372C40.5353 15.4398 40.7253 15.3611 40.8654 15.221C41.0055 15.0809 41.0842 14.8909 41.0842 14.6928C41.0842 14.4947 41.0055 14.3047 40.8654 14.1646C40.7253 14.0245 40.5353 13.9458 40.3372 13.9458H38.8432C38.6451 13.9458 38.4551 14.0245 38.315 14.1646C38.1749 14.3047 38.0963 14.4947 38.0963 14.6928C38.0963 14.8909 38.1749 15.0809 38.315 15.221C38.4551 15.3611 38.6451 15.4398 38.8432 15.4398ZM43.3252 15.4398H44.8191C45.0173 15.4398 45.2073 15.3611 45.3473 15.221C45.4874 15.0809 45.5661 14.8909 45.5661 14.6928C45.5661 14.4947 45.4874 14.3047 45.3473 14.1646C45.2073 14.0245 45.0173 13.9458 44.8191 13.9458H43.3252C43.1271 13.9458 42.9371 14.0245 42.797 14.1646C42.6569 14.3047 42.5782 14.4947 42.5782 14.6928C42.5782 14.8909 42.6569 15.0809 42.797 15.221C42.9371 15.3611 43.1271 15.4398 43.3252 15.4398ZM47.8071 31.8735V33.3675C47.8071 33.5656 47.8858 33.7556 48.0259 33.8957C48.166 34.0358 48.356 34.1145 48.5541 34.1145C48.7522 34.1145 48.9422 34.0358 49.0823 33.8957C49.2224 33.7556 49.3011 33.5656 49.3011 33.3675V31.8735C49.3011 31.6754 49.2224 31.4854 49.0823 31.3453C48.9422 31.2052 48.7522 31.1265 48.5541 31.1265C48.356 31.1265 48.166 31.2052 48.0259 31.3453C47.8858 31.4854 47.8071 31.6754 47.8071 31.8735ZM47.8071 27.3916V28.8856C47.8071 29.0837 47.8858 29.2737 48.0259 29.4138C48.166 29.5538 48.356 29.6325 48.5541 29.6325C48.7522 29.6325 48.9422 29.5538 49.0823 29.4138C49.2224 29.2737 49.3011 29.0837 49.3011 28.8856V27.3916C49.3011 27.1935 49.2224 27.0035 49.0823 26.8634C48.9422 26.7233 48.7522 26.6446 48.5541 26.6446C48.356 26.6446 48.166 26.7233 48.0259 26.8634C47.8858 27.0035 47.8071 27.1935 47.8071 27.3916ZM47.8071 22.9097V24.4036C47.8071 24.6017 47.8858 24.7917 48.0259 24.9318C48.166 25.0719 48.356 25.1506 48.5541 25.1506C48.7522 25.1506 48.9422 25.0719 49.0823 24.9318C49.2224 24.7917 49.3011 24.6017 49.3011 24.4036V22.9097C49.3011 22.7115 49.2224 22.5215 49.0823 22.3815C48.9422 22.2414 48.7522 22.1627 48.5541 22.1627C48.356 22.1627 48.166 22.2414 48.0259 22.3815C47.8858 22.5215 47.8071 22.7115 47.8071 22.9097ZM47.8071 18.4277V19.9217C47.8071 20.1198 47.8858 20.3098 48.0259 20.4499C48.166 20.59 48.356 20.6687 48.5541 20.6687C48.7522 20.6687 48.9422 20.59 49.0823 20.4499C49.2224 20.3098 49.3011 20.1198 49.3011 19.9217V18.4277C49.3011 18.2296 49.2224 18.0396 49.0823 17.8995C48.9422 17.7594 48.7522 17.6807 48.5541 17.6807C48.356 17.6807 48.166 17.7594 48.0259 17.8995C47.8858 18.0396 47.8071 18.2296 47.8071 18.4277ZM48.5541 13.9458H47.8071C47.609 13.9458 47.419 14.0245 47.2789 14.1646C47.1388 14.3047 47.0601 14.4947 47.0601 14.6928C47.0601 14.8909 47.1388 15.0809 47.2789 15.221C47.419 15.3611 47.609 15.4398 47.8071 15.4398C47.8071 15.6379 47.8858 15.8279 48.0259 15.968C48.166 16.1081 48.356 16.1868 48.5541 16.1868C48.7522 16.1868 48.9422 16.1081 49.0823 15.968C49.2224 15.8279 49.3011 15.6379 49.3011 15.4398V14.6928C49.3011 14.4947 49.2224 14.3047 49.0823 14.1646C48.9422 14.0245 48.7522 13.9458 48.5541 13.9458ZM47.8071 36.3554V37.8494C47.8071 38.0475 47.8858 38.2375 48.0259 38.3776C48.166 38.5177 48.356 38.5964 48.5541 38.5964C48.7522 38.5964 48.9422 38.5177 49.0823 38.3776C49.2224 38.2375 49.3011 38.0475 49.3011 37.8494V36.3554C49.3011 36.1573 49.2224 35.9673 49.0823 35.8272C48.9422 35.6872 48.7522 35.6085 48.5541 35.6085C48.356 35.6085 48.166 35.6872 48.0259 35.8272C47.8858 35.9673 47.8071 36.1573 47.8071 36.3554ZM47.8071 40.8374V42.3313C47.8071 42.5295 47.8858 42.7195 48.0259 42.8595C48.166 42.9996 48.356 43.0783 48.5541 43.0783C48.7522 43.0783 48.9422 42.9996 49.0823 42.8595C49.2224 42.7195 49.3011 42.5295 49.3011 42.3313V40.8374C49.3011 40.6393 49.2224 40.4493 49.0823 40.3092C48.9422 40.1691 48.7522 40.0904 48.5541 40.0904C48.356 40.0904 48.166 40.1691 48.0259 40.3092C47.8858 40.4493 47.8071 40.6393 47.8071 40.8374ZM25.3975 15.4398H26.8914C27.0895 15.4398 27.2795 15.3611 27.4196 15.221C27.5597 15.0809 27.6384 14.8909 27.6384 14.6928C27.6384 14.4947 27.5597 14.3047 27.4196 14.1646C27.2795 14.0245 27.0895 13.9458 26.8914 13.9458H25.3975C25.1993 13.9458 25.0093 14.0245 24.8693 14.1646C24.7292 14.3047 24.6505 14.4947 24.6505 14.6928C24.6505 14.8909 24.7292 15.0809 24.8693 15.221C25.0093 15.3611 25.1993 15.4398 25.3975 15.4398ZM20.9155 15.4398H22.4095C22.6076 15.4398 22.7976 15.3611 22.9377 15.221C23.0778 15.0809 23.1565 14.8909 23.1565 14.6928C23.1565 14.4947 23.0778 14.3047 22.9377 14.1646C22.7976 14.0245 22.6076 13.9458 22.4095 13.9458H20.9155C20.7174 13.9458 20.5274 14.0245 20.3873 14.1646C20.2472 14.3047 20.1685 14.4947 20.1685 14.6928C20.1685 14.8909 20.2472 15.0809 20.3873 15.221C20.5274 15.3611 20.7174 15.4398 20.9155 15.4398Z" fill="black"/>
<path d="M20.1685 34.8615H18.6746C18.4764 34.8615 18.2865 34.9402 18.1464 35.0802C18.0063 35.2203 17.9276 35.4103 17.9276 35.6085C17.9276 35.8066 18.0063 35.9966 18.1464 36.1367C18.2865 36.2767 18.4764 36.3554 18.6746 36.3554H20.1685C20.3667 36.3554 20.5567 36.2767 20.6967 36.1367C20.8368 35.9966 20.9155 35.8066 20.9155 35.6085C20.9155 35.4103 20.8368 35.2203 20.6967 35.0802C20.5567 34.9402 20.3667 34.8615 20.1685 34.8615ZM20.1685 43.8253H18.6746C18.4764 43.8253 18.2865 43.904 18.1464 44.0441C18.0063 44.1842 17.9276 44.3742 17.9276 44.5723C17.9276 44.7704 18.0063 44.9604 18.1464 45.1005C18.2865 45.2406 18.4764 45.3193 18.6746 45.3193H20.1685C20.3667 45.3193 20.5567 45.2406 20.6967 45.1005C20.8368 44.9604 20.9155 44.7704 20.9155 44.5723C20.9155 44.3742 20.8368 44.1842 20.6967 44.0441C20.5567 43.904 20.3667 43.8253 20.1685 43.8253ZM32.1203 34.8615C31.9222 34.8615 31.7322 34.9402 31.5921 35.0802C31.4521 35.2203 31.3734 35.4103 31.3734 35.6085C31.3734 35.8066 31.4521 35.9966 31.5921 36.1367C31.7322 36.2767 31.9222 36.3554 32.1203 36.3554C32.3185 36.3554 32.5085 36.2767 32.6485 36.1367C32.7886 35.9966 32.8673 35.8066 32.8673 35.6085C32.8673 35.4103 32.7886 35.2203 32.6485 35.0802C32.5085 34.9402 32.3185 34.8615 32.1203 34.8615ZM32.1203 43.8253C31.9222 43.8253 31.7322 43.904 31.5921 44.0441C31.4521 44.1842 31.3734 44.3742 31.3734 44.5723C31.3734 44.7704 31.4521 44.9604 31.5921 45.1005C31.7322 45.2406 31.9222 45.3193 32.1203 45.3193C32.3185 45.3193 32.5085 45.2406 32.6485 45.1005C32.7886 44.9604 32.8673 44.7704 32.8673 44.5723C32.8673 44.3742 32.7886 44.1842 32.6485 44.0441C32.5085 43.904 32.3185 43.8253 32.1203 43.8253ZM14.9396 29.6325C14.9396 29.8307 15.0183 30.0207 15.1584 30.1607C15.2985 30.3008 15.4885 30.3795 15.6866 30.3795H18.6746C18.8727 30.3795 19.0627 30.3008 19.2028 30.1607C19.3429 30.0207 19.4216 29.8307 19.4216 29.6325V19.1747C19.922 19.1747 20.5794 19.3017 20.8408 18.7489C21.1023 18.1962 20.9753 18.241 17.7632 14.267C17.6932 14.1798 17.6046 14.1094 17.5037 14.061C17.4029 14.0126 17.2924 13.9875 17.1806 13.9875C17.0687 13.9875 16.9583 14.0126 16.8575 14.061C16.7566 14.1094 16.6679 14.1798 16.5979 14.267L13.61 18.0019C13.5336 18.1118 13.4881 18.2402 13.4783 18.3737C13.4685 18.5072 13.4948 18.6409 13.5543 18.7607C13.6139 18.8806 13.7045 18.9822 13.8168 19.0551C13.9291 19.1279 14.0589 19.1692 14.1926 19.1747H14.9396V29.6325ZM17.1806 15.888L18.6148 17.6807C18.4272 17.6958 18.2522 17.7811 18.1248 17.9196C17.9974 18.0581 17.927 18.2395 17.9276 18.4277V28.8856H16.4336V18.4277C16.4342 18.2395 16.3638 18.0581 16.2363 17.9196C16.1089 17.7811 15.934 17.6958 15.7464 17.6807L17.1806 15.888ZM45.2897 42.4957C45.18 42.4066 45.0472 42.3505 44.9068 42.334C44.7664 42.3174 44.6242 42.341 44.4967 42.402C44.3692 42.463 44.2616 42.5589 44.1865 42.6787C44.1113 42.7984 44.0717 42.937 44.0722 43.0783V43.8253H38.0963C37.8981 43.8253 37.7081 43.904 37.5681 44.0441C37.428 44.1842 37.3493 44.3742 37.3493 44.5723V47.5603C37.3493 47.7584 37.428 47.9484 37.5681 48.0885C37.7081 48.2285 37.8981 48.3072 38.0963 48.3072H44.0722C44.0722 48.8227 43.9452 49.4651 44.4979 49.7265C44.6249 49.7878 44.7667 49.812 44.9068 49.7961C45.0469 49.7802 45.1797 49.725 45.2897 49.6369C49.3459 46.3875 49.3011 46.5518 49.3011 46.0663C49.3011 45.5807 49.3907 45.7824 45.2897 42.4957ZM45.5661 47.5005C45.5511 47.3129 45.4658 47.1379 45.3273 47.0105C45.1888 46.8831 45.0073 46.8127 44.8191 46.8133H38.8432V45.3193H44.8191C45.0073 45.3199 45.1888 45.2495 45.3273 45.122C45.4658 44.9946 45.5511 44.8196 45.5661 44.6321L47.3589 46.0663L45.5661 47.5005ZM21.6625 22.1627C21.4644 22.1627 21.2744 22.2414 21.1343 22.3815C20.9942 22.5215 20.9155 22.7115 20.9155 22.9097C20.9155 23.1078 20.9942 23.2978 21.1343 23.4379C21.2744 23.5779 21.4644 23.6566 21.6625 23.6566H23.1565C23.3546 23.6566 23.5446 23.5779 23.6847 23.4379C23.8248 23.2978 23.9035 23.1078 23.9035 22.9097C23.9035 22.7115 23.8248 22.5215 23.6847 22.3815C23.5446 22.2414 23.3546 22.1627 23.1565 22.1627H21.6625ZM26.1444 22.1627C25.9463 22.1627 25.7563 22.2414 25.6162 22.3815C25.4762 22.5215 25.3975 22.7115 25.3975 22.9097C25.3975 23.1078 25.4762 23.2978 25.6162 23.4379C25.7563 23.5779 25.9463 23.6566 26.1444 23.6566H27.6384C27.8365 23.6566 28.0265 23.5779 28.1666 23.4379C28.3067 23.2978 28.3854 23.1078 28.3854 22.9097C28.3854 22.7115 28.3067 22.5215 28.1666 22.3815C28.0265 22.2414 27.8365 22.1627 27.6384 22.1627H26.1444ZM30.6264 22.1627C30.4283 22.1627 30.2383 22.2414 30.0982 22.3815C29.9581 22.5215 29.8794 22.7115 29.8794 22.9097C29.8794 23.1078 29.9581 23.2978 30.0982 23.4379C30.2383 23.5779 30.4283 23.6566 30.6264 23.6566H32.1203C32.3185 23.6566 32.5085 23.5779 32.6485 23.4379C32.7886 23.2978 32.8673 23.1078 32.8673 22.9097C32.8673 22.7115 32.7886 22.5215 32.6485 22.3815C32.5085 22.2414 32.3185 22.1627 32.1203 22.1627H30.6264ZM36.6023 22.1627H35.1083C34.9102 22.1627 34.7202 22.2414 34.5801 22.3815C34.44 22.5215 34.3613 22.7115 34.3613 22.9097C34.3613 23.1078 34.44 23.2978 34.5801 23.4379C34.7202 23.5779 34.9102 23.6566 35.1083 23.6566H36.6023C36.8004 23.6566 36.9904 23.5779 37.1305 23.4379C37.2706 23.2978 37.3493 23.1078 37.3493 22.9097C37.3493 22.7115 37.2706 22.5215 37.1305 22.3815C36.9904 22.2414 36.8004 22.1627 36.6023 22.1627ZM39.5902 40.0904V41.5844C39.5902 41.7825 39.6689 41.9725 39.809 42.1126C39.9491 42.2526 40.1391 42.3313 40.3372 42.3313C40.5353 42.3313 40.7253 42.2526 40.8654 42.1126C41.0055 41.9725 41.0842 41.7825 41.0842 41.5844V40.0904C41.0842 39.8923 41.0055 39.7023 40.8654 39.5622C40.7253 39.4221 40.5353 39.3434 40.3372 39.3434C40.1391 39.3434 39.9491 39.4221 39.809 39.5622C39.6689 39.7023 39.5902 39.8923 39.5902 40.0904ZM41.0842 35.6085C41.0842 35.4103 41.0055 35.2203 40.8654 35.0802C40.7253 34.9402 40.5353 34.8615 40.3372 34.8615C40.1391 34.8615 39.9491 34.9402 39.809 35.0802C39.6689 35.2203 39.5902 35.4103 39.5902 35.6085V37.1024C39.5902 37.3005 39.6689 37.4905 39.809 37.6306C39.9491 37.7707 40.1391 37.8494 40.3372 37.8494C40.5353 37.8494 40.7253 37.7707 40.8654 37.6306C41.0055 37.4905 41.0842 37.3005 41.0842 37.1024V35.6085ZM41.0842 31.1265C41.0842 30.9284 41.0055 30.7384 40.8654 30.5983C40.7253 30.4582 40.5353 30.3795 40.3372 30.3795C40.1391 30.3795 39.9491 30.4582 39.809 30.5983C39.6689 30.7384 39.5902 30.9284 39.5902 31.1265V32.6205C39.5902 32.8186 39.6689 33.0086 39.809 33.1487C39.9491 33.2888 40.1391 33.3675 40.3372 33.3675C40.5353 33.3675 40.7253 33.2888 40.8654 33.1487C41.0055 33.0086 41.0842 32.8186 41.0842 32.6205V31.1265ZM41.0842 26.6446C41.0842 26.4465 41.0055 26.2565 40.8654 26.1164C40.7253 25.9763 40.5353 25.8976 40.3372 25.8976C40.1391 25.8976 39.9491 25.9763 39.809 26.1164C39.6689 26.2565 39.5902 26.4465 39.5902 26.6446V28.1386C39.5902 28.3367 39.6689 28.5267 39.809 28.6668C39.9491 28.8069 40.1391 28.8856 40.3372 28.8856C40.5353 28.8856 40.7253 28.8069 40.8654 28.6668C41.0055 28.5267 41.0842 28.3367 41.0842 28.1386V26.6446ZM41.0842 22.9097C41.0842 22.7115 41.0055 22.5215 40.8654 22.3815C40.7253 22.2414 40.5353 22.1627 40.3372 22.1627H39.5902C39.3921 22.1627 39.2021 22.2414 39.062 22.3815C38.9219 22.5215 38.8432 22.7115 38.8432 22.9097C38.8432 23.1078 38.9219 23.2978 39.062 23.4379C39.2021 23.5779 39.3921 23.6566 39.5902 23.6566C39.5902 23.8548 39.6689 24.0448 39.809 24.1848C39.9491 24.3249 40.1391 24.4036 40.3372 24.4036C40.5353 24.4036 40.7253 24.3249 40.8654 24.1848C41.0055 24.0448 41.0842 23.8548 41.0842 23.6566V22.9097ZM29.8794 15.4398H31.3734C31.5715 15.4398 31.7615 15.3611 31.9016 15.221C32.0416 15.0809 32.1203 14.8909 32.1203 14.6928C32.1203 14.4947 32.0416 14.3047 31.9016 14.1646C31.7615 14.0245 31.5715 13.9458 31.3734 13.9458H29.8794C29.6813 13.9458 29.4913 14.0245 29.3512 14.1646C29.2111 14.3047 29.1324 14.4947 29.1324 14.6928C29.1324 14.8909 29.2111 15.0809 29.3512 15.221C29.4913 15.3611 29.6813 15.4398 29.8794 15.4398ZM34.3613 15.4398H35.8553C36.0534 15.4398 36.2434 15.3611 36.3835 15.221C36.5236 15.0809 36.6023 14.8909 36.6023 14.6928C36.6023 14.4947 36.5236 14.3047 36.3835 14.1646C36.2434 14.0245 36.0534 13.9458 35.8553 13.9458H34.3613C34.1632 13.9458 33.9732 14.0245 33.8331 14.1646C33.693 14.3047 33.6143 14.4947 33.6143 14.6928C33.6143 14.8909 33.693 15.0809 33.8331 15.221C33.9732 15.3611 34.1632 15.4398 34.3613 15.4398ZM38.8432 15.4398H40.3372C40.5353 15.4398 40.7253 15.3611 40.8654 15.221C41.0055 15.0809 41.0842 14.8909 41.0842 14.6928C41.0842 14.4947 41.0055 14.3047 40.8654 14.1646C40.7253 14.0245 40.5353 13.9458 40.3372 13.9458H38.8432C38.6451 13.9458 38.4551 14.0245 38.315 14.1646C38.1749 14.3047 38.0963 14.4947 38.0963 14.6928C38.0963 14.8909 38.1749 15.0809 38.315 15.221C38.4551 15.3611 38.6451 15.4398 38.8432 15.4398ZM43.3252 15.4398H44.8191C45.0173 15.4398 45.2073 15.3611 45.3473 15.221C45.4874 15.0809 45.5661 14.8909 45.5661 14.6928C45.5661 14.4947 45.4874 14.3047 45.3473 14.1646C45.2073 14.0245 45.0173 13.9458 44.8191 13.9458H43.3252C43.1271 13.9458 42.9371 14.0245 42.797 14.1646C42.6569 14.3047 42.5782 14.4947 42.5782 14.6928C42.5782 14.8909 42.6569 15.0809 42.797 15.221C42.9371 15.3611 43.1271 15.4398 43.3252 15.4398ZM47.8071 31.8735V33.3675C47.8071 33.5656 47.8858 33.7556 48.0259 33.8957C48.166 34.0358 48.356 34.1145 48.5541 34.1145C48.7522 34.1145 48.9422 34.0358 49.0823 33.8957C49.2224 33.7556 49.3011 33.5656 49.3011 33.3675V31.8735C49.3011 31.6754 49.2224 31.4854 49.0823 31.3453C48.9422 31.2052 48.7522 31.1265 48.5541 31.1265C48.356 31.1265 48.166 31.2052 48.0259 31.3453C47.8858 31.4854 47.8071 31.6754 47.8071 31.8735ZM47.8071 27.3916V28.8856C47.8071 29.0837 47.8858 29.2737 48.0259 29.4138C48.166 29.5538 48.356 29.6325 48.5541 29.6325C48.7522 29.6325 48.9422 29.5538 49.0823 29.4138C49.2224 29.2737 49.3011 29.0837 49.3011 28.8856V27.3916C49.3011 27.1935 49.2224 27.0035 49.0823 26.8634C48.9422 26.7233 48.7522 26.6446 48.5541 26.6446C48.356 26.6446 48.166 26.7233 48.0259 26.8634C47.8858 27.0035 47.8071 27.1935 47.8071 27.3916ZM47.8071 22.9097V24.4036C47.8071 24.6017 47.8858 24.7917 48.0259 24.9318C48.166 25.0719 48.356 25.1506 48.5541 25.1506C48.7522 25.1506 48.9422 25.0719 49.0823 24.9318C49.2224 24.7917 49.3011 24.6017 49.3011 24.4036V22.9097C49.3011 22.7115 49.2224 22.5215 49.0823 22.3815C48.9422 22.2414 48.7522 22.1627 48.5541 22.1627C48.356 22.1627 48.166 22.2414 48.0259 22.3815C47.8858 22.5215 47.8071 22.7115 47.8071 22.9097ZM47.8071 18.4277V19.9217C47.8071 20.1198 47.8858 20.3098 48.0259 20.4499C48.166 20.59 48.356 20.6687 48.5541 20.6687C48.7522 20.6687 48.9422 20.59 49.0823 20.4499C49.2224 20.3098 49.3011 20.1198 49.3011 19.9217V18.4277C49.3011 18.2296 49.2224 18.0396 49.0823 17.8995C48.9422 17.7594 48.7522 17.6807 48.5541 17.6807C48.356 17.6807 48.166 17.7594 48.0259 17.8995C47.8858 18.0396 47.8071 18.2296 47.8071 18.4277ZM48.5541 13.9458H47.8071C47.609 13.9458 47.419 14.0245 47.2789 14.1646C47.1388 14.3047 47.0601 14.4947 47.0601 14.6928C47.0601 14.8909 47.1388 15.0809 47.2789 15.221C47.419 15.3611 47.609 15.4398 47.8071 15.4398C47.8071 15.6379 47.8858 15.8279 48.0259 15.968C48.166 16.1081 48.356 16.1868 48.5541 16.1868C48.7522 16.1868 48.9422 16.1081 49.0823 15.968C49.2224 15.8279 49.3011 15.6379 49.3011 15.4398V14.6928C49.3011 14.4947 49.2224 14.3047 49.0823 14.1646C48.9422 14.0245 48.7522 13.9458 48.5541 13.9458ZM47.8071 36.3554V37.8494C47.8071 38.0475 47.8858 38.2375 48.0259 38.3776C48.166 38.5177 48.356 38.5964 48.5541 38.5964C48.7522 38.5964 48.9422 38.5177 49.0823 38.3776C49.2224 38.2375 49.3011 38.0475 49.3011 37.8494V36.3554C49.3011 36.1573 49.2224 35.9673 49.0823 35.8272C48.9422 35.6872 48.7522 35.6085 48.5541 35.6085C48.356 35.6085 48.166 35.6872 48.0259 35.8272C47.8858 35.9673 47.8071 36.1573 47.8071 36.3554ZM47.8071 40.8374V42.3313C47.8071 42.5295 47.8858 42.7195 48.0259 42.8595C48.166 42.9996 48.356 43.0783 48.5541 43.0783C48.7522 43.0783 48.9422 42.9996 49.0823 42.8595C49.2224 42.7195 49.3011 42.5295 49.3011 42.3313V40.8374C49.3011 40.6393 49.2224 40.4493 49.0823 40.3092C48.9422 40.1691 48.7522 40.0904 48.5541 40.0904C48.356 40.0904 48.166 40.1691 48.0259 40.3092C47.8858 40.4493 47.8071 40.6393 47.8071 40.8374ZM25.3975 15.4398H26.8914C27.0895 15.4398 27.2795 15.3611 27.4196 15.221C27.5597 15.0809 27.6384 14.8909 27.6384 14.6928C27.6384 14.4947 27.5597 14.3047 27.4196 14.1646C27.2795 14.0245 27.0895 13.9458 26.8914 13.9458H25.3975C25.1993 13.9458 25.0093 14.0245 24.8693 14.1646C24.7292 14.3047 24.6505 14.4947 24.6505 14.6928C24.6505 14.8909 24.7292 15.0809 24.8693 15.221C25.0093 15.3611 25.1993 15.4398 25.3975 15.4398ZM20.9155 15.4398H22.4095C22.6076 15.4398 22.7976 15.3611 22.9377 15.221C23.0778 15.0809 23.1565 14.8909 23.1565 14.6928C23.1565 14.4947 23.0778 14.3047 22.9377 14.1646C22.7976 14.0245 22.6076 13.9458 22.4095 13.9458H20.9155C20.7174 13.9458 20.5274 14.0245 20.3873 14.1646C20.2472 14.3047 20.1685 14.4947 20.1685 14.6928C20.1685 14.8909 20.2472 15.0809 20.3873 15.221C20.5274 15.3611 20.7174 15.4398 20.9155 15.4398Z" fill="url(#paint1_linear_80_15319)"/>
<circle cx="31" cy="31.5" r="30.38" stroke="url(#paint2_linear_80_15319)" stroke-width="1.24"/>
<defs>
<linearGradient id="paint0_linear_80_15319" x1="25.3975" y1="31.8735" x2="25.3975" y2="48.3073" gradientUnits="userSpaceOnUse">
<stop stop-color="#00A3FF"/>
<stop offset="1" stop-color="#39FF14"/>
</linearGradient>
<linearGradient id="paint1_linear_80_15319" x1="31.3888" y1="13.9458" x2="31.3888" y2="49.8008" gradientUnits="userSpaceOnUse">
<stop stop-color="#00A3FF"/>
<stop offset="1" stop-color="#39FF14"/>
</linearGradient>
<linearGradient id="paint2_linear_80_15319" x1="31" y1="0.5" x2="31" y2="62.5" gradientUnits="userSpaceOnUse">
<stop stop-color="#00A3FF"/>
<stop offset="1" stop-color="#39FF14"/>
</linearGradient>
</defs>
</svg>
