<svg width="42" height="42" viewBox="0 0 42 42" fill="none" xmlns="http://www.w3.org/2000/svg">
<circle cx="21" cy="21" r="20.6667" stroke="white" stroke-width="0.666667"/>
<path d="M17.1125 23.1007V23.0851H17.0969H14.9231C14.3093 23.0851 13.8101 22.5856 13.8101 21.972V18.3709C13.8101 17.7571 14.3093 17.2579 14.9231 17.2579H17.0969H17.1125V17.2422V15.4389C17.1125 13.6541 17.6728 12.137 18.7315 11.0507C19.795 9.9595 21.2817 9.38226 23.032 9.38226L25.8735 9.3869C26.4862 9.38793 26.9846 9.88722 26.9846 10.4998V13.8435C26.9846 14.4572 26.4855 14.9565 25.8719 14.9565L23.9587 14.9572C23.3743 14.9572 23.2196 15.0741 23.1832 15.1152L23.1831 15.1153C23.1544 15.148 23.125 15.208 23.1026 15.3166C23.0802 15.4255 23.0646 15.5847 23.0646 15.8174V17.2421V17.2577H23.0802H25.7282C25.9249 17.2577 26.1154 17.3063 26.279 17.3975C26.6321 17.5949 26.8516 17.9679 26.8516 18.371L26.8502 21.9722C26.8502 22.5856 26.3509 23.0849 25.7372 23.0849H23.0802H23.0646V23.1005V31.5048C23.0646 32.1185 22.5652 32.6177 21.9514 32.6177H18.2255C17.6118 32.6177 17.1125 32.1185 17.1125 31.5048V23.1007ZM18.4452 31.2694V31.285H18.4608H21.716H21.7317V31.2694V22.4901C21.7317 22.0832 22.0628 21.7522 22.4696 21.7522H25.5018H25.5174L25.5175 21.7365L25.5187 18.6063L25.5187 18.5907H25.5031H22.4694C22.0627 18.5907 21.7317 18.2597 21.7317 17.8528V15.8174C21.7317 15.2849 21.786 14.6842 22.1841 14.2334C22.6652 13.6884 23.4245 13.6245 23.9584 13.6245L25.6362 13.6238L25.6518 13.6238V13.6081V10.7349V10.7193L25.6362 10.7193L23.0309 10.715H23.0309C21.6182 10.715 20.4714 11.1673 19.6777 11.9849C18.8841 12.8025 18.4452 13.9838 18.4452 15.4389V17.8527C18.4452 18.2594 18.1142 18.5906 17.7075 18.5906H15.1584H15.1428V18.6063V21.7365V21.7521H15.1584H17.7075C18.1142 21.7521 18.4452 22.0831 18.4452 22.49L18.4452 31.2694Z" fill="white" stroke="white" stroke-width="0.03125"/>
</svg>
