<svg width="61" height="61" viewBox="0 0 61 61" fill="none" xmlns="http://www.w3.org/2000/svg">
<g clip-path="url(#clip0_80_15317)">
<path d="M33.2177 36.5092H27.4003C26.9374 36.5092 26.4935 36.3253 26.1662 35.998C25.8389 35.6707 25.6551 35.2268 25.6551 34.764V29.5283C25.6551 29.0655 25.8389 28.6216 26.1662 28.2943C26.4935 27.967 26.9374 27.7831 27.4003 27.7831V26.6196C27.4003 25.8482 27.7067 25.1084 28.2522 24.5629C28.7977 24.0174 29.5375 23.7109 30.309 23.7109C31.0804 23.7109 31.8202 24.0174 32.3657 24.5629C32.9112 25.1084 33.2177 25.8482 33.2177 26.6196V27.7831C33.6805 27.7831 34.1244 27.967 34.4517 28.2943C34.779 28.6216 34.9629 29.0655 34.9629 29.5283V34.764C34.9629 35.2268 34.779 35.6707 34.4517 35.998C34.1244 36.3253 33.6805 36.5092 33.2177 36.5092ZM32.0542 26.6196C32.0542 26.1568 31.8703 25.7129 31.543 25.3856C31.2157 25.0583 30.7718 24.8744 30.309 24.8744C29.8461 24.8744 29.4022 25.0583 29.0749 25.3856C28.7476 25.7129 28.5638 26.1568 28.5638 26.6196V27.7831H32.0542V26.6196ZM33.7994 29.5283C33.7994 29.374 33.7381 29.2261 33.629 29.117C33.5199 29.0079 33.372 28.9466 33.2177 28.9466H27.4003C27.246 28.9466 27.098 29.0079 26.9889 29.117C26.8798 29.2261 26.8185 29.374 26.8185 29.5283V34.764C26.8185 34.9183 26.8798 35.0662 26.9889 35.1753C27.098 35.2844 27.246 35.3457 27.4003 35.3457H33.2177C33.372 35.3457 33.5199 35.2844 33.629 35.1753C33.7381 35.0662 33.7994 34.9183 33.7994 34.764V29.5283Z" fill="url(#paint0_linear_80_15317)"/>
<path d="M30.8907 33.4934V33.6004C30.8907 33.7547 30.8294 33.9027 30.7203 34.0118C30.6112 34.1209 30.4633 34.1822 30.309 34.1822C30.1547 34.1822 30.0067 34.1209 29.8976 34.0118C29.7885 33.9027 29.7272 33.7547 29.7272 33.6004V33.4934C29.3391 33.3562 29.012 33.0862 28.8037 32.7311C28.5953 32.376 28.5193 31.9586 28.5889 31.5529C28.6585 31.1471 28.8693 30.779 29.1841 30.5137C29.4989 30.2483 29.8973 30.1028 30.309 30.1028C30.7207 30.1028 31.1191 30.2483 31.4339 30.5137C31.7486 30.779 31.9594 31.1471 32.0291 31.5529C32.0987 31.9586 32.0226 32.376 31.8143 32.7311C31.606 33.0862 31.2789 33.3562 30.8907 33.4934ZM30.309 31.2735C30.1547 31.2735 30.0067 31.3348 29.8976 31.4439C29.7885 31.553 29.7272 31.7009 29.7272 31.8552C29.7272 32.0095 29.7885 32.1575 29.8976 32.2666C30.0067 32.3757 30.1547 32.437 30.309 32.437C30.4633 32.437 30.6112 32.3757 30.7203 32.2666C30.8294 32.1575 30.8907 32.0095 30.8907 31.8552C30.8907 31.7009 30.8294 31.553 30.7203 31.4439C30.6112 31.3348 30.4633 31.2735 30.309 31.2735Z" fill="url(#paint1_linear_80_15317)"/>
<path d="M40.1987 30.6918C40.1987 36.1538 35.7711 40.5814 30.3091 40.5814C24.8472 40.5814 20.4196 36.1538 20.4196 30.6918C20.4196 25.2299 24.8472 20.8022 30.3091 20.8022C35.7687 20.8081 40.1929 25.2322 40.1987 30.6918ZM30.3091 21.9657C25.49 21.9657 21.583 25.8727 21.583 30.6918C21.583 35.5109 25.49 39.4179 30.3091 39.4179C35.1283 39.4179 39.0352 35.5109 39.0352 30.6918C39.0294 25.875 35.1259 21.9715 30.3091 21.9657ZM18.6743 43.4901C19.1887 43.492 19.688 43.6643 20.094 43.9801C20.5001 44.2958 20.7901 44.7372 20.9187 45.2353H25.0735V41.7187C23.7728 41.1064 22.591 40.2683 21.583 39.2434C21.5283 39.1891 21.4849 39.1245 21.4553 39.0533C21.4257 38.9821 21.4106 38.9057 21.4108 38.8286C21.4111 38.7515 21.4266 38.6753 21.4565 38.6042C21.4865 38.5332 21.5303 38.4688 21.5853 38.4148C21.6404 38.3609 21.7056 38.3184 21.7772 38.2898C21.8488 38.2613 21.9254 38.2473 22.0025 38.2486C22.0796 38.2499 22.1556 38.2665 22.2262 38.2975C22.2968 38.3284 22.3606 38.3731 22.4138 38.4289C23.4015 39.4388 24.574 40.2495 25.8675 40.817C25.9457 40.848 26.016 40.8959 26.0735 40.9572C26.0799 40.9642 26.0834 40.9735 26.0898 40.9816C26.1323 41.0289 26.1667 41.083 26.1916 41.1416C26.203 41.1781 26.2106 41.2158 26.2143 41.2539C26.2251 41.2868 26.2327 41.3207 26.2369 41.3551V45.2353C26.2369 45.5439 26.1144 45.8398 25.8962 46.058C25.678 46.2762 25.382 46.3988 25.0735 46.3988H20.9187C20.8091 46.8191 20.5839 47.2003 20.2686 47.4991C19.9533 47.7979 19.5605 48.0023 19.1349 48.089C18.7093 48.1758 18.2679 48.1415 17.8608 47.99C17.4536 47.8385 17.0972 47.5759 16.8318 47.232C16.5665 46.8881 16.4028 46.4767 16.3596 46.0444C16.3163 45.6122 16.3951 45.1765 16.5869 44.7868C16.7788 44.3971 17.0761 44.069 17.4451 43.8398C17.8141 43.6106 18.24 43.4894 18.6743 43.4901ZM18.6743 46.9805C18.9829 46.9805 19.2788 46.8579 19.497 46.6397C19.7152 46.4215 19.8378 46.1256 19.8378 45.817C19.8378 45.5085 19.7152 45.2125 19.497 44.9943C19.2788 44.7761 18.9829 44.6536 18.6743 44.6536C18.3658 44.6536 18.0698 44.7761 17.8516 44.9943C17.6334 45.2125 17.5109 45.5085 17.5109 45.817C17.5109 46.1256 17.6334 46.4215 17.8516 46.6397C18.0698 46.8579 18.3658 46.9805 18.6743 46.9805ZM43.19 37.0909H40.379C40.3744 37.0909 40.3703 37.088 40.3651 37.088C40.3072 37.0854 40.2501 37.0739 40.1958 37.0537C40.1686 37.0448 40.1422 37.0339 40.1167 37.0211C40.1103 37.0177 40.1027 37.0165 40.0963 37.0124C40.0899 37.0083 40.08 36.9961 40.0707 36.9897C40.0179 36.9572 39.9711 36.9159 39.9323 36.8676C39.9254 36.8586 39.919 36.8493 39.9131 36.8396C39.8754 36.7867 39.8471 36.7276 39.8293 36.6651C39.8293 36.6564 39.8258 36.6477 39.8241 36.6389C39.81 36.5969 39.801 36.5534 39.7973 36.5092C39.8003 36.4872 39.8048 36.4655 39.8107 36.4441C39.8107 36.4365 39.8107 36.4295 39.8147 36.4214C39.8246 36.3531 39.8469 36.2873 39.8805 36.2271L39.8834 36.2178C40.4799 35.1881 40.9047 34.0681 41.1411 32.9018C41.1564 32.827 41.1863 32.7559 41.229 32.6925C41.2718 32.6292 41.3266 32.5749 41.3904 32.5328C41.4541 32.4907 41.5255 32.4615 41.6005 32.447C41.6756 32.4324 41.7527 32.4328 41.8276 32.4481C41.9024 32.4634 41.9736 32.4932 42.0369 32.536C42.1002 32.5788 42.1545 32.6336 42.1966 32.6973C42.2387 32.7611 42.2679 32.8325 42.2824 32.9075C42.297 32.9825 42.2966 33.0597 42.2813 33.1345C42.0859 34.0996 41.7729 35.0368 41.3505 35.9269H43.19C43.3316 35.3785 43.6683 34.9006 44.1371 34.5827C44.6058 34.2648 45.1744 34.1289 45.7363 34.2002C46.2981 34.2716 46.8147 34.5454 47.1891 34.9704C47.5635 35.3953 47.77 35.9423 47.77 36.5086C47.77 37.075 47.5635 37.6219 47.1891 38.0469C46.8147 38.4718 46.2981 38.7457 45.7363 38.817C45.1744 38.8884 44.6058 38.7524 44.1371 38.4345C43.6683 38.1167 43.3316 37.6393 43.19 37.0909ZM45.4343 37.6727C45.7429 37.6727 46.0389 37.5501 46.257 37.3319C46.4752 37.1137 46.5978 36.8178 46.5978 36.5092C46.5978 36.2006 46.4752 35.9047 46.257 35.6865C46.0389 35.4683 45.7429 35.3457 45.4343 35.3457C45.1258 35.3457 44.8298 35.4683 44.6116 35.6865C44.3934 35.9047 44.2709 36.2006 44.2709 36.5092C44.2709 36.8178 44.3934 37.1137 44.6116 37.3319C44.8298 37.5501 45.1258 37.6727 45.4343 37.6727Z" fill="url(#paint2_linear_80_15317)"/>
<path d="M47.7607 24.8743C47.7614 25.4399 47.5557 25.9864 47.1821 26.4111C46.8085 26.8358 46.2927 27.1095 45.7316 27.1809C45.1705 27.2523 44.6026 27.1165 44.1346 26.7989C43.6665 26.4813 43.3304 26.0038 43.1894 25.456H40.3628C40.3052 25.4525 40.2487 25.4409 40.1946 25.4217C40.1691 25.4136 40.1442 25.4034 40.1202 25.3915C40.0892 25.3751 40.0599 25.3556 40.0329 25.3333C39.9838 25.2963 39.9414 25.2512 39.9073 25.2001C39.8997 25.189 39.8898 25.1809 39.8828 25.1692C39.1369 23.8748 38.1359 22.7453 36.9404 21.8492C36.8793 21.8034 36.8278 21.746 36.7889 21.6803C36.7499 21.6145 36.7243 21.5418 36.7135 21.4661C36.7027 21.3905 36.7069 21.3135 36.7259 21.2395C36.7449 21.1655 36.7782 21.0959 36.824 21.0348C36.8699 20.9737 36.9273 20.9222 36.993 20.8833C37.0588 20.8444 37.1315 20.8188 37.2072 20.808C37.2828 20.7972 37.3598 20.8014 37.4338 20.8203C37.5078 20.8393 37.5774 20.8726 37.6385 20.9185C38.8627 21.8407 39.9022 22.9853 40.7025 24.2926H43.1894C43.3304 23.7448 43.6665 23.2673 44.1346 22.9497C44.6026 22.6321 45.1705 22.4963 45.7316 22.5677C46.2927 22.6391 46.8085 22.9128 47.1821 23.3375C47.5557 23.7622 47.7614 24.3087 47.7607 24.8743ZM44.2703 24.8743C44.2703 25.1829 44.3929 25.4788 44.6111 25.697C44.8293 25.9152 45.1252 26.0378 45.4338 26.0378C45.7424 26.0378 46.0383 25.9152 46.2565 25.697C46.4747 25.4788 46.5973 25.1829 46.5973 24.8743C46.5973 24.5657 46.4747 24.2698 46.2565 24.0516C46.0383 23.8334 45.7424 23.7108 45.4338 23.7108C45.1252 23.7108 44.8293 23.8334 44.6111 24.0516C44.3929 24.2698 44.2703 24.5657 44.2703 24.8743ZM15.1833 34.1821C15.6977 34.1841 16.197 34.3564 16.603 34.6721C17.0091 34.9879 17.2991 35.4293 17.4277 35.9273H19.2677C18.8448 35.038 18.5323 34.1002 18.3369 33.135C18.3061 32.9837 18.3366 32.8264 18.4217 32.6976C18.5069 32.5688 18.6397 32.4791 18.791 32.4483C18.9423 32.4174 19.0996 32.4479 19.2284 32.533C19.3572 32.6182 19.4469 32.751 19.4777 32.9023C19.7137 34.0685 20.1381 35.1885 20.7343 36.2182V36.2258C20.7691 36.2873 20.7919 36.3548 20.8018 36.4247C20.8018 36.4311 20.8018 36.4369 20.8058 36.4433C20.8117 36.4649 20.8169 36.487 20.8204 36.5091C20.8169 36.5548 20.8079 36.5999 20.7936 36.6435C20.7768 36.7145 20.7461 36.7815 20.7035 36.8407C20.6976 36.8494 20.693 36.8581 20.6866 36.8663C20.6472 36.9148 20.6 36.9565 20.547 36.9896C20.5377 36.996 20.5318 37.0059 20.522 37.0117C20.5121 37.0175 20.508 37.0169 20.5016 37.0204C20.476 37.0338 20.4492 37.0449 20.4213 37.0536C20.3673 37.0731 20.3106 37.0845 20.2532 37.0873C20.248 37.0873 20.2439 37.0902 20.2386 37.0902H17.4277C17.3182 37.5106 17.0931 37.8919 16.7778 38.1908C16.4626 38.4897 16.0698 38.6941 15.6442 38.781C15.2185 38.8678 14.7771 38.8336 14.3699 38.6822C13.9627 38.5307 13.6062 38.2681 13.3408 37.9242C13.0754 37.5803 12.9117 37.1689 12.8684 36.7366C12.8251 36.3044 12.9039 35.8686 13.0958 35.4789C13.2877 35.0892 13.585 34.7611 13.954 34.5318C14.323 34.3026 14.7489 34.1815 15.1833 34.1821ZM15.1833 37.6726C15.4919 37.6726 15.7878 37.55 16.006 37.3318C16.2242 37.1136 16.3468 36.8177 16.3468 36.5091C16.3468 36.2005 16.2242 35.9046 16.006 35.6864C15.7878 35.4682 15.4919 35.3456 15.1833 35.3456C14.8748 35.3456 14.5788 35.4682 14.3606 35.6864C14.1424 35.9046 14.0199 36.2005 14.0199 36.5091C14.0199 36.8177 14.1424 37.1136 14.3606 37.3318C14.5788 37.55 14.8748 37.6726 15.1833 37.6726ZM34.3807 41.3649V41.355C34.3844 41.3223 34.3909 41.29 34.3999 41.2584C34.404 41.2189 34.412 41.18 34.4238 41.1421C34.4483 41.0844 34.4821 41.0311 34.5238 40.9844C34.5314 40.9757 34.5349 40.9652 34.5425 40.9571C34.6002 40.8957 34.6707 40.8479 34.749 40.8169C36.2717 40.1448 37.6246 39.1402 38.7083 37.8768C38.7573 37.8165 38.8178 37.7666 38.8863 37.7301C38.9549 37.6936 39.03 37.6712 39.1073 37.6642C39.1847 37.6572 39.2626 37.6657 39.3366 37.6893C39.4106 37.7129 39.4791 37.7511 39.5381 37.8016C39.5971 37.852 39.6454 37.9138 39.6801 37.9833C39.7149 38.0527 39.7353 38.1284 39.7404 38.2059C39.7454 38.2834 39.7348 38.3611 39.7093 38.4345C39.6839 38.5078 39.6439 38.5753 39.592 38.633C38.4732 39.9352 37.0944 40.989 35.5442 41.7267V45.2352H39.699C39.8406 44.6868 40.1773 44.2089 40.6461 43.891C41.1148 43.5731 41.6834 43.4371 42.2453 43.5085C42.8071 43.5799 43.3237 43.8537 43.6981 44.2787C44.0725 44.7036 44.279 45.2505 44.279 45.8169C44.279 46.3833 44.0725 46.9302 43.6981 47.3552C43.3237 47.7801 42.8071 48.054 42.2453 48.1253C41.6834 48.1967 41.1148 48.0607 40.6461 47.7428C40.1773 47.4249 39.8406 46.947 39.699 46.3987H35.5442C35.2356 46.3987 34.9397 46.2761 34.7215 46.0579C34.5033 45.8397 34.3807 45.5437 34.3807 45.2352V41.3649ZM41.9433 46.9804C42.2519 46.9804 42.5479 46.8578 42.7661 46.6396C42.9842 46.4214 43.1068 46.1255 43.1068 45.8169C43.1068 45.5083 42.9842 45.2124 42.7661 44.9942C42.5479 44.776 42.2519 44.6534 41.9433 44.6534C41.6348 44.6534 41.3388 44.776 41.1206 44.9942C40.9024 45.2124 40.7799 45.5083 40.7799 45.8169C40.7799 46.1255 40.9024 46.4214 41.1206 46.6396C41.3388 46.8578 41.6348 46.9804 41.9433 46.9804ZM28.0979 41.5237C29.5571 41.8167 31.06 41.8167 32.5192 41.5237C32.5948 41.5063 32.6731 41.5043 32.7495 41.5177C32.8259 41.531 32.8989 41.5595 32.9641 41.6015C33.0293 41.6435 33.0855 41.6981 33.1293 41.7621C33.1731 41.8262 33.2037 41.8983 33.2192 41.9743C33.2347 42.0503 33.2349 42.1287 33.2197 42.2047C33.2045 42.2808 33.1742 42.3531 33.1307 42.4172C33.0871 42.4814 33.0312 42.5363 32.9661 42.5785C32.9011 42.6208 32.8282 42.6496 32.7519 42.6633C32.1375 42.7826 31.5157 42.8553 30.8903 42.8791V47.5621C30.8903 47.7164 30.829 47.8644 30.7199 47.9735C30.6108 48.0826 30.4628 48.1439 30.3086 48.1439C30.1543 48.1439 30.0063 48.0826 29.8972 47.9735C29.7881 47.8644 29.7268 47.7164 29.7268 47.5621V42.8791C29.1017 42.8548 28.4794 42.7827 27.8653 42.6633C27.7172 42.6293 27.5884 42.5389 27.5062 42.4112C27.424 42.2835 27.395 42.1287 27.4253 41.9799C27.4557 41.8311 27.5431 41.7001 27.6688 41.6149C27.7944 41.5296 27.9485 41.4969 28.0979 41.5237ZM35.5442 14.9847H39.699C39.8406 14.4363 40.1773 13.9584 40.6461 13.6406C41.1148 13.3227 41.6834 13.1867 42.2453 13.2581C42.8071 13.3294 43.3237 13.6032 43.6981 14.0282C44.0725 14.4532 44.279 15.0001 44.279 15.5665C44.279 16.1328 44.0725 16.6798 43.6981 17.1047C43.3237 17.5297 42.8071 17.8035 42.2453 17.8749C41.6834 17.9462 41.1148 17.8102 40.6461 17.4924C40.1773 17.1745 39.8406 16.6966 39.699 16.1482H35.5442V20.0296C35.5442 20.0528 35.5332 20.0755 35.5303 20.0988C35.5244 20.1593 35.5087 20.2181 35.4843 20.2733C35.4479 20.3515 35.3935 20.4199 35.3255 20.4729C35.2732 20.5159 35.214 20.5497 35.1504 20.5729C35.1091 20.5863 35.066 20.5944 35.0224 20.5985C35.0033 20.6037 34.9838 20.6078 34.9642 20.6107C34.8809 20.609 34.7989 20.5891 34.724 20.5526C34.0153 20.2453 33.2763 20.0132 32.5192 19.8603C32.3679 19.8294 32.2351 19.7397 32.1499 19.6109C32.0648 19.4822 32.0343 19.3248 32.0651 19.1735C32.096 19.0223 32.1857 18.8894 32.3145 18.8043C32.4432 18.7191 32.6006 18.6886 32.7519 18.7195C33.3045 18.8323 33.849 18.9842 34.3807 19.1732V16.1482C34.3807 15.8396 34.5033 15.5437 34.7215 15.3255C34.9397 15.1073 35.2356 14.9847 35.5442 14.9847ZM41.9433 16.7299C42.2519 16.7299 42.5479 16.6074 42.7661 16.3892C42.9842 16.171 43.1068 15.875 43.1068 15.5665C43.1068 15.2579 42.9842 14.962 42.7661 14.7438C42.5479 14.5256 42.2519 14.403 41.9433 14.403C41.6348 14.403 41.3388 14.5256 41.1206 14.7438C40.9024 14.962 40.7799 15.2579 40.7799 15.5665C40.7799 15.875 40.9024 16.171 41.1206 16.3892C41.3388 16.6074 41.6348 16.7299 41.9433 16.7299ZM20.9181 16.1482C20.7765 16.6966 20.4398 17.1745 19.971 17.4924C19.5023 17.8102 18.9337 17.9462 18.3718 17.8749C17.81 17.8035 17.2935 17.5297 16.9191 17.1047C16.5447 16.6798 16.3381 16.1328 16.3381 15.5665C16.3381 15.0001 16.5447 14.4532 16.9191 14.0282C17.2935 13.6032 17.81 13.3294 18.3718 13.2581C18.9337 13.1867 19.5023 13.3227 19.971 13.6406C20.4398 13.9584 20.7765 14.4363 20.9181 14.9847H25.0729C25.3815 14.9847 25.6774 15.1073 25.8956 15.3255C26.1138 15.5437 26.2364 15.8396 26.2364 16.1482V20.0278C26.2329 20.0621 26.226 20.096 26.216 20.129C26.2125 20.1674 26.2044 20.2047 26.1933 20.2413C26.1683 20.2995 26.134 20.3542 26.0915 20.4013C26.0851 20.4089 26.0816 20.4188 26.0752 20.4257C26.0176 20.4868 25.9473 20.5351 25.8693 20.5659C24.576 21.1326 23.4035 21.9423 22.4155 22.9511C22.3631 23.0093 22.2995 23.0563 22.2285 23.0894C22.1575 23.1224 22.0806 23.1408 22.0023 23.1433C21.924 23.1459 21.8461 23.1327 21.773 23.1044C21.7 23.0761 21.6334 23.0334 21.5773 22.9788C21.5212 22.9241 21.4767 22.8587 21.4465 22.7865C21.4162 22.7143 21.4009 22.6367 21.4014 22.5583C21.4018 22.48 21.4181 22.4026 21.4493 22.3308C21.4804 22.2589 21.5257 22.1941 21.5825 22.1401C22.5905 21.1152 23.7722 20.2771 25.0729 19.6648V16.1482H20.9181ZM18.6738 14.403C18.3652 14.403 18.0693 14.5256 17.8511 14.7438C17.6329 14.962 17.5103 15.2579 17.5103 15.5665C17.5103 15.875 17.6329 16.171 17.8511 16.3892C18.0693 16.6074 18.3652 16.7299 18.6738 16.7299C18.9823 16.7299 19.2783 16.6074 19.4965 16.3892C19.7147 16.171 19.8372 15.875 19.8372 15.5665C19.8372 15.2579 19.7147 14.962 19.4965 14.7438C19.2783 14.5256 18.9823 14.403 18.6738 14.403ZM30.3086 13.2395C30.4628 13.2395 30.6108 13.3008 30.7199 13.4099C30.829 13.519 30.8903 13.667 30.8903 13.8212V19.0569C30.8903 19.2112 30.829 19.3592 30.7199 19.4683C30.6108 19.5774 30.4628 19.6386 30.3086 19.6386C29.5663 19.6386 28.8251 19.7125 28.0979 19.8597C27.9485 19.8865 27.7944 19.8538 27.6688 19.7685C27.5431 19.6833 27.4557 19.5523 27.4253 19.4035C27.395 19.2547 27.424 19.0999 27.5062 18.9722C27.5884 18.8445 27.7172 18.754 27.8653 18.7201C28.4794 18.6007 29.1017 18.5286 29.7268 18.5042V13.8212C29.7268 13.667 29.7881 13.519 29.8972 13.4099C30.0063 13.3008 30.1543 13.2395 30.3086 13.2395ZM17.4277 25.456C17.2861 26.0044 16.9494 26.4823 16.4806 26.8002C16.0119 27.1181 15.4433 27.2541 14.8814 27.1827C14.3196 27.1113 13.803 26.8375 13.4286 26.4125C13.0542 25.9876 12.8477 25.4407 12.8477 24.8743C12.8477 24.3079 13.0542 23.761 13.4286 23.336C13.803 22.9111 14.3196 22.6372 14.8814 22.5659C15.4433 22.4945 16.0119 22.6305 16.4806 22.9484C16.9494 23.2663 17.2861 23.7442 17.4277 24.2926H20.2386C20.2497 24.2926 20.2584 24.2984 20.2689 24.2984C20.3026 24.302 20.3359 24.3088 20.3684 24.3187C20.4162 24.3282 20.4625 24.3438 20.5063 24.3653C20.5109 24.3653 20.5167 24.3653 20.522 24.3711C20.5272 24.3769 20.5371 24.3868 20.547 24.3932C20.6 24.4263 20.6472 24.468 20.6866 24.5165C20.693 24.5247 20.6976 24.5334 20.7035 24.5421C20.742 24.5948 20.7709 24.6539 20.789 24.7166C20.789 24.7242 20.789 24.7318 20.7936 24.7393C20.8079 24.7831 20.8169 24.8284 20.8204 24.8743C20.8175 24.8964 20.8128 24.9185 20.8076 24.9406C20.8076 24.947 20.8047 24.9528 20.8035 24.9592C20.7936 25.029 20.7709 25.0965 20.736 25.1582V25.1657C19.7658 26.8458 19.2552 28.7517 19.2555 30.6917C19.2555 30.846 19.1942 30.9939 19.0851 31.103C18.976 31.2121 18.8281 31.2734 18.6738 31.2734H13.4381C13.2838 31.2734 13.1359 31.2121 13.0268 31.103C12.9177 30.9939 12.8564 30.846 12.8564 30.6917C12.8564 30.5374 12.9177 30.3894 13.0268 30.2803C13.1359 30.1712 13.2838 30.1099 13.4381 30.1099H18.1112C18.1875 28.497 18.583 26.9151 19.2747 25.456H17.4277ZM15.1833 23.7108C14.8748 23.7108 14.5788 23.8334 14.3606 24.0516C14.1424 24.2698 14.0199 24.5657 14.0199 24.8743C14.0199 25.1829 14.1424 25.4788 14.3606 25.697C14.5788 25.9152 14.8748 26.0378 15.1833 26.0378C15.4919 26.0378 15.7878 25.9152 16.006 25.697C16.2242 25.4788 16.3468 25.1829 16.3468 24.8743C16.3468 24.5657 16.2242 24.2698 16.006 24.0516C15.7878 23.8334 15.4919 23.7108 15.1833 23.7108ZM47.179 31.2734H41.9433C41.7891 31.2734 41.6411 31.2121 41.532 31.103C41.4229 30.9939 41.3616 30.846 41.3616 30.6917C41.3628 29.5163 41.1765 28.3482 40.8095 27.2315C40.7857 27.1589 40.7763 27.0824 40.782 27.0062C40.7878 26.93 40.8084 26.8557 40.8429 26.7875C40.8773 26.7193 40.9248 26.6585 40.9827 26.6087C41.0407 26.5589 41.1078 26.5209 41.1804 26.4971C41.253 26.4732 41.3295 26.4638 41.4057 26.4696C41.4819 26.4753 41.5562 26.4959 41.6244 26.5304C41.6926 26.5648 41.7534 26.6123 41.8032 26.6703C41.853 26.7282 41.891 26.7953 41.9148 26.8679C42.2566 27.917 42.4543 29.0077 42.5024 30.1099H47.179C47.3333 30.1099 47.4813 30.1712 47.5904 30.2803C47.6995 30.3894 47.7607 30.5374 47.7607 30.6917C47.7607 30.846 47.6995 30.9939 47.5904 31.103C47.4813 31.2121 47.3333 31.2734 47.179 31.2734Z" fill="url(#paint3_linear_80_15317)"/>
</g>
<circle cx="30.09" cy="30.09" r="29.4882" transform="matrix(-1 0 0 1 61 0)" stroke="url(#paint4_linear_80_15317)" stroke-width="1.2036"/>
<defs>
<linearGradient id="paint0_linear_80_15317" x1="30.309" y1="23.7109" x2="30.309" y2="36.5092" gradientUnits="userSpaceOnUse">
<stop stop-color="#00A3FF"/>
<stop offset="1" stop-color="#39FF14"/>
</linearGradient>
<linearGradient id="paint1_linear_80_15317" x1="30.309" y1="30.1028" x2="30.309" y2="34.1822" gradientUnits="userSpaceOnUse">
<stop stop-color="#00A3FF"/>
<stop offset="1" stop-color="#39FF14"/>
</linearGradient>
<linearGradient id="paint2_linear_80_15317" x1="32.059" y1="20.8022" x2="32.059" y2="48.1358" gradientUnits="userSpaceOnUse">
<stop stop-color="#00A3FF"/>
<stop offset="1" stop-color="#39FF14"/>
</linearGradient>
<linearGradient id="paint3_linear_80_15317" x1="30.3042" y1="13.2395" x2="30.3042" y2="48.1439" gradientUnits="userSpaceOnUse">
<stop stop-color="#00A3FF"/>
<stop offset="1" stop-color="#39FF14"/>
</linearGradient>
<linearGradient id="paint4_linear_80_15317" x1="30.09" y1="0" x2="30.09" y2="60.1799" gradientUnits="userSpaceOnUse">
<stop stop-color="#00A3FF"/>
<stop offset="1" stop-color="#39FF14"/>
</linearGradient>
<clipPath id="clip0_80_15317">
<rect width="34.9044" height="34.9044" fill="white" transform="matrix(-1 0 0 1 47.7607 13.2395)"/>
</clipPath>
</defs>
</svg>
