<svg width="62" height="62" viewBox="0 0 62 62" fill="none" xmlns="http://www.w3.org/2000/svg">
<path d="M22.4825 34.3068C20.215 31.9451 18.9959 28.84 19.0499 25.5637C19.1613 18.8037 24.7529 13.3699 31.5198 13.4469C38.2668 13.5254 43.6989 19.0114 43.6989 25.7713C43.6989 28.9627 42.4835 31.9896 40.2765 34.2945C39.132 35.49 38.3751 37.0231 38.1441 38.8704C39.3387 39.48 39.5873 41.078 38.6265 42.0183C39.8146 43.181 39.1024 45.2155 37.4399 45.3709C36.885 47.6816 34.8192 49.3014 32.4543 49.3014H30.2929C27.9258 49.3014 25.8617 47.6796 25.3072 45.3709C23.6457 45.2155 22.9317 43.1819 24.1206 42.0183C23.1582 41.0764 23.4101 39.4791 24.6029 38.8704C24.374 37.0403 23.6338 35.5061 22.4825 34.3068ZM39.4672 33.5196C41.4735 31.4242 42.5784 28.6725 42.5784 25.7713C42.5784 19.6644 37.6117 14.6383 31.5068 14.5673C25.3598 14.4975 20.2715 19.4369 20.1703 25.5822C20.1213 28.561 21.2294 31.3839 23.2908 33.5308C24.5766 34.87 25.4547 36.6451 25.7055 38.6568H30.8133V32.4941H29.1326C25.7345 32.4941 22.9699 29.7296 22.9699 26.3315V24.6508C22.9699 24.5022 23.029 24.3597 23.134 24.2546C23.2391 24.1495 23.3816 24.0905 23.5302 24.0905H25.7711C28.2541 24.0905 30.3985 25.5666 31.3736 27.6873C32.3487 25.5667 34.493 24.0906 36.976 24.0906H39.2169C39.3655 24.0906 39.508 24.1496 39.6131 24.2547C39.7181 24.3597 39.7772 24.5022 39.7772 24.6508V26.3316C39.7772 29.7296 37.0126 32.4942 33.6145 32.4942H31.9338V38.6569H37.0417C37.2959 36.6264 38.1885 34.8551 39.4672 33.5196ZM26.47 27.6434C26.5184 27.588 26.5773 27.5427 26.6432 27.5101C26.7092 27.4775 26.7809 27.4582 26.8543 27.4533C26.9277 27.4484 27.0014 27.458 27.0711 27.4816C27.1408 27.5052 27.2051 27.5422 27.2605 27.5907L30.8133 30.6993V30.2532C30.8133 27.473 28.5514 25.2111 25.7711 25.2111H24.0904V26.3316C24.0904 29.1118 26.3523 31.3737 29.1326 31.3737H29.8825L26.5227 28.4339C26.4109 28.3361 26.3425 28.1978 26.3326 28.0496C26.3227 27.9013 26.3721 27.7552 26.47 27.6434ZM31.9338 30.6993L35.4866 27.5906C35.7195 27.3868 36.0733 27.4104 36.2771 27.6433C36.3256 27.6987 36.3627 27.763 36.3862 27.8327C36.4098 27.9024 36.4194 27.9761 36.4145 28.0495C36.4097 28.1229 36.3904 28.1946 36.3577 28.2606C36.3251 28.3265 36.2798 28.3854 36.2245 28.4339L32.8646 31.3737H33.6145C36.3948 31.3737 38.6567 29.1118 38.6567 26.3316V25.2111H36.976C34.1957 25.2111 31.9338 27.473 31.9338 30.2532V30.6993ZM30.2929 48.181H32.4542C34.2137 48.181 35.7556 47.0145 36.2752 45.3797H26.4719C26.9915 47.0145 28.5333 48.181 30.2929 48.181ZM24.6507 43.4189C24.6507 43.8823 25.0276 44.2593 25.491 44.2593H37.2561C37.7195 44.2593 38.0964 43.8823 38.0964 43.4189C38.0964 42.9555 37.7195 42.5785 37.2561 42.5785H25.491C25.0276 42.5785 24.6507 42.9555 24.6507 43.4189ZM37.2561 41.4581C37.7195 41.4581 38.0964 41.0811 38.0964 40.6177C38.0964 40.1543 37.7195 39.7773 37.2561 39.7773H25.491C25.0276 39.7773 24.6507 40.1543 24.6507 40.6177C24.6507 41.0811 25.0276 41.4581 25.491 41.4581H37.2561ZM45.3796 25.7713C45.3796 25.6227 45.4386 25.4802 45.5437 25.3752C45.6487 25.2701 45.7912 25.2111 45.9398 25.2111H48.741C48.8896 25.2111 49.0321 25.2701 49.1372 25.3752C49.2422 25.4802 49.3013 25.6227 49.3013 25.7713C49.3013 25.9199 49.2422 26.0624 49.1372 26.1675C49.0321 26.2725 48.8896 26.3316 48.741 26.3316H45.9398C45.7912 26.3316 45.6487 26.2725 45.5437 26.1675C45.4386 26.0624 45.3796 25.9199 45.3796 25.7713ZM44.2684 32.5692L46.6943 33.9698C46.822 34.0446 46.9148 34.1669 46.9526 34.3099C46.9904 34.4529 46.9701 34.6051 46.8962 34.7332C46.8222 34.8614 46.7006 34.955 46.5578 34.9938C46.415 35.0326 46.2627 35.0133 46.1341 34.9401L43.7082 33.5395C43.5805 33.4647 43.4877 33.3425 43.4499 33.1994C43.4121 33.0564 43.4324 32.9042 43.5063 32.7761C43.5803 32.648 43.702 32.5543 43.8447 32.5156C43.9875 32.4768 44.1398 32.4961 44.2684 32.5692ZM46.6943 17.5727C44.0975 19.072 44.2011 19.0485 43.9888 19.0485C43.4165 19.0485 43.2139 18.2883 43.7082 18.0029L46.1341 16.6023C46.2628 16.5281 46.4157 16.5079 46.5592 16.5464C46.7027 16.5848 46.8251 16.6787 46.8994 16.8074C46.9362 16.8711 46.9601 16.9414 46.9697 17.0144C46.9793 17.0873 46.9744 17.1615 46.9554 17.2325C46.9363 17.3036 46.9035 17.3702 46.8587 17.4286C46.8139 17.487 46.758 17.536 46.6943 17.5727ZM14.0061 25.2111H16.8073C16.9559 25.2111 17.0984 25.2701 17.2034 25.3752C17.3085 25.4802 17.3675 25.6227 17.3675 25.7713C17.3675 25.9199 17.3085 26.0624 17.2034 26.1675C17.0984 26.2725 16.9559 26.3316 16.8073 26.3316H14.0061C13.8575 26.3316 13.715 26.2725 13.6099 26.1675C13.5049 26.0624 13.4458 25.9199 13.4458 25.7713C13.4458 25.6227 13.5049 25.4802 13.6099 25.3752C13.715 25.2701 13.8575 25.2111 14.0061 25.2111ZM16.0528 33.9698L18.4788 32.5692C18.5425 32.5318 18.613 32.5074 18.6862 32.4974C18.7594 32.4874 18.8339 32.492 18.9053 32.5109C18.9767 32.5298 19.0437 32.5626 19.1024 32.6075C19.1611 32.6524 19.2103 32.7084 19.2473 32.7724C19.2842 32.8364 19.3082 32.907 19.3177 32.9803C19.3272 33.0536 19.3221 33.128 19.3028 33.1993C19.2834 33.2706 19.2502 33.3374 19.2049 33.3958C19.1596 33.4542 19.1032 33.503 19.039 33.5395L16.613 34.9401C16.5493 34.9775 16.4788 35.0019 16.4056 35.0119C16.3324 35.0219 16.2579 35.0174 16.1865 34.9985C16.1151 34.9796 16.0481 34.9468 15.9894 34.9019C15.9307 34.857 15.8815 34.8009 15.8445 34.737C15.8076 34.673 15.7836 34.6023 15.7741 34.529C15.7646 34.4558 15.7697 34.3814 15.789 34.31C15.8084 34.2387 15.8416 34.172 15.8869 34.1136C15.9322 34.0552 15.9886 34.0063 16.0528 33.9698ZM18.7583 19.0485C18.5449 19.0485 18.6462 19.0701 16.0527 17.5727C15.9885 17.5362 15.9321 17.4874 15.8868 17.429C15.8416 17.3706 15.8083 17.3038 15.789 17.2325C15.7696 17.1612 15.7645 17.0868 15.7741 17.0135C15.7836 16.9402 15.8075 16.8696 15.8444 16.8056C15.8814 16.7416 15.9306 16.6856 15.9893 16.6407C16.048 16.5958 16.115 16.563 16.1864 16.5441C16.2579 16.5252 16.3323 16.5206 16.4055 16.5306C16.4787 16.5407 16.5492 16.565 16.613 16.6024L19.0389 18.003C19.5341 18.2889 19.3297 19.0485 18.7583 19.0485Z" fill="url(#paint0_linear_80_10382)"/>
<circle cx="31" cy="31" r="30.38" stroke="url(#paint1_linear_80_10382)" stroke-width="1.24"/>
<defs>
<linearGradient id="paint0_linear_80_10382" x1="31.3736" y1="13.446" x2="31.3736" y2="49.3014" gradientUnits="userSpaceOnUse">
<stop stop-color="#00A3FF"/>
<stop offset="1" stop-color="#39FF14"/>
</linearGradient>
<linearGradient id="paint1_linear_80_10382" x1="31" y1="0" x2="31" y2="62" gradientUnits="userSpaceOnUse">
<stop stop-color="#00A3FF"/>
<stop offset="1" stop-color="#39FF14"/>
</linearGradient>
</defs>
</svg>
