<svg width="48" height="49" viewBox="0 0 48 49" fill="none" xmlns="http://www.w3.org/2000/svg">
<g clip-path="url(#clip0_80_15310)">
<path d="M26.6491 38.9777C25.3031 38.9777 24.2121 40.0568 24.2121 41.3881C24.2121 42.7193 25.3031 43.7985 26.6491 43.7985C27.9952 43.7985 29.0862 42.7193 29.0862 41.3881C29.0845 40.0577 27.9943 38.979 26.6491 38.9777ZM26.6491 42.5409C26.0055 42.5409 25.4836 42.0246 25.4836 41.3881C25.4836 40.7515 26.0055 40.2353 26.6491 40.2353C27.2928 40.2353 27.8147 40.7515 27.8147 41.3881C27.8139 42.0242 27.2923 42.54 26.6491 42.5409ZM32.7948 38.9777C31.4488 38.9777 30.3578 40.0568 30.3578 41.3881C30.3578 42.7193 31.4488 43.7985 32.7948 43.7985C34.1409 43.7985 35.2319 42.7193 35.2319 41.3881C35.2302 40.0577 34.14 38.979 32.7948 38.9777ZM32.7948 42.5409C32.1512 42.5409 31.6293 42.0246 31.6293 41.3881C31.6293 40.7515 32.1512 40.2353 32.7948 40.2353C33.4384 40.2353 33.9604 40.7515 33.9604 41.3881C33.9596 42.0242 33.438 42.54 32.7948 42.5409ZM3.97365 39.1873C3.62261 39.1873 3.33789 39.469 3.33789 39.8161V42.9601C3.33789 43.3073 3.62271 43.5889 3.97365 43.5889C4.32459 43.5889 4.60941 43.3072 4.60941 42.9601V39.8161C4.60941 39.4689 4.32459 39.1873 3.97365 39.1873ZM6.77079 39.1873C6.41985 39.1873 6.13503 39.469 6.13503 39.8161V42.9601C6.13503 43.3073 6.41985 43.5889 6.77079 43.5889C7.12226 43.5889 7.40655 43.3072 7.40655 42.9601V39.8161C7.40655 39.4689 7.12226 39.1873 6.77079 39.1873ZM9.56835 39.1873C9.21699 39.1873 8.93259 39.469 8.93259 39.8161V42.9601C8.93259 43.3073 9.21699 43.5889 9.56835 43.5889C9.9194 43.5889 10.2041 43.3072 10.2041 42.9601V39.8161C10.2041 39.4689 9.9194 39.1873 9.56835 39.1873ZM12.3657 39.1873C12.0147 39.1873 11.7299 39.469 11.7299 39.8161V42.9601C11.733 43.1248 11.8013 43.2819 11.9202 43.3973C12.0391 43.5128 12.1991 43.5775 12.3657 43.5775C12.5323 43.5775 12.6923 43.5128 12.8112 43.3973C12.9301 43.2819 12.9984 43.1248 13.0015 42.9601V39.8161C13.0015 39.4689 12.7166 39.1873 12.3657 39.1873ZM15.1633 39.1873C14.8118 39.1873 14.5275 39.469 14.5275 39.8161V42.9601C14.5275 43.3073 14.8118 43.5889 15.1633 43.5889C15.5142 43.5889 15.799 43.3072 15.799 42.9601V39.8161C15.799 39.4689 15.5142 39.1873 15.1633 39.1873ZM26.6491 24.3059C25.3031 24.3059 24.2121 25.3851 24.2121 26.7163C24.2121 28.0476 25.3031 29.1267 26.6491 29.1267C27.9952 29.1267 29.0862 28.0476 29.0862 26.7163C29.0845 25.3859 27.9943 24.3072 26.6491 24.3059ZM26.6491 27.8691C26.0055 27.8691 25.4836 27.3529 25.4836 26.7163C25.4836 26.0798 26.0055 25.5635 26.6491 25.5635C27.2928 25.5635 27.8147 26.0798 27.8147 26.7163C27.8139 27.3524 27.2923 27.8683 26.6491 27.8691ZM30.3578 26.7163C30.3578 28.0476 31.4488 29.1267 32.7948 29.1267C34.1409 29.1267 35.2319 28.0476 35.2319 26.7163C35.2319 25.3851 34.1409 24.3059 32.7948 24.3059C31.4497 24.3072 30.3595 25.3859 30.3578 26.7163ZM33.9604 26.7163C33.9604 27.3529 33.4384 27.8691 32.7948 27.8691C32.1512 27.8691 31.6293 27.3529 31.6293 26.7163C31.6293 26.0798 32.1512 25.5635 32.7948 25.5635C33.438 25.5644 33.9596 26.0798 33.9604 26.7163ZM3.97365 24.5155C3.62261 24.5155 3.33789 24.7972 3.33789 25.1443V28.2883C3.33789 28.6355 3.62271 28.9171 3.97365 28.9171C4.32459 28.9171 4.60941 28.6354 4.60941 28.2883V25.1443C4.60941 24.7971 4.32459 24.5155 3.97365 24.5155ZM6.77079 24.5155C6.41985 24.5155 6.13503 24.7972 6.13503 25.1443V28.2883C6.13503 28.6355 6.41985 28.9171 6.77079 28.9171C7.12226 28.9171 7.40655 28.6354 7.40655 28.2883V25.1443C7.40655 24.7971 7.12226 24.5155 6.77079 24.5155ZM9.56835 24.5155C9.21699 24.5155 8.93259 24.7972 8.93259 25.1443V28.2883C8.93259 28.6355 9.21699 28.9171 9.56835 28.9171C9.9194 28.9171 10.2041 28.6354 10.2041 28.2883V25.1443C10.2041 24.7971 9.9194 24.5155 9.56835 24.5155ZM12.3657 24.5155C12.0147 24.5155 11.7299 24.7972 11.7299 25.1443V28.2883C11.733 28.4531 11.8013 28.6101 11.9202 28.7255C12.0391 28.841 12.1991 28.9057 12.3657 28.9057C12.5323 28.9057 12.6923 28.841 12.8112 28.7255C12.9301 28.6101 12.9984 28.4531 13.0015 28.2883V25.1443C13.0015 24.7971 12.7166 24.5155 12.3657 24.5155ZM15.1633 24.5155C14.8118 24.5155 14.5275 24.7972 14.5275 25.1443V28.2883C14.5275 28.6355 14.8118 28.9171 15.1633 28.9171C15.5142 28.9171 15.799 28.6354 15.799 28.2883V25.1443C15.799 24.7971 15.5142 24.5155 15.1633 24.5155ZM3.97365 9.84377C3.62261 9.84377 3.33789 10.1255 3.33789 10.4726V13.6165C3.33789 13.9637 3.62271 14.2453 3.97365 14.2453C4.32459 14.2453 4.60941 13.9636 4.60941 13.6165V10.4726C4.60941 10.1254 4.32459 9.84377 3.97365 9.84377ZM6.77079 14.2453C7.12226 14.2453 7.40655 13.9636 7.40655 13.6165V10.4726C7.40655 10.1254 7.12226 9.84377 6.77079 9.84377C6.41985 9.84377 6.13503 10.1255 6.13503 10.4726V13.6165C6.13503 13.9637 6.41985 14.2453 6.77079 14.2453ZM9.56835 14.2453C9.9194 14.2453 10.2041 13.9636 10.2041 13.6165V10.4726C10.2041 10.1254 9.9194 9.84377 9.56835 9.84377C9.21699 9.84377 8.93259 10.1255 8.93259 10.4726V13.6165C8.93259 13.9637 9.21699 14.2453 9.56835 14.2453ZM12.3657 14.2453C12.7166 14.2453 13.0015 13.9636 13.0015 13.6165V10.4726C13.0015 10.1254 12.7166 9.84377 12.3657 9.84377C12.0148 9.84377 11.7299 10.1255 11.7299 10.4726V13.6165C11.7299 13.9637 12.0147 14.2453 12.3657 14.2453ZM15.1633 14.2453C15.5142 14.2453 15.799 13.9636 15.799 13.6165V10.4726C15.799 10.1254 15.5142 9.84377 15.1633 9.84377C14.8118 9.84377 14.5275 10.1255 14.5275 10.4726V13.6165C14.5275 13.9637 14.8118 14.2453 15.1633 14.2453ZM33.6955 3.8252C29.1644 3.8252 25.491 7.45835 25.491 11.9397C25.491 16.4211 29.1644 20.0543 33.6955 20.0543C38.2266 20.0543 41.9 16.4211 41.9 11.9397C41.8946 7.46044 38.2245 3.83054 33.6955 3.8252ZM33.6955 18.7967C29.8664 18.7967 26.7625 15.7268 26.7625 11.9397C26.7625 8.15264 29.8664 5.08278 33.6955 5.08278C37.5246 5.08278 40.6285 8.15264 40.6285 11.9397C40.6242 15.7247 37.5229 18.7925 33.6955 18.7967Z" fill="black"/>
<path d="M26.6491 38.9777C25.3031 38.9777 24.2121 40.0568 24.2121 41.3881C24.2121 42.7193 25.3031 43.7985 26.6491 43.7985C27.9952 43.7985 29.0862 42.7193 29.0862 41.3881C29.0845 40.0577 27.9943 38.979 26.6491 38.9777ZM26.6491 42.5409C26.0055 42.5409 25.4836 42.0246 25.4836 41.3881C25.4836 40.7515 26.0055 40.2353 26.6491 40.2353C27.2928 40.2353 27.8147 40.7515 27.8147 41.3881C27.8139 42.0242 27.2923 42.54 26.6491 42.5409ZM32.7948 38.9777C31.4488 38.9777 30.3578 40.0568 30.3578 41.3881C30.3578 42.7193 31.4488 43.7985 32.7948 43.7985C34.1409 43.7985 35.2319 42.7193 35.2319 41.3881C35.2302 40.0577 34.14 38.979 32.7948 38.9777ZM32.7948 42.5409C32.1512 42.5409 31.6293 42.0246 31.6293 41.3881C31.6293 40.7515 32.1512 40.2353 32.7948 40.2353C33.4384 40.2353 33.9604 40.7515 33.9604 41.3881C33.9596 42.0242 33.438 42.54 32.7948 42.5409ZM3.97365 39.1873C3.62261 39.1873 3.33789 39.469 3.33789 39.8161V42.9601C3.33789 43.3073 3.62271 43.5889 3.97365 43.5889C4.32459 43.5889 4.60941 43.3072 4.60941 42.9601V39.8161C4.60941 39.4689 4.32459 39.1873 3.97365 39.1873ZM6.77079 39.1873C6.41985 39.1873 6.13503 39.469 6.13503 39.8161V42.9601C6.13503 43.3073 6.41985 43.5889 6.77079 43.5889C7.12226 43.5889 7.40655 43.3072 7.40655 42.9601V39.8161C7.40655 39.4689 7.12226 39.1873 6.77079 39.1873ZM9.56835 39.1873C9.21699 39.1873 8.93259 39.469 8.93259 39.8161V42.9601C8.93259 43.3073 9.21699 43.5889 9.56835 43.5889C9.9194 43.5889 10.2041 43.3072 10.2041 42.9601V39.8161C10.2041 39.4689 9.9194 39.1873 9.56835 39.1873ZM12.3657 39.1873C12.0147 39.1873 11.7299 39.469 11.7299 39.8161V42.9601C11.733 43.1248 11.8013 43.2819 11.9202 43.3973C12.0391 43.5128 12.1991 43.5775 12.3657 43.5775C12.5323 43.5775 12.6923 43.5128 12.8112 43.3973C12.9301 43.2819 12.9984 43.1248 13.0015 42.9601V39.8161C13.0015 39.4689 12.7166 39.1873 12.3657 39.1873ZM15.1633 39.1873C14.8118 39.1873 14.5275 39.469 14.5275 39.8161V42.9601C14.5275 43.3073 14.8118 43.5889 15.1633 43.5889C15.5142 43.5889 15.799 43.3072 15.799 42.9601V39.8161C15.799 39.4689 15.5142 39.1873 15.1633 39.1873ZM26.6491 24.3059C25.3031 24.3059 24.2121 25.3851 24.2121 26.7163C24.2121 28.0476 25.3031 29.1267 26.6491 29.1267C27.9952 29.1267 29.0862 28.0476 29.0862 26.7163C29.0845 25.3859 27.9943 24.3072 26.6491 24.3059ZM26.6491 27.8691C26.0055 27.8691 25.4836 27.3529 25.4836 26.7163C25.4836 26.0798 26.0055 25.5635 26.6491 25.5635C27.2928 25.5635 27.8147 26.0798 27.8147 26.7163C27.8139 27.3524 27.2923 27.8683 26.6491 27.8691ZM30.3578 26.7163C30.3578 28.0476 31.4488 29.1267 32.7948 29.1267C34.1409 29.1267 35.2319 28.0476 35.2319 26.7163C35.2319 25.3851 34.1409 24.3059 32.7948 24.3059C31.4497 24.3072 30.3595 25.3859 30.3578 26.7163ZM33.9604 26.7163C33.9604 27.3529 33.4384 27.8691 32.7948 27.8691C32.1512 27.8691 31.6293 27.3529 31.6293 26.7163C31.6293 26.0798 32.1512 25.5635 32.7948 25.5635C33.438 25.5644 33.9596 26.0798 33.9604 26.7163ZM3.97365 24.5155C3.62261 24.5155 3.33789 24.7972 3.33789 25.1443V28.2883C3.33789 28.6355 3.62271 28.9171 3.97365 28.9171C4.32459 28.9171 4.60941 28.6354 4.60941 28.2883V25.1443C4.60941 24.7971 4.32459 24.5155 3.97365 24.5155ZM6.77079 24.5155C6.41985 24.5155 6.13503 24.7972 6.13503 25.1443V28.2883C6.13503 28.6355 6.41985 28.9171 6.77079 28.9171C7.12226 28.9171 7.40655 28.6354 7.40655 28.2883V25.1443C7.40655 24.7971 7.12226 24.5155 6.77079 24.5155ZM9.56835 24.5155C9.21699 24.5155 8.93259 24.7972 8.93259 25.1443V28.2883C8.93259 28.6355 9.21699 28.9171 9.56835 28.9171C9.9194 28.9171 10.2041 28.6354 10.2041 28.2883V25.1443C10.2041 24.7971 9.9194 24.5155 9.56835 24.5155ZM12.3657 24.5155C12.0147 24.5155 11.7299 24.7972 11.7299 25.1443V28.2883C11.733 28.4531 11.8013 28.6101 11.9202 28.7255C12.0391 28.841 12.1991 28.9057 12.3657 28.9057C12.5323 28.9057 12.6923 28.841 12.8112 28.7255C12.9301 28.6101 12.9984 28.4531 13.0015 28.2883V25.1443C13.0015 24.7971 12.7166 24.5155 12.3657 24.5155ZM15.1633 24.5155C14.8118 24.5155 14.5275 24.7972 14.5275 25.1443V28.2883C14.5275 28.6355 14.8118 28.9171 15.1633 28.9171C15.5142 28.9171 15.799 28.6354 15.799 28.2883V25.1443C15.799 24.7971 15.5142 24.5155 15.1633 24.5155ZM3.97365 9.84377C3.62261 9.84377 3.33789 10.1255 3.33789 10.4726V13.6165C3.33789 13.9637 3.62271 14.2453 3.97365 14.2453C4.32459 14.2453 4.60941 13.9636 4.60941 13.6165V10.4726C4.60941 10.1254 4.32459 9.84377 3.97365 9.84377ZM6.77079 14.2453C7.12226 14.2453 7.40655 13.9636 7.40655 13.6165V10.4726C7.40655 10.1254 7.12226 9.84377 6.77079 9.84377C6.41985 9.84377 6.13503 10.1255 6.13503 10.4726V13.6165C6.13503 13.9637 6.41985 14.2453 6.77079 14.2453ZM9.56835 14.2453C9.9194 14.2453 10.2041 13.9636 10.2041 13.6165V10.4726C10.2041 10.1254 9.9194 9.84377 9.56835 9.84377C9.21699 9.84377 8.93259 10.1255 8.93259 10.4726V13.6165C8.93259 13.9637 9.21699 14.2453 9.56835 14.2453ZM12.3657 14.2453C12.7166 14.2453 13.0015 13.9636 13.0015 13.6165V10.4726C13.0015 10.1254 12.7166 9.84377 12.3657 9.84377C12.0148 9.84377 11.7299 10.1255 11.7299 10.4726V13.6165C11.7299 13.9637 12.0147 14.2453 12.3657 14.2453ZM15.1633 14.2453C15.5142 14.2453 15.799 13.9636 15.799 13.6165V10.4726C15.799 10.1254 15.5142 9.84377 15.1633 9.84377C14.8118 9.84377 14.5275 10.1255 14.5275 10.4726V13.6165C14.5275 13.9637 14.8118 14.2453 15.1633 14.2453ZM33.6955 3.8252C29.1644 3.8252 25.491 7.45835 25.491 11.9397C25.491 16.4211 29.1644 20.0543 33.6955 20.0543C38.2266 20.0543 41.9 16.4211 41.9 11.9397C41.8946 7.46044 38.2245 3.83054 33.6955 3.8252ZM33.6955 18.7967C29.8664 18.7967 26.7625 15.7268 26.7625 11.9397C26.7625 8.15264 29.8664 5.08278 33.6955 5.08278C37.5246 5.08278 40.6285 8.15264 40.6285 11.9397C40.6242 15.7247 37.5229 18.7925 33.6955 18.7967Z" fill="url(#paint0_linear_80_15310)"/>
<path d="M41.6751 4.1302C41.6623 4.11511 41.6518 4.09877 41.6374 4.08483C41.623 4.07089 41.6068 4.0602 41.5915 4.04752C37.2202 -0.240937 30.1705 -0.240937 25.7992 4.04752C25.7839 4.0603 25.7678 4.07057 25.7533 4.08483C25.7388 4.09908 25.7284 4.11511 25.7156 4.1302C25.4005 4.44515 25.1046 4.7783 24.8295 5.12789H1.80132C0.86548 5.12914 0.107229 5.87908 0.105957 6.80466V17.2845C0.107229 18.2101 0.86548 18.96 1.80132 18.9613H5.40397V19.7997H1.80132C0.86548 19.8009 0.107229 20.5509 0.105957 21.4764V31.9563C0.107229 32.8819 0.86548 33.6318 1.80132 33.6331H5.40397V34.4714H1.80132C0.86548 34.4727 0.107229 35.2226 0.105957 36.1482V46.6281C0.107229 47.5536 0.86548 48.3036 1.80132 48.3048H36.7682C37.704 48.3036 38.4623 47.5536 38.4636 46.6281V36.1482C38.4623 35.2226 37.704 34.4727 36.7682 34.4714H33.1656V33.6331H36.7682C37.704 33.6318 38.4623 32.8819 38.4636 31.9563V21.9959C39.6229 21.4556 40.6807 20.7238 41.5915 19.832C41.6068 19.8194 41.6229 19.809 41.6374 19.7947C41.6519 19.7805 41.6623 19.7645 41.6751 19.7494C46.0111 15.426 46.0111 8.45356 41.6751 4.1302ZM43.1904 12.5686H43.6345C43.4953 14.7431 42.6281 16.8099 41.1697 18.443L40.8585 18.1356C40.7383 18.0225 40.5782 17.9604 40.4123 17.9625C40.2465 17.9646 40.088 18.0306 39.9707 18.1466C39.8534 18.2626 39.7866 18.4194 39.7845 18.5834C39.7824 18.7474 39.8452 18.9058 39.9595 19.0247L40.2707 19.3322C38.6196 20.7747 36.5298 21.6324 34.3311 21.77V21.3307C34.3311 20.9836 34.0463 20.7019 33.6954 20.7019C33.3444 20.7019 33.0596 20.9836 33.0596 21.3307V21.77C30.8609 21.6323 28.7712 20.7746 27.12 19.3322L27.4309 19.0244C27.5452 18.9055 27.608 18.7471 27.6059 18.5831C27.6038 18.4191 27.537 18.2623 27.4197 18.1463C27.3024 18.0303 27.1439 17.9642 26.9781 17.9622C26.8122 17.9601 26.6521 18.0222 26.5319 18.1353L26.2206 18.443C24.7624 16.8099 23.8953 14.7431 23.7562 12.5686H24.2008C24.5517 12.5686 24.8366 12.2869 24.8366 11.9398C24.8366 11.5927 24.5517 11.311 24.2008 11.311H23.7562C23.8954 9.13644 24.7626 7.06962 26.221 5.43652L26.5322 5.744C26.6524 5.85704 26.8125 5.91915 26.9784 5.91708C27.1443 5.91501 27.3027 5.84893 27.42 5.73293C27.5373 5.61693 27.6041 5.46019 27.6062 5.29616C27.6083 5.13212 27.5455 4.97377 27.4312 4.85489L27.12 4.54699C28.7713 3.10475 30.861 2.2472 33.0596 2.10959V2.5489C33.0626 2.71368 33.131 2.87069 33.2499 2.98616C33.3688 3.10162 33.5287 3.16632 33.6954 3.16632C33.862 3.16632 34.022 3.10162 34.1409 2.98616C34.2598 2.87069 34.3281 2.71368 34.3311 2.5489V2.10959C36.5298 2.24727 38.6195 3.10498 40.2707 4.54741L39.9598 4.8552C39.8788 4.93274 39.82 5.03022 39.7896 5.13764C39.7591 5.24505 39.7582 5.35854 39.7867 5.46645C39.8153 5.57437 39.8723 5.67283 39.9521 5.75173C40.0318 5.83063 40.1313 5.88714 40.2404 5.91545C40.3496 5.94378 40.4644 5.94287 40.573 5.91282C40.6817 5.88276 40.7804 5.82464 40.8588 5.74441L41.1697 5.43652C42.6282 7.06956 43.4954 9.13642 43.6345 11.311H43.1904C42.8394 11.311 42.5546 11.5927 42.5546 11.9398C42.5546 12.2869 42.8394 12.5686 43.1904 12.5686ZM6.67507 18.5421H24.6686C24.9881 18.9686 25.3383 19.3719 25.7157 19.7494C25.7286 19.7645 25.739 19.7808 25.7534 19.7947C25.7678 19.8087 25.784 19.8193 25.7993 19.832C25.8974 19.9278 25.9972 20.0219 26.0986 20.1141H6.67549L6.67507 18.5421ZM1.37706 17.2845V6.80466C1.37706 6.69348 1.42171 6.58686 1.5012 6.50825C1.58068 6.42963 1.68849 6.38547 1.8009 6.38547H23.9714C23.0043 8.03824 22.4852 9.91 22.4643 11.8195C22.4433 13.7289 22.9213 15.6114 23.8519 17.2845H6.03973C5.90837 17.2847 5.7803 17.3251 5.67308 17.4002C5.56585 17.4752 5.48473 17.5812 5.44084 17.7037H1.80132C1.56715 17.7037 1.37748 17.5161 1.37748 17.2845H1.37706ZM31.8936 34.7858H6.67507V33.2139H31.8936V34.7858ZM37.1916 36.1482V46.6281C37.1916 46.8597 37.0021 47.0473 36.7678 47.0473H1.80132C1.56715 47.0473 1.37748 46.8597 1.37748 46.6281V36.1482C1.37748 35.9166 1.56715 35.729 1.80132 35.729H5.48969C5.60307 35.9234 5.81287 36.0434 6.03973 36.0434H32.5298C32.6413 36.0434 32.7509 36.0143 32.8474 35.9591C32.944 35.9039 33.0241 35.8246 33.0798 35.729H36.7682C37.0024 35.729 37.1921 35.9166 37.1921 36.1482H37.1916ZM37.1916 31.9563C37.1916 32.1879 37.0021 32.3755 36.7678 32.3755H33.1287C33.0848 32.253 33.0037 32.147 32.8965 32.0719C32.7892 31.9969 32.6612 31.9565 32.5298 31.9563H6.03973C5.90837 31.9565 5.7803 31.9969 5.67308 32.0719C5.56585 32.147 5.48473 32.253 5.44084 32.3755H1.80132C1.56715 32.3755 1.37748 32.1879 1.37748 31.9563V21.4764C1.37748 21.2448 1.56715 21.0572 1.80132 21.0572H5.48969C5.60307 21.2516 5.81287 21.3716 6.03973 21.3716H27.7686C29.1607 22.2291 30.7259 22.7741 32.3541 22.9685C33.9822 23.1628 35.6337 23.0018 37.1921 22.4965L37.1916 31.9563Z" fill="black"/>
<path d="M41.6751 4.1302C41.6623 4.11511 41.6518 4.09877 41.6374 4.08483C41.623 4.07089 41.6068 4.0602 41.5915 4.04752C37.2202 -0.240937 30.1705 -0.240937 25.7992 4.04752C25.7839 4.0603 25.7678 4.07057 25.7533 4.08483C25.7388 4.09908 25.7284 4.11511 25.7156 4.1302C25.4005 4.44515 25.1046 4.7783 24.8295 5.12789H1.80132C0.86548 5.12914 0.107229 5.87908 0.105957 6.80466V17.2845C0.107229 18.2101 0.86548 18.96 1.80132 18.9613H5.40397V19.7997H1.80132C0.86548 19.8009 0.107229 20.5509 0.105957 21.4764V31.9563C0.107229 32.8819 0.86548 33.6318 1.80132 33.6331H5.40397V34.4714H1.80132C0.86548 34.4727 0.107229 35.2226 0.105957 36.1482V46.6281C0.107229 47.5536 0.86548 48.3036 1.80132 48.3048H36.7682C37.704 48.3036 38.4623 47.5536 38.4636 46.6281V36.1482C38.4623 35.2226 37.704 34.4727 36.7682 34.4714H33.1656V33.6331H36.7682C37.704 33.6318 38.4623 32.8819 38.4636 31.9563V21.9959C39.6229 21.4556 40.6807 20.7238 41.5915 19.832C41.6068 19.8194 41.6229 19.809 41.6374 19.7947C41.6519 19.7805 41.6623 19.7645 41.6751 19.7494C46.0111 15.426 46.0111 8.45356 41.6751 4.1302ZM43.1904 12.5686H43.6345C43.4953 14.7431 42.6281 16.8099 41.1697 18.443L40.8585 18.1356C40.7383 18.0225 40.5782 17.9604 40.4123 17.9625C40.2465 17.9646 40.088 18.0306 39.9707 18.1466C39.8534 18.2626 39.7866 18.4194 39.7845 18.5834C39.7824 18.7474 39.8452 18.9058 39.9595 19.0247L40.2707 19.3322C38.6196 20.7747 36.5298 21.6324 34.3311 21.77V21.3307C34.3311 20.9836 34.0463 20.7019 33.6954 20.7019C33.3444 20.7019 33.0596 20.9836 33.0596 21.3307V21.77C30.8609 21.6323 28.7712 20.7746 27.12 19.3322L27.4309 19.0244C27.5452 18.9055 27.608 18.7471 27.6059 18.5831C27.6038 18.4191 27.537 18.2623 27.4197 18.1463C27.3024 18.0303 27.1439 17.9642 26.9781 17.9622C26.8122 17.9601 26.6521 18.0222 26.5319 18.1353L26.2206 18.443C24.7624 16.8099 23.8953 14.7431 23.7562 12.5686H24.2008C24.5517 12.5686 24.8366 12.2869 24.8366 11.9398C24.8366 11.5927 24.5517 11.311 24.2008 11.311H23.7562C23.8954 9.13644 24.7626 7.06962 26.221 5.43652L26.5322 5.744C26.6524 5.85704 26.8125 5.91915 26.9784 5.91708C27.1443 5.91501 27.3027 5.84893 27.42 5.73293C27.5373 5.61693 27.6041 5.46019 27.6062 5.29616C27.6083 5.13212 27.5455 4.97377 27.4312 4.85489L27.12 4.54699C28.7713 3.10475 30.861 2.2472 33.0596 2.10959V2.5489C33.0626 2.71368 33.131 2.87069 33.2499 2.98616C33.3688 3.10162 33.5287 3.16632 33.6954 3.16632C33.862 3.16632 34.022 3.10162 34.1409 2.98616C34.2598 2.87069 34.3281 2.71368 34.3311 2.5489V2.10959C36.5298 2.24727 38.6195 3.10498 40.2707 4.54741L39.9598 4.8552C39.8788 4.93274 39.82 5.03022 39.7896 5.13764C39.7591 5.24505 39.7582 5.35854 39.7867 5.46645C39.8153 5.57437 39.8723 5.67283 39.9521 5.75173C40.0318 5.83063 40.1313 5.88714 40.2404 5.91545C40.3496 5.94378 40.4644 5.94287 40.573 5.91282C40.6817 5.88276 40.7804 5.82464 40.8588 5.74441L41.1697 5.43652C42.6282 7.06956 43.4954 9.13642 43.6345 11.311H43.1904C42.8394 11.311 42.5546 11.5927 42.5546 11.9398C42.5546 12.2869 42.8394 12.5686 43.1904 12.5686ZM6.67507 18.5421H24.6686C24.9881 18.9686 25.3383 19.3719 25.7157 19.7494C25.7286 19.7645 25.739 19.7808 25.7534 19.7947C25.7678 19.8087 25.784 19.8193 25.7993 19.832C25.8974 19.9278 25.9972 20.0219 26.0986 20.1141H6.67549L6.67507 18.5421ZM1.37706 17.2845V6.80466C1.37706 6.69348 1.42171 6.58686 1.5012 6.50825C1.58068 6.42963 1.68849 6.38547 1.8009 6.38547H23.9714C23.0043 8.03824 22.4852 9.91 22.4643 11.8195C22.4433 13.7289 22.9213 15.6114 23.8519 17.2845H6.03973C5.90837 17.2847 5.7803 17.3251 5.67308 17.4002C5.56585 17.4752 5.48473 17.5812 5.44084 17.7037H1.80132C1.56715 17.7037 1.37748 17.5161 1.37748 17.2845H1.37706ZM31.8936 34.7858H6.67507V33.2139H31.8936V34.7858ZM37.1916 36.1482V46.6281C37.1916 46.8597 37.0021 47.0473 36.7678 47.0473H1.80132C1.56715 47.0473 1.37748 46.8597 1.37748 46.6281V36.1482C1.37748 35.9166 1.56715 35.729 1.80132 35.729H5.48969C5.60307 35.9234 5.81287 36.0434 6.03973 36.0434H32.5298C32.6413 36.0434 32.7509 36.0143 32.8474 35.9591C32.944 35.9039 33.0241 35.8246 33.0798 35.729H36.7682C37.0024 35.729 37.1921 35.9166 37.1921 36.1482H37.1916ZM37.1916 31.9563C37.1916 32.1879 37.0021 32.3755 36.7678 32.3755H33.1287C33.0848 32.253 33.0037 32.147 32.8965 32.0719C32.7892 31.9969 32.6612 31.9565 32.5298 31.9563H6.03973C5.90837 31.9565 5.7803 31.9969 5.67308 32.0719C5.56585 32.147 5.48473 32.253 5.44084 32.3755H1.80132C1.56715 32.3755 1.37748 32.1879 1.37748 31.9563V21.4764C1.37748 21.2448 1.56715 21.0572 1.80132 21.0572H5.48969C5.60307 21.2516 5.81287 21.3716 6.03973 21.3716H27.7686C29.1607 22.2291 30.7259 22.7741 32.3541 22.9685C33.9822 23.1628 35.6337 23.0018 37.1921 22.4965L37.1916 31.9563Z" fill="url(#paint1_linear_80_15310)"/>
<path d="M36.9802 9.95548C36.9794 9.39489 36.7988 8.849 36.4644 8.39637C36.13 7.94374 35.659 7.60772 35.1192 7.43665V6.54796C35.1192 6.20035 34.8345 5.91917 34.4834 5.91917C34.1321 5.91917 33.8477 6.20035 33.8477 6.54796V7.31142H33.19V6.54786C33.19 6.20024 32.9053 5.91907 32.5542 5.91907C32.2032 5.91907 31.9185 6.20024 31.9185 6.54786V7.31131H31.0464C30.6954 7.31131 30.4106 7.59291 30.4106 7.9401V16.0018C30.4106 16.3489 30.6955 16.6306 31.0464 16.6306H31.9185V17.3314C31.9185 17.6786 32.2033 17.9602 32.5542 17.9602C32.9052 17.9602 33.19 17.6786 33.19 17.3314V16.6306H33.8477V17.3314C33.8477 17.6786 34.1321 17.9602 34.4834 17.9602C34.8345 17.9602 35.1192 17.6786 35.1192 17.3314V16.5053C35.5739 16.362 35.9814 16.1009 36.2996 15.7492C36.6178 15.3975 36.8349 14.9679 36.9285 14.5051C37.022 14.0422 36.9884 13.563 36.8312 13.1174C36.6739 12.6717 36.3988 12.2759 36.0344 11.9711C36.3307 11.7233 36.5688 11.4146 36.7322 11.0664C36.8955 10.7183 36.9801 10.3393 36.9802 9.95548ZM35.7087 13.9861C35.7078 14.7517 35.0807 15.3719 34.3068 15.3731H31.6822V12.6H34.3068C35.0807 12.6008 35.7078 13.221 35.7087 13.986V13.9861ZM31.6822 11.3425V8.569H34.3068C35.0812 8.569 35.7087 9.19004 35.7087 9.95548C35.7087 10.7215 35.0812 11.3425 34.3068 11.3425H31.6822Z" fill="black"/>
<path d="M36.9802 9.95548C36.9794 9.39489 36.7988 8.849 36.4644 8.39637C36.13 7.94374 35.659 7.60772 35.1192 7.43665V6.54796C35.1192 6.20035 34.8345 5.91917 34.4834 5.91917C34.1321 5.91917 33.8477 6.20035 33.8477 6.54796V7.31142H33.19V6.54786C33.19 6.20024 32.9053 5.91907 32.5542 5.91907C32.2032 5.91907 31.9185 6.20024 31.9185 6.54786V7.31131H31.0464C30.6954 7.31131 30.4106 7.59291 30.4106 7.9401V16.0018C30.4106 16.3489 30.6955 16.6306 31.0464 16.6306H31.9185V17.3314C31.9185 17.6786 32.2033 17.9602 32.5542 17.9602C32.9052 17.9602 33.19 17.6786 33.19 17.3314V16.6306H33.8477V17.3314C33.8477 17.6786 34.1321 17.9602 34.4834 17.9602C34.8345 17.9602 35.1192 17.6786 35.1192 17.3314V16.5053C35.5739 16.362 35.9814 16.1009 36.2996 15.7492C36.6178 15.3975 36.8349 14.9679 36.9285 14.5051C37.022 14.0422 36.9884 13.563 36.8312 13.1174C36.6739 12.6717 36.3988 12.2759 36.0344 11.9711C36.3307 11.7233 36.5688 11.4146 36.7322 11.0664C36.8955 10.7183 36.9801 10.3393 36.9802 9.95548ZM35.7087 13.9861C35.7078 14.7517 35.0807 15.3719 34.3068 15.3731H31.6822V12.6H34.3068C35.0807 12.6008 35.7078 13.221 35.7087 13.986V13.9861ZM31.6822 11.3425V8.569H34.3068C35.0812 8.569 35.7087 9.19004 35.7087 9.95548C35.7087 10.7215 35.0812 11.3425 34.3068 11.3425H31.6822Z" fill="url(#paint2_linear_80_15310)"/>
</g>
<defs>
<linearGradient id="paint0_linear_80_15310" x1="22.6189" y1="3.8252" x2="22.6189" y2="43.7985" gradientUnits="userSpaceOnUse">
<stop stop-color="#00A3FF"/>
<stop offset="1" stop-color="#39FF14"/>
</linearGradient>
<linearGradient id="paint1_linear_80_15310" x1="22.5165" y1="0.831177" x2="22.5165" y2="48.3048" gradientUnits="userSpaceOnUse">
<stop stop-color="#00A3FF"/>
<stop offset="1" stop-color="#39FF14"/>
</linearGradient>
<linearGradient id="paint2_linear_80_15310" x1="33.6955" y1="5.91907" x2="33.6955" y2="17.9602" gradientUnits="userSpaceOnUse">
<stop stop-color="#00A3FF"/>
<stop offset="1" stop-color="#39FF14"/>
</linearGradient>
<clipPath id="clip0_80_15310">
<rect width="48" height="47.4737" fill="white" transform="translate(0 0.831177)"/>
</clipPath>
</defs>
</svg>
