<svg width="546" height="81" viewBox="0 0 546 81" fill="none" xmlns="http://www.w3.org/2000/svg">
<g opacity="0.1">
<mask id="path-1-outside-1_84_3292" maskUnits="userSpaceOnUse" x="-1" y="-1" width="548" height="83" fill="black">
<rect fill="white" x="-1" y="-1" width="548" height="83"/>
<path d="M46.3189 80L21.8739 45.8213V80H0.194199V2.01946H21.8739V35.6451L46.0976 2.01946H71.0957L42.4475 39.8483L72.5336 80H46.3189ZM152.681 80H131.001L102.131 36.4194V80H80.4518V2.01946H102.131L131.001 46.1531V2.01946H152.681V80ZM202.416 80.7743C195.116 80.7743 188.406 79.0782 182.285 75.6862C176.165 72.2204 171.298 67.4641 167.685 61.4174C164.145 55.2969 162.375 48.4022 162.375 40.7332C162.375 33.0642 164.145 26.2063 167.685 20.1596C171.298 14.0392 176.165 9.2829 182.285 5.89084C188.406 2.49878 195.116 0.802746 202.416 0.802746C209.791 0.802746 216.501 2.49878 222.548 5.89084C228.668 9.2829 233.498 14.0392 237.038 20.1596C240.577 26.2063 242.347 33.0642 242.347 40.7332C242.347 48.4022 240.577 55.2969 237.038 61.4174C233.498 67.4641 228.668 72.2204 222.548 75.6862C216.427 79.0782 209.717 80.7743 202.416 80.7743ZM202.416 60.6431C207.947 60.6431 212.298 58.8365 215.469 55.2232C218.713 51.6099 220.335 46.7799 220.335 40.7332C220.335 34.539 218.713 29.6721 215.469 26.1326C212.298 22.5193 207.947 20.7127 202.416 20.7127C196.812 20.7127 192.425 22.5193 189.254 26.1326C186.083 29.6721 184.498 34.539 184.498 40.7332C184.498 46.8537 186.083 51.7205 189.254 55.3338C192.425 58.8734 196.812 60.6431 202.416 60.6431ZM361.929 2.01946L342.794 80H316.136L305.407 32.2162L294.457 80H267.799L248.885 2.01946H272.335L281.405 55.3338L293.682 2.01946H317.464L329.41 54.8914L338.48 2.01946H361.929ZM483.333 2.01946V80H461.653V36.9724L446.942 80H428.802L413.98 36.6406V80H392.3V2.01946H418.515L438.093 52.6792L457.229 2.01946H483.333ZM517.354 19.3853V32.1056H542.241V48.5866H517.354V62.6341H545.559V80H495.674V2.01946H545.559V19.3853H517.354Z"/>
</mask>
<path d="M46.3189 80L45.5055 80.5817L45.8046 81H46.3189V80ZM21.8739 45.8213L22.6873 45.2396L20.8739 42.7041V45.8213H21.8739ZM21.8739 80V81H22.8739V80H21.8739ZM0.194199 80H-0.805801V81H0.194199V80ZM0.194199 2.01946V1.01946H-0.805801V2.01946H0.194199ZM21.8739 2.01946H22.8739V1.01946H21.8739V2.01946ZM21.8739 35.6451H20.8739V38.7441L22.6853 36.2296L21.8739 35.6451ZM46.0976 2.01946V1.01946H45.5856L45.2863 1.43495L46.0976 2.01946ZM71.0956 2.01946L71.8928 2.62318L73.1074 1.01946H71.0956V2.01946ZM42.4475 39.8483L41.6503 39.2446L41.1955 39.8451L41.6472 40.448L42.4475 39.8483ZM72.5336 80V81H74.5325L73.3339 79.4004L72.5336 80ZM47.1322 79.4183L22.6873 45.2396L21.0605 46.403L45.5055 80.5817L47.1322 79.4183ZM20.8739 45.8213V80H22.8739V45.8213H20.8739ZM21.8739 79H0.194199V81H21.8739V79ZM1.1942 80V2.01946H-0.805801V80H1.1942ZM0.194199 3.01946H21.8739V1.01946H0.194199V3.01946ZM20.8739 2.01946V35.6451H22.8739V2.01946H20.8739ZM22.6853 36.2296L46.909 2.60398L45.2863 1.43495L21.0625 35.0606L22.6853 36.2296ZM46.0976 3.01946H71.0956V1.01946H46.0976V3.01946ZM70.2985 1.41574L41.6503 39.2446L43.2447 40.452L71.8928 2.62318L70.2985 1.41574ZM41.6472 40.448L71.7333 80.5996L73.3339 79.4004L43.2477 39.2487L41.6472 40.448ZM72.5336 79H46.3189V81H72.5336V79ZM152.681 80V81H153.681V80H152.681ZM131.001 80L130.167 80.5523L130.464 81H131.001V80ZM102.131 36.4194L102.965 35.8671L101.131 33.0991V36.4194H102.131ZM102.131 80V81H103.131V80H102.131ZM80.4518 80H79.4518V81H80.4518V80ZM80.4518 2.01946V1.01946H79.4518V2.01946H80.4518ZM102.131 2.01946L102.968 1.47204L102.672 1.01946H102.131V2.01946ZM131.001 46.1531L130.164 46.7005L132.001 49.5086V46.1531H131.001ZM131.001 2.01946V1.01946H130.001V2.01946H131.001ZM152.681 2.01946H153.681V1.01946H152.681V2.01946ZM152.681 79H131.001V81H152.681V79ZM131.835 79.4477L102.965 35.8671L101.298 36.9716L130.167 80.5523L131.835 79.4477ZM101.131 36.4194V80H103.131V36.4194H101.131ZM102.131 79H80.4518V81H102.131V79ZM81.4518 80V2.01946H79.4518V80H81.4518ZM80.4518 3.01946H102.131V1.01946H80.4518V3.01946ZM101.295 2.56688L130.164 46.7005L131.838 45.6057L102.968 1.47204L101.295 2.56688ZM132.001 46.1531V2.01946H130.001V46.1531H132.001ZM131.001 3.01946H152.681V1.01946H131.001V3.01946ZM151.681 2.01946V80H153.681V2.01946H151.681ZM182.285 75.6862L181.793 76.5564L181.801 76.5608L182.285 75.6862ZM167.685 61.4174L166.819 61.918L166.823 61.9242L166.826 61.9304L167.685 61.4174ZM167.685 20.1596L166.824 19.6512L166.822 19.6544L167.685 20.1596ZM222.548 5.89084L222.058 6.76299L222.063 6.76549L222.548 5.89084ZM237.038 20.1596L236.172 20.6602L236.175 20.6648L237.038 20.1596ZM237.038 61.4174L237.901 61.9226L237.903 61.918L237.038 61.4174ZM222.548 75.6862L223.032 76.5609L223.04 76.5564L222.548 75.6862ZM215.469 55.2232L214.724 54.555L214.717 54.5636L215.469 55.2232ZM215.469 26.1326L214.717 26.7922L214.724 26.8003L214.731 26.8083L215.469 26.1326ZM189.254 26.1326L189.999 26.7999L190.005 26.7922L189.254 26.1326ZM189.254 55.3338L188.502 55.9934L188.509 56.0011L189.254 55.3338ZM202.416 79.7743C195.278 79.7743 188.736 78.1178 182.77 74.8115L181.801 76.5608C188.076 80.0387 194.954 81.7743 202.416 81.7743V79.7743ZM182.778 74.816C176.809 71.4357 172.068 66.8027 168.543 60.9044L166.826 61.9304C170.528 68.1256 175.521 73.005 181.793 76.5564L182.778 74.816ZM168.55 60.9168C165.106 54.9613 163.375 48.2418 163.375 40.7332H161.375C161.375 48.5626 163.184 55.6326 166.819 61.918L168.55 60.9168ZM163.375 40.7332C163.375 33.2245 165.106 26.544 168.548 20.6648L166.822 19.6544C163.184 25.8687 161.375 32.9039 161.375 40.7332H163.375ZM168.546 20.668C172.07 14.6985 176.808 10.0698 182.77 6.76549L181.801 5.01618C175.522 8.49604 170.526 13.3799 166.824 19.6512L168.546 20.668ZM182.77 6.76549C188.736 3.45926 195.278 1.80275 202.416 1.80275V-0.197254C194.954 -0.197254 188.076 1.53829 181.801 5.01618L182.77 6.76549ZM202.416 1.80275C209.63 1.80275 216.171 3.4601 222.058 6.76298L223.037 5.01869C216.831 1.53746 209.951 -0.197254 202.416 -0.197254V1.80275ZM222.063 6.76549C228.023 10.0687 232.722 14.695 236.172 20.6602L237.903 19.659C234.274 13.3834 229.313 8.49706 223.032 5.01618L222.063 6.76549ZM236.175 20.6648C239.616 26.544 241.347 33.2245 241.347 40.7332H243.347C243.347 32.9039 241.538 25.8687 237.901 19.6544L236.175 20.6648ZM241.347 40.7332C241.347 48.2418 239.616 54.9613 236.172 60.9168L237.903 61.918C241.538 55.6326 243.347 48.5626 243.347 40.7332H241.347ZM236.175 60.9122C232.724 66.8061 228.022 71.4367 222.055 74.816L223.04 76.5564C229.314 73.004 234.272 68.1221 237.901 61.9226L236.175 60.9122ZM222.063 74.8115C216.097 78.1178 209.555 79.7743 202.416 79.7743V81.7743C209.879 81.7743 216.757 80.0387 223.032 76.5608L222.063 74.8115ZM202.416 61.6431C208.187 61.6431 212.83 59.7461 216.22 55.8828L214.717 54.5636C211.765 57.9269 207.707 59.6431 202.416 59.6431V61.6431ZM216.213 55.8913C219.66 52.0526 221.335 46.9636 221.335 40.7332H219.335C219.335 46.5962 217.767 51.1673 214.724 54.5551L216.213 55.8913ZM221.335 40.7332C221.335 34.3637 219.664 29.2294 216.206 25.4569L214.731 26.8083C217.762 30.1148 219.335 34.7144 219.335 40.7332H221.335ZM216.22 25.473C212.83 21.6097 208.187 19.7127 202.416 19.7127V21.7127C207.707 21.7127 211.765 23.4289 214.717 26.7922L216.22 25.473ZM202.416 19.7127C196.577 19.7127 191.895 21.6067 188.502 25.473L190.005 26.7922C192.954 23.4319 197.047 21.7127 202.416 21.7127V19.7127ZM188.509 25.4653C185.129 29.2383 183.498 34.3693 183.498 40.7332H185.498C185.498 34.7087 187.037 30.106 189.999 26.7998L188.509 25.4653ZM183.498 40.7332C183.498 47.0281 185.131 52.1522 188.502 55.9934L190.005 54.6742C187.035 51.2889 185.498 46.6792 185.498 40.7332H183.498ZM188.509 56.0011C191.904 59.7907 196.584 61.6431 202.416 61.6431V59.6431C197.041 59.6431 192.945 57.956 189.999 54.6666L188.509 56.0011ZM361.929 2.01946L362.9 2.25778L363.204 1.01946H361.929V2.01946ZM342.794 80V81H343.578L343.765 80.2383L342.794 80ZM316.136 80L315.161 80.2191L315.336 81H316.136V80ZM305.407 32.2162L306.383 31.9971L304.432 31.9928L305.407 32.2162ZM294.457 80V81H295.253L295.431 80.2234L294.457 80ZM267.799 80L266.828 80.2357L267.013 81H267.799V80ZM248.885 2.01946V1.01946H247.613L247.913 2.25518L248.885 2.01946ZM272.335 2.01946L273.32 1.85175L273.179 1.01946H272.335V2.01946ZM281.405 55.3338L280.419 55.5015L282.379 55.5582L281.405 55.3338ZM293.682 2.01946V1.01946H292.887L292.708 1.79504L293.682 2.01946ZM317.464 2.01946L318.439 1.79907L318.263 1.01946H317.464V2.01946ZM329.41 54.8914L328.434 55.1118L330.395 55.0605L329.41 54.8914ZM338.48 2.01946V1.01946H337.637L337.494 1.85038L338.48 2.01946ZM360.958 1.78114L341.822 79.7617L343.765 80.2383L362.9 2.25778L360.958 1.78114ZM342.794 79H316.136V81H342.794V79ZM317.112 79.7809L306.383 31.9971L304.431 32.4353L315.161 80.2191L317.112 79.7809ZM304.432 31.9928L293.482 79.7766L295.431 80.2234L306.382 32.4396L304.432 31.9928ZM294.457 79H267.799V81H294.457V79ZM268.771 79.7643L249.857 1.78374L247.913 2.25518L266.828 80.2357L268.771 79.7643ZM248.885 3.01946H272.335V1.01946H248.885V3.01946ZM271.349 2.18718L280.419 55.5015L282.39 55.1661L273.32 1.85175L271.349 2.18718ZM282.379 55.5582L294.657 2.24388L292.708 1.79504L280.43 55.1094L282.379 55.5582ZM293.682 3.01946H317.464V1.01946H293.682V3.01946ZM316.488 2.23985L328.434 55.1118L330.385 54.671L318.439 1.79907L316.488 2.23985ZM330.395 55.0605L339.465 2.18854L337.494 1.85038L328.424 54.7223L330.395 55.0605ZM338.48 3.01946H361.929V1.01946H338.48V3.01946ZM483.333 2.01946H484.333V1.01946H483.333V2.01946ZM483.333 80V81H484.333V80H483.333ZM461.653 80H460.653V81H461.653V80ZM461.653 36.9724H462.653L460.707 36.6489L461.653 36.9724ZM446.942 80V81H447.657L447.888 80.3235L446.942 80ZM428.802 80L427.856 80.3235L428.087 81H428.802V80ZM413.98 36.6406L414.926 36.3172L412.98 36.6406H413.98ZM413.98 80V81H414.98V80H413.98ZM392.3 80H391.3V81H392.3V80ZM392.3 2.01946V1.01946H391.3V2.01946H392.3ZM418.515 2.01946L419.448 1.65898L419.201 1.01946H418.515V2.01946ZM438.093 52.6792L437.161 53.0396L438.104 55.4809L439.029 53.0325L438.093 52.6792ZM457.229 2.01946V1.01946H456.538L456.293 1.6661L457.229 2.01946ZM482.333 2.01946V80H484.333V2.01946H482.333ZM483.333 79H461.653V81H483.333V79ZM462.653 80V36.9724H460.653V80H462.653ZM460.707 36.6489L445.996 79.6765L447.888 80.3235L462.6 37.296L460.707 36.6489ZM446.942 79H428.802V81H446.942V79ZM429.748 79.6765L414.926 36.3172L413.034 36.9641L427.856 80.3235L429.748 79.6765ZM412.98 36.6406V80H414.98V36.6406H412.98ZM413.98 79H392.3V81H413.98V79ZM393.3 80V2.01946H391.3V80H393.3ZM392.3 3.01946H418.515V1.01946H392.3V3.01946ZM417.582 2.37994L437.161 53.0396L439.026 52.3187L419.448 1.65898L417.582 2.37994ZM439.029 53.0325L458.164 2.37282L456.293 1.6661L437.158 52.3258L439.029 53.0325ZM457.229 3.01946H483.333V1.01946H457.229V3.01946ZM517.354 19.3853V18.3853H516.354V19.3853H517.354ZM517.354 32.1056H516.354V33.1056H517.354V32.1056ZM542.241 32.1056H543.241V31.1056H542.241V32.1056ZM542.241 48.5866V49.5866H543.241V48.5866H542.241ZM517.354 48.5866V47.5866H516.354V48.5866H517.354ZM517.354 62.6341H516.354V63.6341H517.354V62.6341ZM545.559 62.6341H546.559V61.6341H545.559V62.6341ZM545.559 80V81H546.559V80H545.559ZM495.674 80H494.674V81H495.674V80ZM495.674 2.01946V1.01946H494.674V2.01946H495.674ZM545.559 2.01946H546.559V1.01946H545.559V2.01946ZM545.559 19.3853V20.3853H546.559V19.3853H545.559ZM516.354 19.3853V32.1056H518.354V19.3853H516.354ZM517.354 33.1056H542.241V31.1056H517.354V33.1056ZM541.241 32.1056V48.5866H543.241V32.1056H541.241ZM542.241 47.5866H517.354V49.5866H542.241V47.5866ZM516.354 48.5866V62.6341H518.354V48.5866H516.354ZM517.354 63.6341H545.559V61.6341H517.354V63.6341ZM544.559 62.6341V80H546.559V62.6341H544.559ZM545.559 79H495.674V81H545.559V79ZM496.674 80V2.01946H494.674V80H496.674ZM495.674 3.01946H545.559V1.01946H495.674V3.01946ZM544.559 2.01946V19.3853H546.559V2.01946H544.559ZM545.559 18.3853H517.354V20.3853H545.559V18.3853Z" fill="url(#paint0_linear_84_3292)" mask="url(#path-1-outside-1_84_3292)"/>
</g>
<defs>
<linearGradient id="paint0_linear_84_3292" x1="308.086" y1="2" x2="309.056" y2="64.521" gradientUnits="userSpaceOnUse">
<stop stop-color="white"/>
<stop offset="1" stop-color="white" stop-opacity="0"/>
</linearGradient>
</defs>
</svg>
