<svg width="24" height="24" viewBox="0 0 24 24" fill="none" xmlns="http://www.w3.org/2000/svg">
<g clip-path="url(#clip0_18_385)">
<path d="M10.1855 13.6903H13.815V15.0624H10.1855V13.6903ZM8.74127 10.4916L9.87049 12.2841H14.13L15.2588 10.4916L12.7031 7.42548V10.1747C12.7031 10.5628 12.3886 10.8778 12 10.8778C11.6119 10.8778 11.2969 10.5628 11.2969 10.1747V7.42548L8.74127 10.4916Z" fill="#FFC0CB"/>
<path d="M4.88904 5.80922C5.27736 5.80922 5.59216 5.49442 5.59216 5.10609C5.59216 4.71777 5.27736 4.40297 4.88904 4.40297C4.50071 4.40297 4.18591 4.71777 4.18591 5.10609C4.18591 5.49442 4.50071 5.80922 4.88904 5.80922Z" fill="#FFC0CB"/>
<path d="M19.111 5.80922C19.4993 5.80922 19.8141 5.49442 19.8141 5.10609C19.8141 4.71777 19.4993 4.40297 19.111 4.40297C18.7226 4.40297 18.4078 4.71777 18.4078 5.10609C18.4078 5.49442 18.7226 5.80922 19.111 5.80922Z" fill="#FFC0CB"/>
<path d="M23.2969 0H0.703125C0.315 0 0 0.315 0 0.703125V15.0623H8.77922V13.1902L7.27875 10.8084C7.11656 10.5506 7.13859 10.2178 7.33359 9.98344L11.4572 5.03672C11.4577 5.03672 11.4577 5.03625 11.4581 5.03625C11.7232 4.70044 12.2732 4.70016 12.5405 5.03344L16.6664 9.98344C16.8614 10.2178 16.8834 10.5506 16.7213 10.8084L15.2213 13.1902V15.0623H24V0.703125C24 0.315 23.685 0 23.2969 0ZM19.1109 7.21547C17.948 7.21547 17.0016 6.26953 17.0016 5.10609C17.0016 4.97203 17.0147 4.84078 17.0391 4.71375C15.833 4.15266 14.1023 3.59297 12 3.59297C9.89766 3.59297 8.1675 4.15266 6.96141 4.71328C6.98531 4.84078 6.99844 4.97203 6.99844 5.10609C6.99844 6.26953 6.0525 7.21547 4.88906 7.21547C3.72609 7.21547 2.77969 6.26953 2.77969 5.10609C2.77969 3.94313 3.72609 2.99672 4.88906 2.99672C5.40656 2.99672 5.88094 3.18469 6.24844 3.495C7.60031 2.85 9.57938 2.18672 12 2.18672C14.4206 2.18672 16.3997 2.85 17.7516 3.495C18.1191 3.18469 18.5934 2.99672 19.1109 2.99672C20.2744 2.99672 21.2203 3.94313 21.2203 5.10609C21.2203 6.26953 20.2744 7.21547 19.1109 7.21547ZM0 18.578C0 18.9661 0.315 19.2811 0.703125 19.2811H23.2969C23.685 19.2811 24 18.9661 24 18.578V16.4686H0V18.578ZM18.7781 22.5938H16.1869C15.5578 22.0012 15.1139 21.3192 14.8036 20.6873H9.19641C9.12082 20.8415 9.03983 20.993 8.95359 21.1416C8.58047 21.7837 8.15578 22.2586 7.81312 22.5938H5.22188C4.83375 22.5938 4.51875 22.9088 4.51875 23.2969C4.51875 23.685 4.83375 24 5.22188 24H18.7781C19.1639 24 19.4813 23.6827 19.4813 23.2969C19.4813 22.9111 19.1639 22.5938 18.7781 22.5938Z" fill="#FFC0CB"/>
</g>
<defs>
<clipPath id="clip0_18_385">
<rect width="24" height="24" fill="white"/>
</clipPath>
</defs>
</svg>
