<svg width="41" height="40" viewBox="0 0 41 40" fill="none" xmlns="http://www.w3.org/2000/svg">
<path d="M20.3968 2C10.4719 2 2.39713 10.0748 2.39713 20C2.39713 29.9252 10.4719 38 20.3968 38C30.3221 38 38.3971 29.9252 38.3971 20C38.3971 10.0748 30.3221 2 20.3968 2ZM20.3968 36.2247C11.4507 36.2247 4.17245 28.9461 4.17245 20C4.17245 11.0539 11.4507 3.77532 20.3968 3.77532C29.3436 3.77532 36.6218 11.0539 36.6218 20C36.6218 28.9461 29.3436 36.2247 20.3968 36.2247Z" fill="#FFC0CB"/>
<path d="M18.4055 19.5982C18.9591 19.3476 19.3979 18.9718 19.7213 18.4703C20.0418 17.9789 20.2106 17.4041 20.2066 16.8175C20.2066 16.2639 20.0755 15.7638 19.8133 15.3182C19.5509 14.8723 19.2227 14.5152 18.8295 14.2471C18.436 13.979 17.9901 13.803 17.4918 13.7183C16.9935 13.6337 16.2375 13.5914 15.2229 13.5914H10.0988V26.4095H14.4616C16.1112 26.3974 17.1518 26.3684 17.5832 26.3217C18.2709 26.2459 18.8496 26.0432 19.3186 25.7142C19.7882 25.3849 20.1583 24.9443 20.4294 24.3937C20.7004 23.843 20.8356 23.2761 20.8356 22.6929C20.8356 21.9526 20.6258 21.3087 20.2063 20.7605C19.787 20.2134 19.1861 19.8254 18.4055 19.5982ZM12.6866 15.7247H14.1731C15.3913 15.7247 16.1287 15.7392 16.3855 15.7682C16.8166 15.8209 17.1418 15.9712 17.3601 16.2183C17.5788 16.4665 17.688 16.7885 17.688 17.1847C17.688 17.5986 17.5613 17.9324 17.3078 18.1859C17.0542 18.4395 16.7059 18.5925 16.263 18.6452C16.0183 18.6744 15.3916 18.6886 14.3829 18.6886H12.6866V15.7247ZM17.7978 23.6593C17.5557 23.9303 17.2424 24.1007 16.8577 24.1708C16.6068 24.2235 16.015 24.2496 15.0827 24.2496H12.6866V20.8223H14.7764C15.9538 20.8223 16.7187 20.8829 17.0716 21.0054C17.424 21.1279 17.6939 21.3232 17.8803 21.5913C18.0667 21.8594 18.1599 22.186 18.1599 22.571C18.1602 23.0255 18.0395 23.3882 17.7978 23.6593ZM29.3415 17.9853C28.5018 17.0734 27.3564 16.6171 25.9042 16.6171C24.6114 16.6171 23.5424 17.053 22.6968 17.9244C21.8511 18.7958 21.4289 20.0006 21.4289 21.5395C21.4289 22.8278 21.7502 23.8945 22.3941 24.7398C23.2083 25.795 24.4647 26.3222 26.1613 26.3222C27.2339 26.3222 28.1269 26.0876 28.8406 25.6183C29.5542 25.1496 30.4679 24.18 30.4854 23.3217L27.8345 23.3373C27.6934 23.8037 27.4848 23.9614 27.2099 24.1711C26.9336 24.3809 26.5939 24.486 26.1894 24.486C25.5953 24.486 25.0988 24.2836 24.7008 23.8785C24.3025 23.4728 24.0945 22.9059 24.0762 22.1778H30.5458C30.5816 20.2953 30.1806 18.8978 29.3415 17.9853ZM24.1212 20.6738C24.1149 20.0039 24.2957 19.4733 24.6632 19.0828C25.0307 18.6925 25.4964 18.4972 26.0607 18.4972C26.5871 18.4972 27.0345 18.6821 27.402 19.0523C27.7694 19.4224 27.9627 19.963 27.981 20.6738H24.1212ZM23.4329 14.1394H28.6041V15.3901H23.4329V14.1394Z" fill="#FFC0CB"/>
</svg>
