<svg width="36" height="37" viewBox="0 0 36 37" fill="none" xmlns="http://www.w3.org/2000/svg">
<path d="M26.2895 24.9474H9.71053C9.46625 24.9474 9.23198 25.0444 9.05924 25.2171C8.88651 25.3899 8.78947 25.6241 8.78947 25.8684C8.78947 26.1127 8.88651 26.347 9.05924 26.5197C9.23198 26.6924 9.46625 26.7895 9.71053 26.7895H26.2895C26.5338 26.7895 26.768 26.6924 26.9408 26.5197C27.1135 26.347 27.2105 26.1127 27.2105 25.8684C27.2105 25.6241 27.1135 25.3899 26.9408 25.2171C26.768 25.0444 26.5338 24.9474 26.2895 24.9474ZM18 9.28947C17.7557 9.28947 17.5214 9.38651 17.3487 9.55924C17.176 9.73198 17.0789 9.96625 17.0789 10.2105V19.9645L14.0487 16.925C13.8752 16.7516 13.64 16.6541 13.3947 16.6541C13.1495 16.6541 12.9142 16.7516 12.7408 16.925C12.5674 17.0984 12.4699 17.3337 12.4699 17.5789C12.4699 17.8242 12.5674 18.0595 12.7408 18.2329L17.3461 22.8382C17.4317 22.9245 17.5335 22.993 17.6458 23.0398C17.758 23.0865 17.8784 23.1106 18 23.1106C18.1216 23.1106 18.242 23.0865 18.3542 23.0398C18.4665 22.993 18.5683 22.9245 18.6539 22.8382L23.2592 18.2329C23.3451 18.147 23.4132 18.0451 23.4597 17.9329C23.5062 17.8207 23.5301 17.7004 23.5301 17.5789C23.5301 17.4575 23.5062 17.3372 23.4597 17.225C23.4132 17.1128 23.3451 17.0109 23.2592 16.925C23.1733 16.8391 23.0714 16.771 22.9592 16.7245C22.847 16.678 22.7267 16.6541 22.6053 16.6541C22.4838 16.6541 22.3636 16.678 22.2514 16.7245C22.1391 16.771 22.0372 16.8391 21.9513 16.925L18.9211 19.9645V10.2105C18.9211 9.96625 18.824 9.73198 18.6513 9.55924C18.4786 9.38651 18.2443 9.28947 18 9.28947Z" fill="#FFC0CB"/>
<circle cx="18" cy="18.5" r="17.3684" stroke="#FFC0CB" stroke-width="1.26316"/>
</svg>
