<svg width="36" height="35" viewBox="0 0 36 35" fill="none" xmlns="http://www.w3.org/2000/svg">
<path d="M29.7581 16.0608C29.9335 16.2435 30.0139 16.5066 29.9408 16.7696C29.3489 18.8889 28.4719 21.2493 27.4123 23.595C24.8912 29.1927 20.3823 34.7831 18.5115 34.7831C18.4019 34.7831 18.2996 34.7685 18.2046 34.7246C17.9196 34.5931 17.0354 34.1985 17.7077 29.675C17.9708 27.9358 18.6723 24.4208 20.4554 20.46C21.5223 18.107 22.7135 15.8927 23.9046 14.0439C24.0508 13.8246 24.2992 13.7077 24.5477 13.715C24.9204 12.955 25.3296 12.1293 25.7316 11.3254C26.3271 12.0786 27.0971 12.6756 27.975 13.0646C28.7496 13.4154 29.6119 13.6054 30.4669 13.6054C30.5692 13.6054 30.6715 13.6054 30.7739 13.5981C30.4377 14.4239 30.0796 15.2789 29.7581 16.0608ZM35.5385 4.60234C35.5458 6.31964 35.195 8.30734 34.6908 9.42541C34.1852 10.5421 33.2571 11.4125 32.1103 11.8455C30.9635 12.2784 29.6917 12.2386 28.5742 11.7346C28.0206 11.4877 27.5217 11.1331 27.1064 10.6915C26.6911 10.2499 26.3679 9.73007 26.1554 9.16234C25.7169 8.00772 25.7535 6.7508 26.265 5.62541C27.2662 3.81311 28.4208 3.49157 29.4366 3.20657C30.5327 2.90695 31.5704 2.61464 32.8419 0.517337C33.0319 0.203106 33.4265 0.0788751 33.7627 0.232337C35.2242 0.890029 35.5385 2.97272 35.5385 4.60234ZM24.7889 9.68118C24.3171 8.45181 24.2606 7.10181 24.6281 5.83734C23.9777 5.25272 23.2835 4.74849 22.5527 4.30272C20.3969 2.99464 17.9196 2.24195 15.3473 2.1908C11.4012 2.11772 7.65963 3.59387 4.83886 6.35618C2.01809 9.1258 0.461548 12.8235 0.461548 16.777C0.461548 22.2285 3.46501 27.1831 8.29539 29.7043C8.85719 30.0058 9.48473 30.1639 10.1223 30.1646C10.8604 30.1646 11.6058 29.9527 12.2708 29.5362C13.4765 28.7762 14.1635 27.4973 14.1196 26.1016C14.0392 23.69 14.8285 21.695 16.3412 20.4893C17.1815 19.8243 18.2192 19.4296 19.3739 19.32C20.3969 17.0985 21.5442 15.0158 22.6769 13.2546C22.8962 12.9185 23.1885 12.6627 23.5246 12.4946C23.9485 11.6396 24.4089 10.697 24.8546 9.82734C24.8254 9.78349 24.8108 9.73234 24.7889 9.68118ZM8.66809 22.2577C7.33809 22.2577 6.27116 21.1835 6.27116 19.8608C6.27116 19.5465 6.33307 19.2353 6.45334 18.9449C6.57361 18.6546 6.7499 18.3907 6.97214 18.1685C7.19437 17.9463 7.4582 17.77 7.74857 17.6497C8.03893 17.5294 8.35014 17.4675 8.66443 17.4675C8.97872 17.4675 9.28993 17.5294 9.5803 17.6497C9.87066 17.77 10.1345 17.9463 10.3567 18.1685C10.579 18.3907 10.7553 18.6546 10.8755 18.9449C10.9958 19.2353 11.0577 19.5465 11.0577 19.8608C11.0577 21.1835 9.99078 22.2577 8.66809 22.2577ZM9.95424 14.0804C8.62424 14.0804 7.55732 13.0062 7.55732 11.6835C7.55732 10.3608 8.62424 9.27926 9.95424 9.27926C11.2769 9.27926 12.3439 10.3608 12.3439 11.6835C12.3439 13.0062 11.2769 14.0804 9.95424 14.0804ZM18.3435 12.7943C17.0135 12.7943 15.9465 11.7127 15.9465 10.3973C15.9465 9.07464 17.0135 7.99311 18.3435 7.99311C19.6662 7.99311 20.7331 9.07464 20.7331 10.3973C20.7331 11.7127 19.6662 12.7943 18.3435 12.7943Z" fill="#FFC0CB"/>
</svg>
