<svg width="1269" height="120" viewBox="0 0 1269 120" fill="none" xmlns="http://www.w3.org/2000/svg">
<g opacity="0.9">
<mask id="path-1-outside-1_84_3515" maskUnits="userSpaceOnUse" x="-2" y="-2" width="1272" height="123" fill="black">
<rect fill="white" x="-2" y="-2" width="1272" height="123"/>
<path d="M32.4385 93.3342H68.4506V118H0.208564V2.07075H32.4385V93.3342ZM113.213 27.8876V46.7981H150.211V71.2994H113.213V92.1831H155.144V118H80.9826V2.07075H155.144V27.8876H113.213ZM258.388 2.07075V27.7232H227.473V118H195.243V27.7232H164.657V2.07075H258.388ZM278.205 2.07075H310.764L291.853 48.4425H270.312L278.205 2.07075ZM370.9 119.151C357.416 119.151 346.343 115.972 337.683 109.614C329.022 103.146 324.363 93.9371 323.706 81.9879H358.073C358.402 86.0441 359.608 89.004 361.691 90.8676C363.774 92.7313 366.46 93.6631 369.748 93.6631C372.708 93.6631 375.12 92.9505 376.984 91.5254C378.957 89.9906 379.944 87.9077 379.944 85.2767C379.944 81.8783 378.354 79.2473 375.175 77.3837C371.996 75.52 366.843 73.4371 359.718 71.135C352.154 68.6136 346.014 66.2018 341.301 63.8997C336.696 61.4879 332.64 58.0347 329.132 53.54C325.734 48.9358 324.035 42.9612 324.035 35.6162C324.035 28.1617 325.898 21.8034 329.625 16.5413C333.353 11.1697 338.505 7.11354 345.083 4.37289C351.66 1.63225 359.115 0.261927 367.446 0.261927C380.93 0.261927 391.674 3.44107 399.676 9.79936C407.789 16.048 412.119 24.8729 412.667 36.274H377.642C377.532 32.766 376.436 30.1349 374.353 28.3809C372.379 26.6269 369.803 25.7499 366.624 25.7499C364.212 25.7499 362.239 26.4625 360.704 27.8876C359.17 29.3128 358.402 31.3408 358.402 33.9718C358.402 36.1644 359.224 38.0828 360.869 39.7272C362.623 41.262 364.76 42.6323 367.282 43.8382C369.803 44.9344 373.531 46.3596 378.464 48.1136C385.809 50.635 391.838 53.1564 396.552 55.6778C401.375 58.0895 405.486 61.5427 408.885 66.0374C412.393 70.4224 414.147 76.0133 414.147 82.8101C414.147 89.7166 412.393 95.9104 408.885 101.392C405.486 106.873 400.498 111.203 393.921 114.382C387.453 117.561 379.779 119.151 370.9 119.151ZM456.658 59.7887C456.658 48.3876 459.015 38.2473 463.729 29.3676C468.553 20.3783 475.349 13.417 484.119 8.48386C492.889 3.44108 502.975 0.919683 514.376 0.919683C528.847 0.919683 541.015 4.8114 550.881 12.5948C560.748 20.2686 567.106 30.7379 569.956 44.0026H535.26C533.177 39.6176 530.272 36.274 526.545 33.9718C522.927 31.6697 518.706 30.5186 513.883 30.5186C506.428 30.5186 500.454 33.2045 495.959 38.5761C491.574 43.8382 489.381 50.909 489.381 59.7887C489.381 68.778 491.574 75.9585 495.959 81.3302C500.454 86.5922 506.428 89.2232 513.883 89.2232C518.706 89.2232 522.927 88.0722 526.545 85.77C530.272 83.4679 533.177 80.1243 535.26 75.7393H569.956C567.106 89.004 560.748 99.5281 550.881 107.311C541.015 114.985 528.847 118.822 514.376 118.822C502.975 118.822 492.889 116.356 484.119 111.422C475.349 106.38 468.553 99.4184 463.729 90.5387C459.015 81.5494 456.658 71.2994 456.658 59.7887ZM640.799 119.151C629.946 119.151 619.97 116.63 610.871 111.587C601.772 106.434 594.537 99.3636 589.165 90.3743C583.903 81.2754 581.272 71.0254 581.272 59.6243C581.272 48.2232 583.903 38.028 589.165 29.0387C594.537 19.9398 601.772 12.8689 610.871 7.82611C619.97 2.78332 629.946 0.261927 640.799 0.261927C651.761 0.261927 661.737 2.78332 670.726 7.82611C679.825 12.8689 687.006 19.9398 692.268 29.0387C697.53 38.028 700.161 48.2232 700.161 59.6243C700.161 71.0254 697.53 81.2754 692.268 90.3743C687.006 99.3636 679.825 106.434 670.726 111.587C661.627 116.63 651.652 119.151 640.799 119.151ZM640.799 89.2232C649.021 89.2232 655.488 86.5374 660.202 81.1657C665.026 75.7941 667.438 68.6136 667.438 59.6243C667.438 50.4157 665.026 43.1804 660.202 37.9184C655.488 32.5467 649.021 29.8609 640.799 29.8609C632.467 29.8609 625.944 32.5467 621.23 37.9184C616.516 43.1804 614.16 50.4157 614.16 59.6243C614.16 68.7232 616.516 75.9585 621.23 81.3302C625.944 86.5922 632.467 89.2232 640.799 89.2232ZM822.028 118H789.798L746.88 53.2112V118H714.65V2.07075H746.88L789.798 67.6818V2.07075H822.028V118ZM947.766 118H915.536L872.617 53.2112V118H840.387V2.07075H872.617L915.536 67.6818V2.07075H947.766V118ZM998.355 27.8876V46.7981H1035.35V71.2994H998.355V92.1831H1040.29V118H966.125V2.07075H1040.29V27.8876H998.355ZM1052.27 59.7887C1052.27 48.3876 1054.62 38.2473 1059.34 29.3676C1064.16 20.3783 1070.96 13.417 1079.73 8.48386C1088.5 3.44108 1098.58 0.919683 1109.98 0.919683C1124.46 0.919683 1136.62 4.8114 1146.49 12.5948C1156.36 20.2686 1162.71 30.7379 1165.56 44.0026H1130.87C1128.79 39.6176 1125.88 36.274 1122.15 33.9718C1118.54 31.6697 1114.31 30.5186 1109.49 30.5186C1102.04 30.5186 1096.06 33.2045 1091.57 38.5761C1087.18 43.8382 1084.99 50.909 1084.99 59.7887C1084.99 68.778 1087.18 75.9585 1091.57 81.3302C1096.06 86.5922 1102.04 89.2232 1109.49 89.2232C1114.31 89.2232 1118.54 88.0722 1122.15 85.77C1125.88 83.4679 1128.79 80.1243 1130.87 75.7393H1165.56C1162.71 89.004 1156.36 99.5281 1146.49 107.311C1136.62 114.985 1124.46 118.822 1109.98 118.822C1098.58 118.822 1088.5 116.356 1079.73 111.422C1070.96 106.38 1064.16 99.4184 1059.34 90.5387C1054.62 81.5494 1052.27 71.2994 1052.27 59.7887ZM1268.14 2.07075V27.7232H1237.23V118H1205V27.7232H1174.41V2.07075H1268.14Z"/>
</mask>
<path d="M32.4385 93.3342H30.9519V94.8208H32.4385V93.3342ZM68.4506 93.3342H69.9372V91.8476H68.4506V93.3342ZM68.4506 118V119.487H69.9372V118H68.4506ZM0.208565 118H-1.27808V119.487H0.208565V118ZM0.208565 2.07075V0.584105H-1.27808V2.07075H0.208565ZM32.4385 2.07075H33.9252V0.584105H32.4385V2.07075ZM32.4385 94.8208H68.4506V91.8476H32.4385V94.8208ZM66.964 93.3342V118H69.9372V93.3342H66.964ZM68.4506 116.513H0.208565V119.487H68.4506V116.513ZM1.69521 118V2.07075H-1.27808V118H1.69521ZM0.208565 3.55739H32.4385V0.584105H0.208565V3.55739ZM30.9519 2.07075V93.3342H33.9252V2.07075H30.9519ZM113.213 27.8876V26.401H111.726V27.8876H113.213ZM113.213 46.7981H111.726V48.2847H113.213V46.7981ZM150.211 46.7981H151.698V45.3114H150.211V46.7981ZM150.211 71.2994V72.7861H151.698V71.2994H150.211ZM113.213 71.2994V69.8128H111.726V71.2994H113.213ZM113.213 92.1831H111.726V93.6698H113.213V92.1831ZM155.144 92.1831H156.631V90.6965H155.144V92.1831ZM155.144 118V119.487H156.631V118H155.144ZM80.9826 118H79.496V119.487H80.9826V118ZM80.9826 2.07075V0.584105H79.496V2.07075H80.9826ZM155.144 2.07075H156.631V0.584105H155.144V2.07075ZM155.144 27.8876V29.3743H156.631V27.8876H155.144ZM111.726 27.8876V46.7981H114.699V27.8876H111.726ZM113.213 48.2847H150.211V45.3114H113.213V48.2847ZM148.725 46.7981V71.2994H151.698V46.7981H148.725ZM150.211 69.8128H113.213V72.7861H150.211V69.8128ZM111.726 71.2994V92.1831H114.699V71.2994H111.726ZM113.213 93.6698H155.144V90.6965H113.213V93.6698ZM153.658 92.1831V118H156.631V92.1831H153.658ZM155.144 116.513H80.9826V119.487H155.144V116.513ZM82.4693 118V2.07075H79.496V118H82.4693ZM80.9826 3.55739H155.144V0.584105H80.9826V3.55739ZM153.658 2.07075V27.8876H156.631V2.07075H153.658ZM155.144 26.401H113.213V29.3743H155.144V26.401ZM258.388 2.07075H259.874V0.584105H258.388V2.07075ZM258.388 27.7232V29.2098H259.874V27.7232H258.388ZM227.473 27.7232V26.2365H225.986V27.7232H227.473ZM227.473 118V119.487H228.96V118H227.473ZM195.243 118H193.756V119.487H195.243V118ZM195.243 27.7232H196.73V26.2365H195.243V27.7232ZM164.657 27.7232H163.171V29.2098H164.657V27.7232ZM164.657 2.07075V0.584105H163.171V2.07075H164.657ZM256.901 2.07075V27.7232H259.874V2.07075H256.901ZM258.388 26.2365H227.473V29.2098H258.388V26.2365ZM225.986 27.7232V118H228.96V27.7232H225.986ZM227.473 116.513H195.243V119.487H227.473V116.513ZM196.73 118V27.7232H193.756V118H196.73ZM195.243 26.2365H164.657V29.2098H195.243V26.2365ZM166.144 27.7232V2.07075H163.171V27.7232H166.144ZM164.657 3.55739H258.388V0.584105H164.657V3.55739ZM278.205 2.07075V0.584105H276.95L276.739 1.82129L278.205 2.07075ZM310.764 2.07075L312.14 2.63212L312.976 0.584105H310.764V2.07075ZM291.853 48.4425V49.9291H292.853L293.23 49.0038L291.853 48.4425ZM270.312 48.4425L268.846 48.193L268.551 49.9291H270.312V48.4425ZM278.205 3.55739H310.764V0.584105H278.205V3.55739ZM309.387 1.50938L290.477 47.8811L293.23 49.0038L312.14 2.63212L309.387 1.50938ZM291.853 46.9558H270.312V49.9291H291.853V46.9558ZM271.777 48.6919L279.671 2.32021L276.739 1.82129L268.846 48.193L271.777 48.6919ZM337.683 109.614L336.793 110.805L336.803 110.812L337.683 109.614ZM323.706 81.9879V80.5013H322.135L322.221 82.0696L323.706 81.9879ZM358.073 81.9879L359.555 81.8678L359.444 80.5013H358.073V81.9879ZM361.691 90.8676L360.7 91.9755L361.691 90.8676ZM376.984 91.5254L377.887 92.7063L377.896 92.6989L376.984 91.5254ZM375.175 77.3837L375.927 76.1011L375.175 77.3837ZM359.718 71.135L359.248 72.5454L359.261 72.5496L359.718 71.135ZM341.301 63.8997L340.611 65.2166L340.629 65.2263L340.648 65.2355L341.301 63.8997ZM329.132 53.54L327.936 54.4229L327.948 54.439L327.96 54.4547L329.132 53.54ZM329.625 16.5413L330.839 17.4007L330.843 17.3948L330.847 17.3889L329.625 16.5413ZM345.083 4.37289L344.511 3.0006V3.0006L345.083 4.37289ZM399.676 9.79936L398.751 10.9633L398.76 10.9703L398.769 10.9771L399.676 9.79936ZM412.667 36.274V37.7606H414.227L414.152 36.2026L412.667 36.274ZM377.642 36.274L376.156 36.3204L376.201 37.7606H377.642V36.274ZM374.353 28.3809L373.365 29.4921L373.38 29.5053L373.395 29.5181L374.353 28.3809ZM360.704 27.8876L361.716 28.977L360.704 27.8876ZM360.869 39.7272L359.818 40.7784L359.853 40.8134L359.89 40.846L360.869 39.7272ZM367.282 43.8382L366.64 45.1793L366.665 45.1909L366.689 45.2015L367.282 43.8382ZM378.464 48.1136L377.966 49.5143L377.973 49.517L377.981 49.5197L378.464 48.1136ZM396.552 55.6778L395.851 56.9887L395.869 56.9983L395.887 57.0074L396.552 55.6778ZM408.885 66.0374L407.699 66.934L407.711 66.9502L407.724 66.9661L408.885 66.0374ZM408.885 101.392L407.633 100.59L407.627 100.599L407.621 100.608L408.885 101.392ZM393.921 114.382L393.274 113.044L393.265 113.048L393.921 114.382ZM370.9 117.664C357.65 117.664 346.909 114.543 338.563 108.415L336.803 110.812C345.777 117.401 357.181 120.638 370.9 120.638V117.664ZM338.573 108.423C330.305 102.248 325.827 93.469 325.19 81.9062L322.221 82.0696C322.9 94.4053 327.74 104.043 336.793 110.805L338.573 108.423ZM323.706 83.4746H358.073V80.5013H323.706V83.4746ZM356.592 82.1081C356.937 86.3723 358.226 89.7622 360.7 91.9755L362.682 89.7597C360.99 88.2458 359.867 85.7159 359.555 81.8678L356.592 82.1081ZM360.7 91.9755C363.102 94.1251 366.162 95.1497 369.748 95.1497V92.1764C366.757 92.1764 364.446 91.3374 362.682 89.7597L360.7 91.9755ZM369.748 95.1497C372.948 95.1497 375.703 94.3766 377.887 92.7063L376.081 90.3445C374.538 91.5244 372.469 92.1764 369.748 92.1764V95.1497ZM377.896 92.6989C380.253 90.8657 381.43 88.3385 381.43 85.2767H378.457C378.457 87.4769 377.661 89.1155 376.071 90.3519L377.896 92.6989ZM381.43 85.2767C381.43 81.2988 379.514 78.2043 375.927 76.1011L374.423 78.6662C377.194 80.2903 378.457 82.4578 378.457 85.2767H381.43ZM375.927 76.1011C372.601 74.1518 367.321 72.029 360.175 69.7203L359.261 72.5496C366.366 74.8452 371.39 76.8883 374.423 78.6662L375.927 76.1011ZM360.188 69.7246C352.658 67.2145 346.586 64.8264 341.953 62.5638L340.648 65.2355C345.443 67.5772 351.65 70.0126 359.248 72.5453L360.188 69.7246ZM341.99 62.5828C337.591 60.2784 333.695 56.9695 330.304 52.6254L327.96 54.4547C331.586 59.0999 335.801 62.6974 340.611 65.2166L341.99 62.5828ZM330.328 52.6572C327.166 48.3729 325.521 42.7339 325.521 35.6162H322.548C322.548 43.1885 324.301 49.4987 327.936 54.4229L330.328 52.6572ZM325.521 35.6162C325.521 28.4199 327.316 22.3738 330.839 17.4007L328.412 15.682C324.48 21.233 322.548 27.9035 322.548 35.6162H325.521ZM330.847 17.3889C334.398 12.2715 339.315 8.38677 345.654 5.74518L344.511 3.0006C337.696 5.84031 332.308 10.0679 328.404 15.6938L330.847 17.3889ZM345.654 5.74518C352.023 3.09168 359.278 1.74857 367.446 1.74857V-1.22472C358.951 -1.22472 351.298 0.172815 344.511 3.0006L345.654 5.74518ZM367.446 1.74857C380.702 1.74857 391.085 4.87232 398.751 10.9633L400.601 8.63539C392.262 2.00982 381.159 -1.22472 367.446 -1.22472V1.74857ZM398.769 10.9771C406.494 16.9271 410.652 25.3238 411.182 36.3454L414.152 36.2026C413.586 24.422 409.084 15.169 400.583 8.62161L398.769 10.9771ZM412.667 34.7873H377.642V37.7606H412.667V34.7873ZM379.127 36.2276C379.009 32.4272 377.804 29.3435 375.31 27.2438L373.395 29.5181C375.068 30.9264 376.055 33.1048 376.156 36.3204L379.127 36.2276ZM375.34 27.2698C373.042 25.2266 370.089 24.2633 366.624 24.2633V27.2366C369.517 27.2366 371.717 28.0272 373.365 29.4921L375.34 27.2698ZM366.624 24.2633C363.898 24.2633 361.544 25.0791 359.693 26.7982L361.716 28.977C362.934 27.8459 364.527 27.2366 366.624 27.2366V24.2633ZM359.693 26.7982C357.781 28.5733 356.916 31.0405 356.916 33.9718H359.889C359.889 31.6412 360.558 30.0522 361.716 28.977L359.693 26.7982ZM356.916 33.9718C356.916 36.5844 357.913 38.874 359.818 40.7784L361.92 38.676C360.536 37.2916 359.889 35.7443 359.889 33.9718H356.916ZM359.89 40.846C361.764 42.4855 364.02 43.9263 366.64 45.1793L367.923 42.497C365.501 41.3383 363.482 40.0384 361.848 38.6084L359.89 40.846ZM366.689 45.2015C369.258 46.3184 373.024 47.7571 377.966 49.5143L378.962 46.7128C374.038 44.962 370.349 43.5504 367.875 42.4748L366.689 45.2015ZM377.981 49.5197C385.281 52.0257 391.231 54.5174 395.851 56.9887L397.253 54.3669C392.445 51.7953 386.336 49.2442 378.946 46.7075L377.981 49.5197ZM395.887 57.0074C400.497 59.3122 404.432 62.6134 407.699 66.934L410.071 65.1408C406.541 60.472 402.254 56.8668 397.217 54.3481L395.887 57.0074ZM407.724 66.9661C410.979 71.0354 412.66 76.2775 412.66 82.8101H415.634C415.634 75.7492 413.806 69.8094 410.046 65.1087L407.724 66.9661ZM412.66 82.8101C412.66 89.4507 410.978 95.3632 407.633 100.59L410.137 102.193C413.808 96.4576 415.634 89.9824 415.634 82.8101H412.66ZM407.621 100.608C404.391 105.819 399.632 109.971 393.274 113.044L394.568 115.721C401.365 112.436 406.582 107.927 410.148 102.175L407.621 100.608ZM393.265 113.048C387.043 116.106 379.604 117.664 370.9 117.664V120.638C379.955 120.638 387.863 119.017 394.577 115.717L393.265 113.048ZM463.729 29.3676L462.419 28.6646L462.416 28.6705L463.729 29.3676ZM484.119 8.48386L484.848 9.77964L484.86 9.77264L484.119 8.48386ZM550.881 12.5948L549.961 13.762L549.969 13.7683L550.881 12.5948ZM569.956 44.0026V45.4893H571.796L571.41 43.6903L569.956 44.0026ZM535.26 44.0026L533.917 44.6405L534.32 45.4893H535.26V44.0026ZM526.545 33.9718L525.746 35.2261L525.755 35.2314L525.763 35.2367L526.545 33.9718ZM495.959 38.5761L494.819 37.6221L494.817 37.6244L495.959 38.5761ZM495.959 81.3302L494.807 82.2703L494.818 82.2831L494.829 82.2957L495.959 81.3302ZM526.545 85.77L525.763 84.5052L525.755 84.5104L525.746 84.5158L526.545 85.77ZM535.26 75.7393V74.2526H534.32L533.917 75.1014L535.26 75.7393ZM569.956 75.7393L571.41 76.0516L571.796 74.2526H569.956V75.7393ZM550.881 107.311L551.794 108.485L551.802 108.479L550.881 107.311ZM484.119 111.422L483.378 112.711L483.391 112.718L484.119 111.422ZM463.729 90.5387L462.412 91.2292L462.417 91.2388L462.423 91.2484L463.729 90.5387ZM458.145 59.7887C458.145 48.5977 460.457 38.7023 465.042 30.0646L462.416 28.6705C457.574 37.7922 455.171 48.1775 455.171 59.7887H458.145ZM465.039 30.0705C469.731 21.3263 476.328 14.5723 484.848 9.77958L483.391 7.18814C474.371 12.2617 467.374 19.4302 462.419 28.6647L465.039 30.0705ZM484.86 9.77264C493.378 4.87531 503.201 2.40633 514.376 2.40633V-0.56696C502.749 -0.56696 492.401 2.00684 483.378 7.19508L484.86 9.77264ZM514.376 2.40633C528.566 2.40633 540.396 6.21612 549.961 13.762L551.802 11.4277C541.635 3.40667 529.128 -0.56696 514.376 -0.56696V2.40633ZM549.969 13.7683C559.535 21.2086 565.719 31.3605 568.503 44.3149L571.41 43.6903C568.493 30.1153 561.961 19.3286 551.794 11.4213L549.969 13.7683ZM569.956 42.516H535.26V45.4893H569.956V42.516ZM536.603 43.3648C534.411 38.75 531.323 35.1757 527.326 32.707L525.763 35.2367C529.221 37.3723 531.943 40.4852 533.917 44.6405L536.603 43.3648ZM527.343 32.7176C523.458 30.2453 518.953 29.032 513.883 29.032V32.0053C518.46 32.0053 522.396 33.0941 525.746 35.2261L527.343 32.7176ZM513.883 29.032C506.02 29.032 499.616 31.8888 494.819 37.6221L497.099 39.5301C501.291 34.5201 506.836 32.0053 513.883 32.0053V29.032ZM494.817 37.6244C490.15 43.2243 487.895 50.666 487.895 59.7887H490.868C490.868 51.1521 492.998 44.452 497.101 39.5279L494.817 37.6244ZM487.895 59.7887C487.895 69.0177 490.148 76.5632 494.807 82.2703L497.111 80.3901C492.999 75.3539 490.868 68.5383 490.868 59.7887H487.895ZM494.829 82.2957C499.629 87.9163 506.031 90.7099 513.883 90.7099V87.7366C506.825 87.7366 501.278 85.2681 497.089 80.3646L494.829 82.2957ZM513.883 90.7099C518.953 90.7099 523.458 89.4966 527.343 87.0242L525.746 84.5158C522.396 86.6477 518.46 87.7366 513.883 87.7366V90.7099ZM527.326 87.0349C531.323 84.5662 534.411 80.9919 536.603 76.3771L533.917 75.1014C531.943 79.2567 529.221 82.3696 525.763 84.5052L527.326 87.0349ZM535.26 77.2259H569.956V74.2526H535.26V77.2259ZM568.503 75.427C565.719 88.3823 559.533 98.5928 549.961 106.144L551.802 108.479C561.963 100.463 568.493 89.6256 571.41 76.0516L568.503 75.427ZM549.969 106.138C540.403 113.578 528.571 117.336 514.376 117.336V120.309C529.123 120.309 541.627 116.393 551.794 108.485L549.969 106.138ZM514.376 117.336C503.196 117.336 493.367 114.919 484.848 110.127L483.391 112.718C492.411 117.792 502.754 120.309 514.376 120.309V117.336ZM484.86 110.134C476.328 105.228 469.727 98.4669 465.035 89.8291L462.423 91.2484C467.378 100.37 474.37 107.532 483.378 112.711L484.86 110.134ZM465.046 89.8483C460.458 81.0991 458.145 71.0915 458.145 59.7887H455.171C455.171 71.5074 457.573 81.9998 462.412 91.2292L465.046 89.8483ZM610.871 111.587L610.138 112.881L610.15 112.887L610.871 111.587ZM589.165 90.3743L587.878 91.1186L587.883 91.1278L587.889 91.1369L589.165 90.3743ZM589.165 29.0387L587.885 28.2829L587.882 28.2877L589.165 29.0387ZM670.726 7.82611L669.999 9.12269L670.006 9.1264L670.726 7.82611ZM692.268 29.0387L690.981 29.783L690.985 29.7897L692.268 29.0387ZM692.268 90.3743L693.551 91.1253L693.555 91.1186L692.268 90.3743ZM670.726 111.587L671.447 112.887L671.459 112.881L670.726 111.587ZM660.202 81.1657L659.096 80.1725L659.091 80.1788L659.085 80.1852L660.202 81.1657ZM660.202 37.9184L659.085 38.899L659.096 38.9111L659.106 38.9229L660.202 37.9184ZM621.23 37.9184L622.338 38.9103L622.343 38.9047L622.348 38.899L621.23 37.9184ZM621.23 81.3302L620.113 82.3108L620.118 82.3165L620.123 82.3221L621.23 81.3302ZM640.799 117.664C630.186 117.664 620.46 115.202 611.591 110.287L610.15 112.887C619.479 118.058 629.705 120.638 640.799 120.638V117.664ZM611.603 110.293C602.729 105.268 595.681 98.3803 590.441 89.6117L587.889 91.1369C593.392 100.347 600.815 107.601 610.138 112.881L611.603 110.293ZM590.452 89.6301C585.332 80.7763 582.758 70.7869 582.758 59.6243H579.785C579.785 71.2639 582.474 81.7744 587.878 91.1186L590.452 89.6301ZM582.758 59.6243C582.758 48.4615 585.332 38.53 590.448 29.7897L587.882 28.2877C582.474 37.526 579.785 47.9849 579.785 59.6243H582.758ZM590.445 29.7945C595.684 20.9199 602.728 14.0387 611.591 9.1264L610.15 6.52581C600.816 11.6991 593.389 18.9596 587.885 28.2829L590.445 29.7945ZM611.591 9.1264C620.46 4.21121 630.186 1.74857 640.799 1.74857V-1.22472C629.705 -1.22472 619.479 1.35543 610.15 6.52581L611.591 9.1264ZM640.799 1.74857C651.523 1.74857 661.246 4.21246 669.999 9.12267L671.454 6.52954C662.228 1.35418 651.999 -1.22472 640.799 -1.22472V1.74857ZM670.006 9.1264C678.867 14.0372 685.852 20.9147 690.981 29.7829L693.555 28.2944C688.159 18.9648 680.784 11.7006 671.447 6.52581L670.006 9.1264ZM690.985 29.7897C696.101 38.53 698.674 48.4615 698.674 59.6243H701.648C701.648 47.9849 698.959 37.526 693.551 28.2877L690.985 29.7897ZM698.674 59.6243C698.674 70.7869 696.101 80.7763 690.981 89.6301L693.555 91.1186C698.959 81.7744 701.648 71.2639 701.648 59.6243H698.674ZM690.985 89.6233C685.856 98.3854 678.866 105.269 669.994 110.293L671.459 112.881C680.785 107.599 688.156 100.342 693.551 91.1253L690.985 89.6233ZM670.006 110.287C661.137 115.202 651.411 117.664 640.799 117.664V120.638C651.892 120.638 662.118 118.058 671.447 112.887L670.006 110.287ZM640.799 90.7099C649.377 90.7099 656.28 87.8896 661.32 82.1463L659.085 80.1852C654.697 85.1852 648.664 87.7366 640.799 87.7366V90.7099ZM661.308 82.159C666.433 76.4521 668.924 68.8867 668.924 59.6243H665.951C665.951 68.3405 663.619 75.136 659.096 80.1725L661.308 82.159ZM668.924 59.6243C668.924 50.155 666.439 42.5223 661.298 36.9138L659.106 38.9229C663.612 43.8385 665.951 50.6764 665.951 59.6243H668.924ZM661.32 36.9378C656.28 31.1945 649.377 28.3742 640.799 28.3742V31.3475C648.664 31.3475 654.697 33.8989 659.085 38.899L661.32 36.9378ZM640.799 28.3742C632.117 28.3742 625.157 31.19 620.113 36.9378L622.348 38.899C626.732 33.9034 632.817 31.3475 640.799 31.3475V28.3742ZM620.123 36.9264C615.098 42.5354 612.673 50.1634 612.673 59.6243H615.646C615.646 50.668 617.935 43.8254 622.338 38.9103L620.123 36.9264ZM612.673 59.6243C612.673 68.9826 615.102 76.6002 620.113 82.3108L622.348 80.3496C617.931 75.3168 615.646 68.4639 615.646 59.6243H612.673ZM620.123 82.3221C625.17 87.9559 632.127 90.7099 640.799 90.7099V87.7366C632.807 87.7366 626.719 85.2285 622.338 80.3382L620.123 82.3221ZM822.028 118V119.487H823.515V118H822.028ZM789.798 118L788.559 118.821L789 119.487H789.798V118ZM746.88 53.2112L748.119 52.3902L745.393 48.275V53.2112H746.88ZM746.88 118V119.487H748.366V118H746.88ZM714.65 118H713.163V119.487H714.65V118ZM714.65 2.07075V0.584105H713.163V2.07075H714.65ZM746.88 2.07075L748.124 1.25693L747.684 0.584105H746.88V2.07075ZM789.798 67.6818L788.554 68.4956L791.285 72.6702V67.6818H789.798ZM789.798 2.07075V0.584105H788.311V2.07075H789.798ZM822.028 2.07075H823.515V0.584105H822.028V2.07075ZM822.028 116.513H789.798V119.487H822.028V116.513ZM791.037 117.179L748.119 52.3902L745.64 54.0322L788.559 118.821L791.037 117.179ZM745.393 53.2112V118H748.366V53.2112H745.393ZM746.88 116.513H714.65V119.487H746.88V116.513ZM716.136 118V2.07075H713.163V118H716.136ZM714.65 3.55739H746.88V0.584105H714.65V3.55739ZM745.635 2.88457L788.554 68.4956L791.042 66.868L748.124 1.25693L745.635 2.88457ZM791.285 67.6818V2.07075H788.311V67.6818H791.285ZM789.798 3.55739H822.028V0.584105H789.798V3.55739ZM820.541 2.07075V118H823.515V2.07075H820.541ZM947.766 118V119.487H949.252V118H947.766ZM915.536 118L914.296 118.821L914.737 119.487H915.536V118ZM872.617 53.2112L873.857 52.3902L871.131 48.275V53.2112H872.617ZM872.617 118V119.487H874.104V118H872.617ZM840.387 118H838.901V119.487H840.387V118ZM840.387 2.07075V0.584105H838.901V2.07075H840.387ZM872.617 2.07075L873.861 1.25693L873.421 0.584105H872.617V2.07075ZM915.536 67.6818L914.292 68.4956L917.022 72.6702V67.6818H915.536ZM915.536 2.07075V0.584105H914.049V2.07075H915.536ZM947.766 2.07075H949.252V0.584105H947.766V2.07075ZM947.766 116.513H915.536V119.487H947.766V116.513ZM916.775 117.179L873.857 52.3902L871.378 54.0322L914.296 118.821L916.775 117.179ZM871.131 53.2112V118H874.104V53.2112H871.131ZM872.617 116.513H840.387V119.487H872.617V116.513ZM841.874 118V2.07075H838.901V118H841.874ZM840.387 3.55739H872.617V0.584105H840.387V3.55739ZM871.373 2.88457L914.292 68.4956L916.78 66.868L873.861 1.25693L871.373 2.88457ZM917.022 67.6818V2.07075H914.049V67.6818H917.022ZM915.536 3.55739H947.766V0.584105H915.536V3.55739ZM946.279 2.07075V118H949.252V2.07075H946.279ZM998.355 27.8876V26.401H996.868V27.8876H998.355ZM998.355 46.7981H996.868V48.2847H998.355V46.7981ZM1035.35 46.7981H1036.84V45.3114H1035.35V46.7981ZM1035.35 71.2994V72.7861H1036.84V71.2994H1035.35ZM998.355 71.2994V69.8128H996.868V71.2994H998.355ZM998.355 92.1831H996.868V93.6698H998.355V92.1831ZM1040.29 92.1831H1041.77V90.6965H1040.29V92.1831ZM1040.29 118V119.487H1041.77V118H1040.29ZM966.125 118H964.638V119.487H966.125V118ZM966.125 2.07075V0.584105H964.638V2.07075H966.125ZM1040.29 2.07075H1041.77V0.584105H1040.29V2.07075ZM1040.29 27.8876V29.3743H1041.77V27.8876H1040.29ZM996.868 27.8876V46.7981H999.842V27.8876H996.868ZM998.355 48.2847H1035.35V45.3114H998.355V48.2847ZM1033.87 46.7981V71.2994H1036.84V46.7981H1033.87ZM1035.35 69.8128H998.355V72.7861H1035.35V69.8128ZM996.868 71.2994V92.1831H999.842V71.2994H996.868ZM998.355 93.6698H1040.29V90.6965H998.355V93.6698ZM1038.8 92.1831V118H1041.77V92.1831H1038.8ZM1040.29 116.513H966.125V119.487H1040.29V116.513ZM967.612 118V2.07075H964.638V118H967.612ZM966.125 3.55739H1040.29V0.584105H966.125V3.55739ZM1038.8 2.07075V27.8876H1041.77V2.07075H1038.8ZM1040.29 26.401H998.355V29.3743H1040.29V26.401ZM1059.34 29.3676L1058.03 28.6646L1058.02 28.6705L1059.34 29.3676ZM1079.73 8.48386L1080.46 9.77964L1080.47 9.77264L1079.73 8.48386ZM1146.49 12.5948L1145.57 13.762L1145.58 13.7683L1146.49 12.5948ZM1165.56 44.0026V45.4893H1167.4L1167.02 43.6903L1165.56 44.0026ZM1130.87 44.0026L1129.53 44.6405L1129.93 45.4893H1130.87V44.0026ZM1122.15 33.9718L1121.35 35.2261L1121.36 35.2314L1121.37 35.2367L1122.15 33.9718ZM1091.57 38.5761L1090.43 37.6221L1090.43 37.6244L1091.57 38.5761ZM1091.57 81.3302L1090.42 82.2703L1090.43 82.2831L1090.44 82.2957L1091.57 81.3302ZM1122.15 85.77L1121.37 84.5052L1121.36 84.5104L1121.35 84.5158L1122.15 85.77ZM1130.87 75.7393V74.2526H1129.93L1129.53 75.1014L1130.87 75.7393ZM1165.56 75.7393L1167.02 76.0516L1167.4 74.2526H1165.56V75.7393ZM1146.49 107.311L1147.4 108.485L1147.41 108.479L1146.49 107.311ZM1079.73 111.422L1078.99 112.711L1079 112.718L1079.73 111.422ZM1059.34 90.5387L1058.02 91.2292L1058.03 91.2388L1058.03 91.2484L1059.34 90.5387ZM1053.75 59.7887C1053.75 48.5977 1056.06 38.7023 1060.65 30.0646L1058.02 28.6705C1053.18 37.7922 1050.78 48.1775 1050.78 59.7887H1053.75ZM1060.65 30.0705C1065.34 21.3263 1071.94 14.5723 1080.46 9.77958L1079 7.18814C1069.98 12.2617 1062.98 19.4302 1058.03 28.6647L1060.65 30.0705ZM1080.47 9.77264C1088.99 4.87531 1098.81 2.40633 1109.98 2.40633V-0.56696C1098.36 -0.56696 1088.01 2.00684 1078.99 7.19508L1080.47 9.77264ZM1109.98 2.40633C1124.17 2.40633 1136 6.21612 1145.57 13.762L1147.41 11.4277C1137.24 3.40667 1124.74 -0.56696 1109.98 -0.56696V2.40633ZM1145.58 13.7683C1155.14 21.2086 1161.33 31.3605 1164.11 44.3149L1167.02 43.6903C1164.1 30.1153 1157.57 19.3286 1147.4 11.4213L1145.58 13.7683ZM1165.56 42.516H1130.87V45.4893H1165.56V42.516ZM1132.21 43.3648C1130.02 38.75 1126.93 35.1757 1122.93 32.707L1121.37 35.2367C1124.83 37.3723 1127.55 40.4852 1129.53 44.6405L1132.21 43.3648ZM1122.95 32.7176C1119.07 30.2453 1114.56 29.032 1109.49 29.032V32.0053C1114.07 32.0053 1118 33.0941 1121.35 35.2261L1122.95 32.7176ZM1109.49 29.032C1101.63 29.032 1095.22 31.8888 1090.43 37.6221L1092.71 39.5301C1096.9 34.5201 1102.44 32.0053 1109.49 32.0053V29.032ZM1090.43 37.6244C1085.76 43.2243 1083.5 50.666 1083.5 59.7887H1086.48C1086.48 51.1521 1088.61 44.452 1092.71 39.5279L1090.43 37.6244ZM1083.5 59.7887C1083.5 69.0177 1085.76 76.5632 1090.42 82.2703L1092.72 80.3901C1088.61 75.3539 1086.48 68.5383 1086.48 59.7887H1083.5ZM1090.44 82.2957C1095.24 87.9163 1101.64 90.7099 1109.49 90.7099V87.7366C1102.43 87.7366 1096.89 85.2681 1092.7 80.3646L1090.44 82.2957ZM1109.49 90.7099C1114.56 90.7099 1119.07 89.4966 1122.95 87.0242L1121.35 84.5158C1118 86.6477 1114.07 87.7366 1109.49 87.7366V90.7099ZM1122.93 87.0349C1126.93 84.5662 1130.02 80.9919 1132.21 76.3771L1129.53 75.1014C1127.55 79.2567 1124.83 82.3696 1121.37 84.5052L1122.93 87.0349ZM1130.87 77.2259H1165.56V74.2526H1130.87V77.2259ZM1164.11 75.427C1161.33 88.3823 1155.14 98.5928 1145.57 106.144L1147.41 108.479C1157.57 100.463 1164.1 89.6256 1167.02 76.0516L1164.11 75.427ZM1145.58 106.138C1136.01 113.578 1124.18 117.336 1109.98 117.336V120.309C1124.73 120.309 1137.24 116.393 1147.4 108.485L1145.58 106.138ZM1109.98 117.336C1098.8 117.336 1088.98 114.919 1080.46 110.127L1079 112.718C1088.02 117.792 1098.36 120.309 1109.98 120.309V117.336ZM1080.47 110.134C1071.94 105.228 1065.34 98.4669 1060.64 89.8291L1058.03 91.2484C1062.99 100.37 1069.98 107.532 1078.99 112.711L1080.47 110.134ZM1060.65 89.8483C1056.07 81.0991 1053.75 71.0915 1053.75 59.7887H1050.78C1050.78 71.5074 1053.18 81.9998 1058.02 91.2292L1060.65 89.8483ZM1268.14 2.07075H1269.63V0.584105H1268.14V2.07075ZM1268.14 27.7232V29.2098H1269.63V27.7232H1268.14ZM1237.23 27.7232V26.2365H1235.74V27.7232H1237.23ZM1237.23 118V119.487H1238.72V118H1237.23ZM1205 118H1203.51V119.487H1205V118ZM1205 27.7232H1206.49V26.2365H1205V27.7232ZM1174.41 27.7232H1172.93V29.2098H1174.41V27.7232ZM1174.41 2.07075V0.584105H1172.93V2.07075H1174.41ZM1266.66 2.07075V27.7232H1269.63V2.07075H1266.66ZM1268.14 26.2365H1237.23V29.2098H1268.14V26.2365ZM1235.74 27.7232V118H1238.72V27.7232H1235.74ZM1237.23 116.513H1205V119.487H1237.23V116.513ZM1206.49 118V27.7232H1203.51V118H1206.49ZM1205 26.2365H1174.41V29.2098H1205V26.2365ZM1175.9 27.7232V2.07075H1172.93V27.7232H1175.9ZM1174.41 3.55739H1268.14V0.584105H1174.41V3.55739Z" fill="url(#paint0_linear_84_3515)" mask="url(#path-1-outside-1_84_3515)"/>
</g>
<defs>
<linearGradient id="paint0_linear_84_3515" x1="712.778" y1="0.999995" x2="710.038" y2="117.872" gradientUnits="userSpaceOnUse">
<stop stop-color="white"/>
<stop offset="1" stop-color="white" stop-opacity="0"/>
</linearGradient>
</defs>
</svg>
