<svg width="39" height="38" viewBox="0 0 39 38" fill="none" xmlns="http://www.w3.org/2000/svg">
<g clip-path="url(#clip0_7_133)">
<mask id="mask0_7_133" style="mask-type:luminance" maskUnits="userSpaceOnUse" x="8" y="9" width="21" height="21">
<path d="M8.94521 9.42472H28.9725V29.4521H8.94521V9.42472Z" fill="white"/>
</mask>
<g mask="url(#mask0_7_133)">
<path d="M28.1898 19.4384C28.1879 20.2616 28.1786 21.0849 28.1673 21.9081C28.1537 22.9013 28.1384 23.8949 27.8893 24.8711C27.6281 25.8947 27.1129 26.7776 26.3114 27.4311C25.4669 28.1199 24.446 28.4819 23.3442 28.5489C21.8828 28.6378 20.4208 28.6729 18.9589 28.6695C17.4969 28.6729 16.0349 28.6378 14.5735 28.5489C13.4717 28.4819 12.4509 28.1199 11.6063 27.4311C10.8048 26.7776 10.2896 25.8947 10.0284 24.8711C9.77934 23.8949 9.76401 22.9013 9.75044 21.9081C9.73917 21.0849 9.72982 20.2616 9.72791 19.4384C9.72982 18.6151 9.73917 17.7919 9.75044 16.9687C9.76401 15.9755 9.77934 14.9819 10.0284 14.0057C10.2896 12.982 10.8048 12.0992 11.6063 11.4456C12.4509 10.7568 13.4717 10.3948 14.5735 10.3278C16.0349 10.2389 17.4969 10.2038 18.9589 10.2072C20.4208 10.2038 21.8828 10.2389 23.3442 10.3278C24.446 10.3948 25.4669 10.7568 26.3114 11.4456C27.1129 12.0992 27.6281 12.982 27.8893 14.0057C28.1384 14.9819 28.1537 15.9755 28.1673 16.9687C28.1786 17.7919 28.1879 18.6151 28.1898 19.4384Z" stroke="#FFC0CB" stroke-width="1.6" stroke-miterlimit="10"/>
<path d="M23.0269 19.4384C23.0269 21.7067 21.1881 23.5455 18.9198 23.5455C16.6514 23.5455 14.8126 21.7067 14.8126 19.4384C14.8126 17.17 16.6514 15.3312 18.9198 15.3312C21.1881 15.3312 23.0269 17.17 23.0269 19.4384Z" stroke="#FFC0CB" stroke-miterlimit="10"/>
<path d="M25.5303 14.1577C25.5303 14.8058 25.0049 15.3312 24.3569 15.3312C23.7088 15.3312 23.1834 14.8058 23.1834 14.1577C23.1834 13.5097 23.7088 12.9843 24.3569 12.9843C25.0049 12.9843 25.5303 13.5097 25.5303 14.1577Z" fill="#FFC0CB"/>
</g>
</g>
<circle cx="19.548" cy="18.8493" r="17.9993" stroke="#FFC0CB" stroke-width="1.7"/>
<defs>
<clipPath id="clip0_7_133">
<rect width="20.0274" height="20.0274" fill="white" transform="translate(8.94521 9.42465)"/>
</clipPath>
</defs>
</svg>
