<svg width="38" height="37" viewBox="0 0 38 37" fill="none" xmlns="http://www.w3.org/2000/svg">
<g clip-path="url(#clip0_7_226)">
<path d="M13.8518 15.1364C14.7807 15.1364 15.5337 14.3834 15.5337 13.4545C15.5337 12.5257 14.7807 11.7727 13.8518 11.7727C12.923 11.7727 12.17 12.5257 12.17 13.4545C12.17 14.3834 12.923 15.1364 13.8518 15.1364Z" fill="#FFC0CB"/>
<path d="M12.17 15.9773H15.5336V25.2273H12.17V15.9773Z" fill="#FFC0CB"/>
<path d="M18.8973 0C8.67999 0 0.397263 8.28273 0.397263 18.5C0.397263 28.7173 8.67999 37 18.8973 37C29.1145 37 37.3973 28.7173 37.3973 18.5C37.3973 8.28273 29.1145 0 18.8973 0ZM18.8973 35.3182C9.60882 35.3182 2.0791 27.7884 2.0791 18.5C2.0791 9.21155 9.60882 1.68184 18.8973 1.68184C28.1857 1.68184 35.7154 9.21155 35.7154 18.5C35.7154 27.7884 28.1857 35.3182 18.8973 35.3182Z" fill="#FFC0CB"/>
<path d="M23.4045 15.9773C20.8818 15.9773 20.5791 17.4741 20.5791 17.4741V15.9773H17.2155V25.2273H20.5791V20.1818C20.5791 20.1818 20.5791 18.5 22.0087 18.5C22.8495 18.5 23.1018 19.2484 23.1018 20.1818V25.2273H26.4654V20.1818C26.4654 17.5498 25.3218 15.9773 23.4045 15.9773Z" fill="#FFC0CB"/>
</g>
<defs>
<clipPath id="clip0_7_226">
<rect width="37" height="37" fill="white" transform="translate(0.397263)"/>
</clipPath>
</defs>
</svg>
