<svg width="38" height="38" viewBox="0 0 38 38" fill="none" xmlns="http://www.w3.org/2000/svg">
<g clip-path="url(#clip0_7_118)">
<path d="M18.8493 0C8.45576 0 0 8.45576 0 18.8493C0 29.2429 8.45576 37.6986 18.8493 37.6986C29.2429 37.6986 37.6986 29.2429 37.6986 18.8493C37.6986 8.45576 29.2429 0 18.8493 0ZM18.8493 35.9315C9.43018 35.9315 1.76712 28.2685 1.76712 18.8493C1.76712 9.43018 9.43018 1.76712 18.8493 1.76712C28.2685 1.76712 35.9315 9.43018 35.9315 18.8493C35.9315 28.2685 28.2685 35.9315 18.8493 35.9315ZM27.7079 11.0813H9.99065C8.80565 11.0813 7.84154 12.0454 7.84154 13.2305V24.4683C7.84154 25.6533 8.80558 26.6174 9.99065 26.6174H27.7079C28.8929 26.6174 29.857 25.6533 29.857 24.4683V13.2305C29.857 12.0454 28.8929 11.0813 27.7079 11.0813ZM26.376 12.8485L18.8493 18.8255L11.3225 12.8485H26.376ZM27.7079 24.8502H9.99065C9.88938 24.8501 9.79228 24.8098 9.72067 24.7382C9.64906 24.6665 9.60878 24.5695 9.60866 24.4682V13.7439L18.2998 20.6457C18.4607 20.7734 18.655 20.8373 18.8492 20.8373C19.0435 20.8373 19.2379 20.7735 19.3987 20.6457L28.0899 13.7439V24.4682C28.0898 24.5695 28.0495 24.6665 27.9779 24.7382C27.9063 24.8098 27.8092 24.8501 27.7079 24.8502Z" fill="#FFD1DC"/>
</g>
<defs>
<clipPath id="clip0_7_118">
<rect width="37.6986" height="37.6986" fill="white"/>
</clipPath>
</defs>
</svg>
