<svg width="38" height="39" viewBox="0 0 38 39" fill="none" xmlns="http://www.w3.org/2000/svg">
<path d="M1.91529 28.3891V9.92529C1.26411 10.0977 0.612844 10.3084 0 10.4999V33.8094C5.14115 32.3884 10.6042 32.6707 15.5716 34.6139C13.9003 32.924 11.911 31.5818 9.71831 30.6646C7.52567 29.7474 5.17313 29.2735 2.7964 29.2701C2.56426 29.2652 2.34299 29.1708 2.1788 29.0067C2.01461 28.8425 1.9202 28.6212 1.91529 28.3891Z" fill="#FFC0CB"/>
<path d="M3.71575 4.88794L3.65829 27.6037C6.447 27.7481 9.17542 28.4695 11.6711 29.7222C14.1667 30.975 16.3753 32.7319 18.1573 34.8819V13.2196C16.5337 10.8322 14.3915 8.8427 11.8907 7.39992C9.38985 5.95715 6.59522 5.09842 3.71575 4.88794ZM36.0847 9.96352V28.4081C36.0798 28.6402 35.9854 28.8615 35.8213 29.0257C35.6571 29.1898 35.4358 29.2842 35.2037 29.2891C32.8324 29.2912 30.4853 29.7647 28.2987 30.6821C26.1121 31.5995 24.1297 32.9424 22.4667 34.6329V34.652C27.4178 32.7019 32.867 32.4062 38 33.8092V10.538C37.3872 10.3274 36.7551 10.1168 36.0847 9.96352Z" fill="#FFC0CB"/>
<path d="M34.3609 4.88794C31.4711 5.0774 28.6631 5.92696 26.1529 7.37132C23.6427 8.81567 21.4971 10.8164 19.8811 13.2196V34.8819C21.6609 32.7342 23.8664 30.9787 26.3586 29.726C28.8508 28.4733 31.5755 27.7507 34.3609 27.6037V4.88794Z" fill="#FFC0CB"/>
</svg>
