<svg width="353" height="81" viewBox="0 0 353 81" fill="none" xmlns="http://www.w3.org/2000/svg">
<g opacity="0.1">
<mask id="path-1-outside-1_53_765" maskUnits="userSpaceOnUse" x="-1" y="-1" width="355" height="83" fill="black">
<rect fill="white" x="-1" y="-1" width="355" height="83"/>
<path d="M32.0502 80.7743C22.9801 80.7743 15.5324 78.6358 9.70686 74.3589C3.88137 70.0082 0.747395 63.814 0.304953 55.7763H23.4226C23.6438 58.5047 24.455 60.4956 25.856 61.7492C27.2571 63.0028 29.0637 63.6296 31.2759 63.6296C33.2669 63.6296 34.8892 63.1503 36.1428 62.1917C37.4701 61.1593 38.1338 59.7582 38.1338 57.9885C38.1338 55.7025 37.0646 53.9327 34.9261 52.6792C32.7876 51.4256 29.3218 50.0245 24.5287 48.476C19.4406 46.7799 15.3111 45.1576 12.1403 43.6091C9.0432 41.9868 6.3148 39.664 3.95511 36.6406C1.66915 33.5435 0.526174 29.5247 0.526174 24.584C0.526174 19.5697 1.77976 15.2927 4.28694 11.7532C6.79411 8.13992 10.2599 5.41152 14.6843 3.56801C19.1088 1.7245 24.1231 0.802746 29.7274 0.802746C38.7975 0.802746 46.024 2.94122 51.4071 7.21816C56.8639 11.4214 59.7766 17.3575 60.1453 25.0265H36.5853C36.5115 22.6668 35.7741 20.897 34.373 19.7172C33.0457 18.5373 31.3128 17.9474 29.1743 17.9474C27.5521 17.9474 26.2247 18.4267 25.1924 19.3853C24.16 20.344 23.6438 21.7082 23.6438 23.4779C23.6438 24.9527 24.1969 26.2432 25.303 27.3493C26.4828 28.3817 27.9208 29.3034 29.6168 30.1146C31.3128 30.852 33.82 31.8106 37.1383 32.9905C42.0789 34.6865 46.1347 36.3825 49.3055 38.0785C52.5501 39.7008 55.3153 42.0237 57.6013 45.047C59.961 47.9966 61.1408 51.7574 61.1408 56.3293C61.1408 60.975 59.961 65.1413 57.6013 68.8283C55.3153 72.5153 51.9601 75.4281 47.5357 77.5666C43.185 79.705 38.0232 80.7743 32.0502 80.7743ZM117.344 80L92.8991 45.8213V80H71.2194V2.01946H92.8991V35.6451L117.123 2.01946H142.121L113.473 39.8483L143.559 80H117.344ZM173.157 2.01946V80H151.477V2.01946H173.157ZM207.182 63.4084H231.406V80H185.503V2.01946H207.182V63.4084ZM261.516 63.4084H285.739V80H239.836V2.01946H261.516V63.4084ZM323.591 80.7743C314.521 80.7743 307.074 78.6358 301.248 74.3589C295.423 70.0082 292.289 63.814 291.846 55.7763H314.964C315.185 58.5047 315.996 60.4956 317.397 61.7492C318.798 63.0028 320.605 63.6296 322.817 63.6296C324.808 63.6296 326.431 63.1503 327.684 62.1917C329.011 61.1593 329.675 59.7582 329.675 57.9885C329.675 55.7025 328.606 53.9327 326.467 52.6792C324.329 51.4256 320.863 50.0245 316.07 48.476C310.982 46.7799 306.852 45.1576 303.682 43.6091C300.584 41.9868 297.856 39.664 295.496 36.6406C293.21 33.5435 292.067 29.5247 292.067 24.584C292.067 19.5697 293.321 15.2927 295.828 11.7532C298.335 8.13992 301.801 5.41152 306.226 3.56801C310.65 1.7245 315.664 0.802746 321.269 0.802746C330.339 0.802746 337.565 2.94122 342.948 7.21816C348.405 11.4214 351.318 17.3575 351.687 25.0265H328.127C328.053 22.6668 327.315 20.897 325.914 19.7172C324.587 18.5373 322.854 17.9474 320.716 17.9474C319.093 17.9474 317.766 18.4267 316.734 19.3853C315.701 20.344 315.185 21.7082 315.185 23.4779C315.185 24.9527 315.738 26.2432 316.844 27.3493C318.024 28.3817 319.462 29.3034 321.158 30.1146C322.854 30.852 325.361 31.8106 328.68 32.9905C333.62 34.6865 337.676 36.3825 340.847 38.0785C344.091 39.7008 346.857 42.0237 349.143 45.047C351.502 47.9966 352.682 51.7574 352.682 56.3293C352.682 60.975 351.502 65.1413 349.143 68.8283C346.857 72.5153 343.501 75.4281 339.077 77.5666C334.726 79.705 329.564 80.7743 323.591 80.7743Z"/>
</mask>
<path d="M9.70686 74.3589L9.10847 75.1601L9.11506 75.1649L9.70686 74.3589ZM0.304953 55.7763V54.7763H-0.751607L-0.693536 55.8312L0.304953 55.7763ZM23.4226 55.7763L24.4193 55.6954L24.3448 54.7763H23.4226V55.7763ZM25.856 61.7492L25.1892 62.4945L25.856 61.7492ZM36.1428 62.1917L36.7503 62.9861L36.7568 62.981L36.1428 62.1917ZM34.9261 52.6792L35.4318 51.8165L34.9261 52.6792ZM24.5287 48.476L24.2125 49.4247L24.2213 49.4275L24.5287 48.476ZM12.1403 43.6091L11.6763 44.4949L11.6888 44.5015L11.7015 44.5076L12.1403 43.6091ZM3.95511 36.6406L3.15053 37.2345L3.15852 37.2453L3.16679 37.2559L3.95511 36.6406ZM4.28694 11.7532L5.103 12.3312L5.10853 12.3233L4.28694 11.7532ZM14.6843 3.56801L14.2997 2.64493L14.2997 2.64493L14.6843 3.56801ZM51.4071 7.21816L50.785 8.00112L50.7909 8.0058L50.7969 8.01039L51.4071 7.21816ZM60.1453 25.0265V26.0265H61.1946L61.1442 24.9785L60.1453 25.0265ZM36.5853 25.0265L35.5857 25.0577L35.616 26.0265H36.5853V25.0265ZM34.373 19.7172L33.7087 20.4646L33.7187 20.4735L33.7289 20.4821L34.373 19.7172ZM25.1924 19.3853L25.8728 20.1181V20.1181L25.1924 19.3853ZM25.303 27.3493L24.5959 28.0564L24.6194 28.08L24.6445 28.1019L25.303 27.3493ZM29.6168 30.1146L29.1853 31.0167L29.2016 31.0245L29.2181 31.0316L29.6168 30.1146ZM37.1383 32.9905L36.8033 33.9327L36.8136 33.9363L37.1383 32.9905ZM49.3055 38.0785L48.8338 38.9603L48.846 38.9668L48.8583 38.973L49.3055 38.0785ZM57.6013 45.047L56.8036 45.6501L56.8119 45.661L56.8204 45.6717L57.6013 45.047ZM57.6013 68.8283L56.759 68.2893L56.7552 68.2953L56.7514 68.3014L57.6013 68.8283ZM47.5357 77.5666L47.1005 76.6662L47.0946 76.6691L47.5357 77.5666ZM32.0502 79.7743C23.1381 79.7743 15.913 77.6747 10.2987 73.5528L9.11506 75.1649C15.1517 79.5969 22.8222 81.7743 32.0502 81.7743V79.7743ZM10.3052 73.5576C4.74434 69.4046 1.73158 63.4991 1.30344 55.7213L-0.693536 55.8312C-0.236785 64.1289 3.01839 70.6118 9.10849 75.1601L10.3052 73.5576ZM0.304953 56.7763H23.4226V54.7763H0.304953V56.7763ZM22.4259 55.8571C22.6584 58.7254 23.5253 61.0057 25.1892 62.4945L26.5228 61.004C25.3846 59.9856 24.6292 58.2839 24.4193 55.6954L22.4259 55.8571ZM25.1892 62.4945C26.8053 63.9404 28.8637 64.6296 31.2759 64.6296V62.6296C29.2637 62.6296 27.7089 62.0652 26.5228 61.004L25.1892 62.4945ZM31.2759 64.6296C33.4282 64.6296 35.281 64.1096 36.7503 62.986L35.5354 61.3973C34.4974 62.191 33.1056 62.6296 31.2759 62.6296V64.6296ZM36.7568 62.981C38.3421 61.748 39.1338 60.048 39.1338 57.9885H37.1338C37.1338 59.4684 36.5982 60.5707 35.5289 61.4023L36.7568 62.981ZM39.1338 57.9885C39.1338 55.3127 37.8451 53.2311 35.4318 51.8165L34.4204 53.5419C36.284 54.6343 37.1338 56.0923 37.1338 57.9885H39.1338ZM35.4318 51.8165C33.195 50.5052 29.6429 49.0773 24.8361 47.5244L24.2213 49.4275C29.0008 50.9717 32.3803 52.3459 34.4204 53.5419L35.4318 51.8165ZM24.8449 47.5273C19.7796 45.8388 15.6955 44.2325 12.5791 42.7105L11.7015 44.5076C14.9268 46.0828 19.1016 47.721 24.2125 49.4246L24.8449 47.5273ZM12.6043 42.7232C9.64513 41.1732 7.02409 38.9474 4.74342 36.0253L3.16679 37.2559C5.60552 40.3805 8.44127 42.8004 11.6763 44.4949L12.6043 42.7232ZM4.75968 36.0468C2.63258 33.1649 1.52617 29.3718 1.52617 24.584H-0.473826C-0.473826 29.6775 0.705726 33.9221 3.15053 37.2345L4.75968 36.0468ZM1.52617 24.584C1.52617 19.7434 2.73343 15.6764 5.10296 12.3312L3.47091 11.1752C0.826094 14.909 -0.473826 19.396 -0.473826 24.584H1.52617ZM5.10853 12.3233C7.49701 8.88106 10.8044 6.26797 15.069 4.49109L14.2997 2.64493C9.71539 4.55508 6.09122 7.39879 3.46535 11.1831L5.10853 12.3233ZM15.069 4.49109C19.3527 2.7062 24.2331 1.80275 29.7274 1.80275V-0.197254C24.0131 -0.197254 18.8648 0.742804 14.2997 2.64493L15.069 4.49109ZM29.7274 1.80275C38.644 1.80275 45.6282 3.90396 50.785 8.00112L52.0292 6.4352C46.4198 1.97848 38.951 -0.197254 29.7274 -0.197254V1.80275ZM50.7969 8.01039C55.9928 12.0127 58.7901 17.6608 59.1465 25.0745L61.1442 24.9785C60.7632 17.0542 57.735 10.8301 52.0173 6.42594L50.7969 8.01039ZM60.1453 24.0265H36.5853V26.0265H60.1453V24.0265ZM37.5848 24.9953C37.5049 22.4389 36.6944 20.3647 35.0172 18.9523L33.7289 20.4821C34.8538 21.4294 35.5182 22.8947 35.5857 25.0577L37.5848 24.9953ZM35.0374 18.9698C33.4912 17.5954 31.5052 16.9474 29.1743 16.9474V18.9474C31.1204 18.9474 32.6002 19.4793 33.7087 20.4646L35.0374 18.9698ZM29.1743 16.9474C27.3406 16.9474 25.7572 17.4962 24.5119 18.6525L25.8728 20.1181C26.6922 19.3573 27.7635 18.9474 29.1743 18.9474V16.9474ZM24.5119 18.6525C23.226 19.8466 22.6438 21.5061 22.6438 23.4779H24.6438C24.6438 21.9102 25.0939 20.8414 25.8728 20.1181L24.5119 18.6525ZM22.6438 23.4779C22.6438 25.2353 23.3148 26.7754 24.5959 28.0564L26.0101 26.6422C25.0789 25.711 24.6438 24.6702 24.6438 23.4779H22.6438ZM24.6445 28.1019C25.9049 29.2047 27.4229 30.1738 29.1853 31.0167L30.0482 29.2124C28.4186 28.433 27.0608 27.5586 25.9615 26.5967L24.6445 28.1019ZM29.2181 31.0316C30.9461 31.783 33.479 32.7507 36.8033 33.9327L37.4733 32.0482C34.161 30.8705 31.6796 29.921 30.0155 29.1975L29.2181 31.0316ZM36.8136 33.9363C41.7241 35.622 45.7261 37.298 48.8338 38.9603L49.7771 37.1968C46.5432 35.467 42.4337 33.751 37.463 32.0446L36.8136 33.9363ZM48.8583 38.973C51.959 40.5233 54.6062 42.7439 56.8036 45.6501L58.399 44.4439C56.0244 41.3034 53.1412 38.8784 49.7527 37.1841L48.8583 38.973ZM56.8204 45.6717C59.0102 48.409 60.1408 51.9351 60.1408 56.3293H62.1408C62.1408 51.5797 60.9118 47.5843 58.3822 44.4223L56.8204 45.6717ZM60.1408 56.3293C60.1408 60.7962 59.0093 64.7732 56.759 68.2893L58.4436 69.3674C60.9127 65.5094 62.1408 61.1538 62.1408 56.3293H60.1408ZM56.7514 68.3014C54.5783 71.8064 51.3774 74.5991 47.1005 76.6662L47.9709 78.4669C52.5429 76.2571 56.0524 73.2243 58.4512 69.3553L56.7514 68.3014ZM47.0946 76.6691C42.9093 78.7263 37.9051 79.7743 32.0502 79.7743V81.7743C38.1413 81.7743 43.4607 80.6838 47.9768 78.464L47.0946 76.6691ZM117.344 80L116.531 80.5817L116.83 81H117.344V80ZM92.8991 45.8213L93.7124 45.2396L91.8991 42.7041V45.8213H92.8991ZM92.8991 80V81H93.8991V80H92.8991ZM71.2194 80H70.2194V81H71.2194V80ZM71.2194 2.01946V1.01946H70.2194V2.01946H71.2194ZM92.8991 2.01946H93.8991V1.01946H92.8991V2.01946ZM92.8991 35.6451H91.8991V38.7441L93.7104 36.2296L92.8991 35.6451ZM117.123 2.01946V1.01946H116.611L116.311 1.43495L117.123 2.01946ZM142.121 2.01946L142.918 2.62318L144.133 1.01946H142.121V2.01946ZM113.473 39.8483L112.675 39.2446L112.221 39.8451L112.672 40.448L113.473 39.8483ZM143.559 80V81H145.558L144.359 79.4004L143.559 80ZM118.157 79.4183L93.7124 45.2396L92.0857 46.403L116.531 80.5817L118.157 79.4183ZM91.8991 45.8213V80H93.8991V45.8213H91.8991ZM92.8991 79H71.2194V81H92.8991V79ZM72.2194 80V2.01946H70.2194V80H72.2194ZM71.2194 3.01946H92.8991V1.01946H71.2194V3.01946ZM91.8991 2.01946V35.6451H93.8991V2.01946H91.8991ZM93.7104 36.2296L117.934 2.60398L116.311 1.43495L92.0877 35.0606L93.7104 36.2296ZM117.123 3.01946H142.121V1.01946H117.123V3.01946ZM141.324 1.41574L112.675 39.2446L114.27 40.452L142.918 2.62318L141.324 1.41574ZM112.672 40.448L142.758 80.5996L144.359 79.4004L114.273 39.2487L112.672 40.448ZM143.559 79H117.344V81H143.559V79ZM173.157 2.01946H174.157V1.01946H173.157V2.01946ZM173.157 80V81H174.157V80H173.157ZM151.477 80H150.477V81H151.477V80ZM151.477 2.01946V1.01946H150.477V2.01946H151.477ZM172.157 2.01946V80H174.157V2.01946H172.157ZM173.157 79H151.477V81H173.157V79ZM152.477 80V2.01946H150.477V80H152.477ZM151.477 3.01946H173.157V1.01946H151.477V3.01946ZM207.182 63.4084H206.182V64.4084H207.182V63.4084ZM231.406 63.4084H232.406V62.4084H231.406V63.4084ZM231.406 80V81H232.406V80H231.406ZM185.503 80H184.503V81H185.503V80ZM185.503 2.01946V1.01946H184.503V2.01946H185.503ZM207.182 2.01946H208.182V1.01946H207.182V2.01946ZM207.182 64.4084H231.406V62.4084H207.182V64.4084ZM230.406 63.4084V80H232.406V63.4084H230.406ZM231.406 79H185.503V81H231.406V79ZM186.503 80V2.01946H184.503V80H186.503ZM185.503 3.01946H207.182V1.01946H185.503V3.01946ZM206.182 2.01946V63.4084H208.182V2.01946H206.182ZM261.516 63.4084H260.516V64.4084H261.516V63.4084ZM285.739 63.4084H286.739V62.4084H285.739V63.4084ZM285.739 80V81H286.739V80H285.739ZM239.836 80H238.836V81H239.836V80ZM239.836 2.01946V1.01946H238.836V2.01946H239.836ZM261.516 2.01946H262.516V1.01946H261.516V2.01946ZM261.516 64.4084H285.739V62.4084H261.516V64.4084ZM284.739 63.4084V80H286.739V63.4084H284.739ZM285.739 79H239.836V81H285.739V79ZM240.836 80V2.01946H238.836V80H240.836ZM239.836 3.01946H261.516V1.01946H239.836V3.01946ZM260.516 2.01946V63.4084H262.516V2.01946H260.516ZM301.248 74.3589L300.65 75.1601L300.656 75.1649L301.248 74.3589ZM291.846 55.7763V54.7763H290.79L290.848 55.8312L291.846 55.7763ZM314.964 55.7763L315.961 55.6954L315.886 54.7763H314.964V55.7763ZM317.397 61.7492L316.73 62.4945L317.397 61.7492ZM327.684 62.1917L328.292 62.9861L328.298 62.981L327.684 62.1917ZM326.467 52.6792L326.973 51.8165L326.467 52.6792ZM316.07 48.476L315.754 49.4247L315.763 49.4275L316.07 48.476ZM303.682 43.6091L303.218 44.4949L303.23 44.5015L303.243 44.5076L303.682 43.6091ZM295.496 36.6406L294.692 37.2345L294.7 37.2453L294.708 37.2559L295.496 36.6406ZM295.828 11.7532L296.644 12.3312L296.65 12.3233L295.828 11.7532ZM306.226 3.56801L305.841 2.64493V2.64493L306.226 3.56801ZM342.948 7.21816L342.326 8.00112L342.332 8.0058L342.338 8.01039L342.948 7.21816ZM351.687 25.0265V26.0265H352.736L352.685 24.9785L351.687 25.0265ZM328.127 25.0265L327.127 25.0577L327.157 26.0265H328.127V25.0265ZM325.914 19.7172L325.25 20.4646L325.26 20.4735L325.27 20.4821L325.914 19.7172ZM316.734 19.3853L317.414 20.1181V20.1181L316.734 19.3853ZM316.844 27.3493L316.137 28.0564L316.161 28.08L316.186 28.1019L316.844 27.3493ZM321.158 30.1146L320.727 31.0167L320.743 31.0245L320.759 31.0316L321.158 30.1146ZM328.68 32.9905L328.345 33.9327L328.355 33.9363L328.68 32.9905ZM340.847 38.0785L340.375 38.9603L340.387 38.9668L340.4 38.973L340.847 38.0785ZM349.143 45.047L348.345 45.6501L348.353 45.661L348.362 45.6717L349.143 45.047ZM349.143 68.8283L348.3 68.2893L348.296 68.2953L348.293 68.3014L349.143 68.8283ZM339.077 77.5666L338.642 76.6662L338.636 76.6691L339.077 77.5666ZM323.591 79.7743C314.679 79.7743 307.454 77.6747 301.84 73.5528L300.656 75.1649C306.693 79.5969 314.363 81.7743 323.591 81.7743V79.7743ZM301.847 73.5576C296.286 69.4046 293.273 63.4991 292.845 55.7213L290.848 55.8312C291.305 64.1289 294.56 70.6118 300.65 75.1601L301.847 73.5576ZM291.846 56.7763H314.964V54.7763H291.846V56.7763ZM313.967 55.8571C314.2 58.7254 315.067 61.0057 316.73 62.4945L318.064 61.004C316.926 59.9856 316.17 58.2839 315.961 55.6954L313.967 55.8571ZM316.73 62.4945C318.347 63.9404 320.405 64.6296 322.817 64.6296V62.6296C320.805 62.6296 319.25 62.0652 318.064 61.004L316.73 62.4945ZM322.817 64.6296C324.97 64.6296 326.822 64.1096 328.292 62.986L327.077 61.3973C326.039 62.191 324.647 62.6296 322.817 62.6296V64.6296ZM328.298 62.981C329.883 61.748 330.675 60.048 330.675 57.9885H328.675C328.675 59.4684 328.139 60.5707 327.07 61.4023L328.298 62.981ZM330.675 57.9885C330.675 55.3127 329.386 53.2311 326.973 51.8165L325.962 53.5419C327.825 54.6343 328.675 56.0923 328.675 57.9885H330.675ZM326.973 51.8165C324.736 50.5052 321.184 49.0773 316.377 47.5244L315.763 49.4275C320.542 50.9717 323.922 52.3459 325.962 53.5419L326.973 51.8165ZM316.386 47.5273C311.321 45.8388 307.237 44.2325 304.12 42.7105L303.243 44.5076C306.468 46.0828 310.643 47.721 315.754 49.4246L316.386 47.5273ZM304.146 42.7232C301.186 41.1732 298.565 38.9474 296.285 36.0253L294.708 37.2559C297.147 40.3805 299.983 42.8004 303.218 44.4949L304.146 42.7232ZM296.301 36.0468C294.174 33.1649 293.067 29.3718 293.067 24.584H291.067C291.067 29.6775 292.247 33.9221 294.692 37.2345L296.301 36.0468ZM293.067 24.584C293.067 19.7434 294.275 15.6764 296.644 12.3312L295.012 11.1752C292.367 14.909 291.067 19.396 291.067 24.584H293.067ZM296.65 12.3233C299.038 8.88106 302.346 6.26797 306.61 4.49109L305.841 2.64493C301.257 4.55508 297.632 7.39879 295.007 11.1831L296.65 12.3233ZM306.61 4.49109C310.894 2.7062 315.774 1.80275 321.269 1.80275V-0.197254C315.554 -0.197254 310.406 0.742804 305.841 2.64493L306.61 4.49109ZM321.269 1.80275C330.185 1.80275 337.17 3.90396 342.326 8.00112L343.57 6.4352C337.961 1.97848 330.492 -0.197254 321.269 -0.197254V1.80275ZM342.338 8.01039C347.534 12.0127 350.331 17.6608 350.688 25.0745L352.685 24.9785C352.304 17.0542 349.276 10.8301 343.559 6.42594L342.338 8.01039ZM351.687 24.0265H328.127V26.0265H351.687V24.0265ZM329.126 24.9953C329.046 22.4389 328.236 20.3647 326.558 18.9523L325.27 20.4821C326.395 21.4294 327.059 22.8947 327.127 25.0577L329.126 24.9953ZM326.579 18.9698C325.033 17.5954 323.046 16.9474 320.716 16.9474V18.9474C322.662 18.9474 324.141 19.4793 325.25 20.4646L326.579 18.9698ZM320.716 16.9474C318.882 16.9474 317.299 17.4962 316.053 18.6525L317.414 20.1181C318.233 19.3573 319.305 18.9474 320.716 18.9474V16.9474ZM316.053 18.6525C314.767 19.8466 314.185 21.5061 314.185 23.4779H316.185C316.185 21.9102 316.635 20.8414 317.414 20.1181L316.053 18.6525ZM314.185 23.4779C314.185 25.2353 314.856 26.7754 316.137 28.0564L317.551 26.6422C316.62 25.711 316.185 24.6702 316.185 23.4779H314.185ZM316.186 28.1019C317.446 29.2047 318.964 30.1738 320.727 31.0167L321.59 29.2124C319.96 28.433 318.602 27.5586 317.503 26.5967L316.186 28.1019ZM320.759 31.0316C322.487 31.783 325.02 32.7507 328.345 33.9327L329.015 32.0482C325.702 30.8705 323.221 29.921 321.557 29.1975L320.759 31.0316ZM328.355 33.9363C333.265 35.622 337.267 37.298 340.375 38.9603L341.318 37.1968C338.085 35.467 333.975 33.751 329.004 32.0446L328.355 33.9363ZM340.4 38.973C343.5 40.5233 346.147 42.7439 348.345 45.6501L349.94 44.4439C347.566 41.3034 344.682 38.8784 341.294 37.1841L340.4 38.973ZM348.362 45.6717C350.551 48.409 351.682 51.9351 351.682 56.3293H353.682C353.682 51.5797 352.453 47.5843 349.923 44.4223L348.362 45.6717ZM351.682 56.3293C351.682 60.7962 350.551 64.7732 348.3 68.2893L349.985 69.3674C352.454 65.5094 353.682 61.1538 353.682 56.3293H351.682ZM348.293 68.3014C346.12 71.8064 342.919 74.5991 338.642 76.6662L339.512 78.4669C344.084 76.2571 347.594 73.2243 349.992 69.3553L348.293 68.3014ZM338.636 76.6691C334.451 78.7263 329.446 79.7743 323.591 79.7743V81.7743C329.683 81.7743 335.002 80.6838 339.518 78.464L338.636 76.6691Z" fill="url(#paint0_linear_53_765)" mask="url(#path-1-outside-1_53_765)"/>
</g>
<defs>
<linearGradient id="paint0_linear_53_765" x1="199.564" y1="2" x2="201.06" y2="64.5002" gradientUnits="userSpaceOnUse">
<stop stop-color="white"/>
<stop offset="1" stop-color="white" stop-opacity="0"/>
</linearGradient>
</defs>
</svg>
