<svg width="38" height="39" viewBox="0 0 38 39" fill="none" xmlns="http://www.w3.org/2000/svg">
<path d="M38 12.4476C38 19.0212 6.31011 26.2771 3.91052 26.2771C2.56518 26.2771 1.03879 25.967 1.03879 24.7267C1.03879 24.3123 1.51708 23.7134 2.35637 22.9913L2.35544 22.9918L0.130946 19.0393C-0.17026 18.5042 0.0685439 17.8263 0.638544 17.598L1.02084 17.445C1.36316 17.3079 1.73122 17.247 2.09944 17.2666C2.46767 17.2861 2.82722 17.3856 3.15313 17.5581L7.19149 19.696C8.76384 18.7634 10.5475 17.7869 12.4274 16.8256L4.55764 11.7198C3.93504 11.3159 3.94169 10.4023 4.57012 10.0075L5.21388 9.60301C5.74395 9.27001 6.33677 9.04944 6.95559 8.95495C7.57441 8.86047 8.20605 8.8941 8.81134 9.05375L21.9033 12.507C25.9853 10.8868 29.676 9.78097 31.8605 9.78097C32.4439 9.78097 33.0282 9.79643 33.5921 9.83673L29.6384 11.6215L29.5438 12.9514L35.6467 10.1459C37.1097 10.4948 38 11.146 38 12.4476ZM22.073 23.7951L26.9564 29.3426C27.1013 29.5072 27.2955 29.6205 27.5102 29.6656C27.7248 29.7106 27.9482 29.6851 28.1471 29.5926L28.8011 29.2886C29.9937 28.7343 30.6962 27.4773 30.5434 26.1711L29.9321 20.9438C29.8942 20.6204 29.566 20.4157 29.2588 20.5239L22.2854 22.9803C21.946 23.1 21.8352 23.5249 22.073 23.7951Z" fill="#FFC0CB"/>
</svg>
