<svg width="356" height="81" viewBox="0 0 356 81" fill="none" xmlns="http://www.w3.org/2000/svg">
<g opacity="0.1">
<mask id="path-1-outside-1_41_59" maskUnits="userSpaceOnUse" x="-1" y="-1" width="359" height="83" fill="black">
<rect fill="white" x="-1" y="-1" width="359" height="83"/>
<path d="M114.031 2.01946L94.895 80H68.2378L57.5086 32.2162L46.5581 80H19.9009L0.986489 2.01946H24.436L33.506 55.3338L45.7838 2.01946H69.5651L81.5111 54.8914L90.5811 2.01946H114.031ZM160.617 80.7743C153.316 80.7743 146.606 79.0782 140.486 75.6862C134.365 72.2204 129.498 67.4641 125.885 61.4174C122.345 55.2969 120.576 48.4022 120.576 40.7332C120.576 33.0642 122.345 26.2063 125.885 20.1596C129.498 14.0392 134.365 9.2829 140.486 5.89084C146.606 2.49878 153.316 0.802746 160.617 0.802746C167.991 0.802746 174.701 2.49878 180.748 5.89084C186.868 9.2829 191.698 14.0392 195.238 20.1596C198.777 26.2063 200.547 33.0642 200.547 40.7332C200.547 48.4022 198.777 55.2969 195.238 61.4174C191.698 67.4641 186.868 72.2204 180.748 75.6862C174.627 79.0782 167.917 80.7743 160.617 80.7743ZM160.617 60.6431C166.147 60.6431 170.498 58.8365 173.669 55.2232C176.913 51.6099 178.536 46.7799 178.536 40.7332C178.536 34.539 176.913 29.6721 173.669 26.1326C170.498 22.5193 166.147 20.7127 160.617 20.7127C155.012 20.7127 150.625 22.5193 147.454 26.1326C144.283 29.6721 142.698 34.539 142.698 40.7332C142.698 46.8537 144.283 51.7205 147.454 55.3338C150.625 58.8734 155.012 60.6431 160.617 60.6431ZM249.781 80L234.296 51.2412H231.973V80H210.293V2.01946H244.472C250.74 2.01946 256.049 3.12557 260.4 5.33778C264.75 7.47626 268.032 10.4627 270.244 14.2972C272.456 18.058 273.562 22.2981 273.562 27.0175C273.562 32.3268 272.088 37.0093 269.138 41.065C266.262 45.047 262.022 47.886 256.418 49.5821L274.005 80H249.781ZM231.973 36.4194H242.702C245.652 36.4194 247.864 35.7189 249.339 34.3178C250.813 32.9167 251.551 30.8889 251.551 28.2342C251.551 25.727 250.777 23.7729 249.228 22.3718C247.753 20.897 245.578 20.1596 242.702 20.1596H231.973V36.4194ZM329.546 80L305.101 45.8213V80H283.421V2.01946H305.101V35.6451L329.325 2.01946H354.323L325.675 39.8483L355.761 80H329.546Z"/>
</mask>
<path d="M114.031 2.01946L115.002 2.25778L115.306 1.01946H114.031V2.01946ZM94.895 80V81H95.6792L95.8662 80.2383L94.895 80ZM68.2378 80L67.2621 80.2191L67.4374 81H68.2378V80ZM57.5086 32.2162L58.4843 31.9971L56.5338 31.9928L57.5086 32.2162ZM46.5581 80V81H47.3548L47.5328 80.2234L46.5581 80ZM19.9009 80L18.9291 80.2357L19.1145 81H19.9009V80ZM0.986489 2.01946V1.01946H-0.28506L0.0146673 2.25518L0.986489 2.01946ZM24.436 2.01946L25.4218 1.85175L25.2802 1.01946H24.436V2.01946ZM33.506 55.3338L32.5202 55.5015L34.4805 55.5582L33.506 55.3338ZM45.7838 2.01946V1.01946H44.9879L44.8093 1.79504L45.7838 2.01946ZM69.5651 2.01946L70.5405 1.79907L70.3644 1.01946H69.5651V2.01946ZM81.5111 54.8914L80.5357 55.1118L82.4967 55.0605L81.5111 54.8914ZM90.5811 2.01946V1.01946H89.7381L89.5955 1.85038L90.5811 2.01946ZM113.059 1.78114L93.9238 79.7617L95.8662 80.2383L115.002 2.25778L113.059 1.78114ZM94.895 79H68.2378V81H94.895V79ZM69.2135 79.7809L58.4843 31.9971L56.5328 32.4353L67.2621 80.2191L69.2135 79.7809ZM56.5338 31.9928L45.5834 79.7766L47.5328 80.2234L58.4833 32.4396L56.5338 31.9928ZM46.5581 79H19.9009V81H46.5581V79ZM20.8727 79.7643L1.95831 1.78374L0.0146673 2.25518L18.9291 80.2357L20.8727 79.7643ZM0.986489 3.01946H24.436V1.01946H0.986489V3.01946ZM23.4501 2.18718L32.5202 55.5015L34.4919 55.1661L25.4218 1.85175L23.4501 2.18718ZM34.4805 55.5582L46.7583 2.24388L44.8093 1.79504L32.5315 55.1094L34.4805 55.5582ZM45.7838 3.01946H69.5651V1.01946H45.7838V3.01946ZM68.5897 2.23985L80.5357 55.1118L82.4865 54.671L70.5405 1.79907L68.5897 2.23985ZM82.4967 55.0605L91.5667 2.18854L89.5955 1.85038L80.5255 54.7223L82.4967 55.0605ZM90.5811 3.01946H114.031V1.01946H90.5811V3.01946ZM140.486 75.6862L139.993 76.5564L140.001 76.5608L140.486 75.6862ZM125.885 61.4174L125.019 61.918L125.023 61.9242L125.027 61.9304L125.885 61.4174ZM125.885 20.1596L125.024 19.6512L125.022 19.6544L125.885 20.1596ZM180.748 5.89084L180.259 6.76299L180.263 6.76549L180.748 5.89084ZM195.238 20.1596L194.372 20.6602L194.375 20.6648L195.238 20.1596ZM195.238 61.4174L196.101 61.9226L196.104 61.918L195.238 61.4174ZM180.748 75.6862L181.233 76.5609L181.241 76.5564L180.748 75.6862ZM173.669 55.2232L172.925 54.555L172.917 54.5636L173.669 55.2232ZM173.669 26.1326L172.917 26.7922L172.924 26.8003L172.932 26.8083L173.669 26.1326ZM147.454 26.1326L148.199 26.7999L148.206 26.7922L147.454 26.1326ZM147.454 55.3338L146.702 55.9934L146.709 56.0011L147.454 55.3338ZM160.617 79.7743C153.478 79.7743 146.936 78.1178 140.97 74.8115L140.001 76.5608C146.276 80.0387 153.154 81.7743 160.617 81.7743V79.7743ZM140.978 74.816C135.009 71.4357 130.268 66.8027 126.743 60.9044L125.027 61.9304C128.729 68.1256 133.721 73.005 139.993 76.5564L140.978 74.816ZM126.751 60.9168C123.306 54.9613 121.576 48.2418 121.576 40.7332H119.576C119.576 48.5626 121.384 55.6326 125.019 61.918L126.751 60.9168ZM121.576 40.7332C121.576 33.2245 123.306 26.544 126.748 20.6648L125.022 19.6544C121.384 25.8687 119.576 32.9039 119.576 40.7332H121.576ZM126.746 20.668C130.27 14.6985 135.008 10.0698 140.97 6.76549L140.001 5.01618C133.722 8.49604 128.726 13.3799 125.024 19.6512L126.746 20.668ZM140.97 6.76549C146.936 3.45926 153.478 1.80275 160.617 1.80275V-0.197254C153.154 -0.197254 146.276 1.53829 140.001 5.01618L140.97 6.76549ZM160.617 1.80275C167.831 1.80275 174.371 3.4601 180.259 6.76298L181.237 5.01869C175.031 1.53746 168.151 -0.197254 160.617 -0.197254V1.80275ZM180.263 6.76549C186.223 10.0687 190.922 14.695 194.372 20.6602L196.104 19.659C192.474 13.3834 187.513 8.49706 181.233 5.01618L180.263 6.76549ZM194.375 20.6648C197.816 26.544 199.547 33.2245 199.547 40.7332H201.547C201.547 32.9039 199.738 25.8687 196.101 19.6544L194.375 20.6648ZM199.547 40.7332C199.547 48.2418 197.816 54.9613 194.372 60.9168L196.104 61.918C199.738 55.6326 201.547 48.5626 201.547 40.7332H199.547ZM194.375 60.9122C190.925 66.8061 186.223 71.4367 180.255 74.816L181.241 76.5564C187.514 73.004 192.472 68.1221 196.101 61.9226L194.375 60.9122ZM180.263 74.8115C174.298 78.1178 167.755 79.7743 160.617 79.7743V81.7743C168.079 81.7743 174.957 80.0387 181.233 76.5608L180.263 74.8115ZM160.617 61.6431C166.387 61.6431 171.03 59.7461 174.42 55.8828L172.917 54.5636C169.966 57.9269 165.907 59.6431 160.617 59.6431V61.6431ZM174.413 55.8913C177.86 52.0526 179.536 46.9636 179.536 40.7332H177.536C177.536 46.5962 175.967 51.1673 172.925 54.5551L174.413 55.8913ZM179.536 40.7332C179.536 34.3637 177.864 29.2294 174.406 25.4569L172.932 26.8083C175.963 30.1148 177.536 34.7144 177.536 40.7332H179.536ZM174.42 25.473C171.03 21.6097 166.387 19.7127 160.617 19.7127V21.7127C165.907 21.7127 169.966 23.4289 172.917 26.7922L174.42 25.473ZM160.617 19.7127C154.777 19.7127 150.095 21.6067 146.702 25.473L148.206 26.7922C151.154 23.4319 155.248 21.7127 160.617 21.7127V19.7127ZM146.709 25.4653C143.329 29.2383 141.698 34.3693 141.698 40.7332H143.698C143.698 34.7087 145.237 30.106 148.199 26.7998L146.709 25.4653ZM141.698 40.7332C141.698 47.0281 143.332 52.1522 146.702 55.9934L148.206 54.6742C145.235 51.2889 143.698 46.6792 143.698 40.7332H141.698ZM146.709 56.0011C150.104 59.7907 154.784 61.6431 160.617 61.6431V59.6431C155.241 59.6431 151.146 57.956 148.199 54.6666L146.709 56.0011ZM249.781 80L248.901 80.4741L249.184 81H249.781V80ZM234.296 51.2412L235.176 50.7671L234.893 50.2412H234.296V51.2412ZM231.973 51.2412V50.2412H230.973V51.2412H231.973ZM231.973 80V81H232.973V80H231.973ZM210.293 80H209.293V81H210.293V80ZM210.293 2.01946V1.01946H209.293V2.01946H210.293ZM260.4 5.33778L259.946 6.22925L259.959 6.23523L260.4 5.33778ZM270.244 14.2972L269.378 14.797L269.382 14.8043L270.244 14.2972ZM269.138 41.065L268.329 40.4769L268.327 40.4795L269.138 41.065ZM256.418 49.5821L256.128 48.6249L254.92 48.9904L255.552 50.0826L256.418 49.5821ZM274.005 80V81H275.738L274.87 79.4995L274.005 80ZM231.973 36.4194H230.973V37.4194H231.973V36.4194ZM249.339 34.3178L248.65 33.5928L249.339 34.3178ZM249.228 22.3718L248.521 23.0789L248.539 23.0966L248.557 23.1134L249.228 22.3718ZM231.973 20.1596V19.1596H230.973V20.1596H231.973ZM250.661 79.5259L235.176 50.7671L233.415 51.7153L248.901 80.4741L250.661 79.5259ZM234.296 50.2412H231.973V52.2412H234.296V50.2412ZM230.973 51.2412V80H232.973V51.2412H230.973ZM231.973 79H210.293V81H231.973V79ZM211.293 80V2.01946H209.293V80H211.293ZM210.293 3.01946H244.472V1.01946H210.293V3.01946ZM244.472 3.01946C250.626 3.01946 255.77 4.10572 259.946 6.22917L260.853 4.4464C256.328 2.14542 250.854 1.01946 244.472 1.01946V3.01946ZM259.959 6.23523C264.149 8.2949 267.274 11.1506 269.378 14.797L271.11 13.7975C268.789 9.77494 265.352 6.65762 260.841 4.44034L259.959 6.23523ZM269.382 14.8043C271.497 18.3989 272.562 22.4613 272.562 27.0175H274.562C274.562 22.1348 273.416 17.7171 271.106 13.7902L269.382 14.8043ZM272.562 27.0175C272.562 32.1286 271.147 36.6024 268.329 40.4769L269.947 41.6532C273.028 37.4162 274.562 32.5249 274.562 27.0175H272.562ZM268.327 40.4795C265.603 44.2517 261.564 46.9798 256.128 48.6249L256.707 50.5392C262.48 48.7923 266.921 45.8424 269.949 41.6505L268.327 40.4795ZM255.552 50.0826L273.139 80.5005L274.87 79.4995L257.283 49.0815L255.552 50.0826ZM274.005 79H249.781V81H274.005V79ZM231.973 37.4194H242.702V35.4194H231.973V37.4194ZM242.702 37.4194C245.793 37.4194 248.298 36.6861 250.027 35.0428L248.65 33.5928C247.43 34.7516 245.51 35.4194 242.702 35.4194V37.4194ZM250.027 35.0428C251.757 33.4 252.551 31.0752 252.551 28.2342H250.551C250.551 30.7025 249.87 32.4334 248.65 33.5928L250.027 35.0428ZM252.551 28.2342C252.551 25.5061 251.699 23.2587 249.899 21.6303L248.557 23.1134C249.854 24.2871 250.551 25.9479 250.551 28.2342H252.551ZM249.935 21.6647C248.211 19.9405 245.74 19.1596 242.702 19.1596V21.1596C245.415 21.1596 247.295 21.8535 248.521 23.0789L249.935 21.6647ZM242.702 19.1596H231.973V21.1596H242.702V19.1596ZM230.973 20.1596V36.4194H232.973V20.1596H230.973ZM329.546 80L328.733 80.5817L329.032 81H329.546V80ZM305.101 45.8213L305.914 45.2396L304.101 42.7041V45.8213H305.101ZM305.101 80V81H306.101V80H305.101ZM283.421 80H282.421V81H283.421V80ZM283.421 2.01946V1.01946H282.421V2.01946H283.421ZM305.101 2.01946H306.101V1.01946H305.101V2.01946ZM305.101 35.6451H304.101V38.7441L305.912 36.2296L305.101 35.6451ZM329.325 2.01946V1.01946H328.813L328.513 1.43495L329.325 2.01946ZM354.323 2.01946L355.12 2.62318L356.335 1.01946H354.323V2.01946ZM325.675 39.8483L324.877 39.2446L324.423 39.8451L324.874 40.448L325.675 39.8483ZM355.761 80V81H357.76L356.561 79.4004L355.761 80ZM330.359 79.4183L305.914 45.2396L304.288 46.403L328.733 80.5817L330.359 79.4183ZM304.101 45.8213V80H306.101V45.8213H304.101ZM305.101 79H283.421V81H305.101V79ZM284.421 80V2.01946H282.421V80H284.421ZM283.421 3.01946H305.101V1.01946H283.421V3.01946ZM304.101 2.01946V35.6451H306.101V2.01946H304.101ZM305.912 36.2296L330.136 2.60398L328.513 1.43495L304.29 35.0606L305.912 36.2296ZM329.325 3.01946H354.323V1.01946H329.325V3.01946ZM353.526 1.41574L324.877 39.2446L326.472 40.452L355.12 2.62318L353.526 1.41574ZM324.874 40.448L354.961 80.5996L356.561 79.4004L326.475 39.2487L324.874 40.448ZM355.761 79H329.546V81H355.761V79Z" fill="url(#paint0_linear_41_59)" mask="url(#path-1-outside-1_41_59)"/>
</g>
<defs>
<linearGradient id="paint0_linear_41_59" x1="201" y1="2" x2="202.5" y2="64.5" gradientUnits="userSpaceOnUse">
<stop stop-color="white"/>
<stop offset="1" stop-color="white" stop-opacity="0"/>
</linearGradient>
</defs>
</svg>
