<svg width="38" height="39" viewBox="0 0 38 39" fill="none" xmlns="http://www.w3.org/2000/svg">
<g clip-path="url(#clip0_84_3509)">
<path d="M36.8867 14.1627H34.5117C33.8969 14.1627 33.3984 14.6612 33.3984 15.276V31.6041C33.3984 32.2189 33.8969 32.7174 34.5117 32.7174H36.8867C37.5015 32.7174 38 32.2189 38 31.6041V15.276C38 14.6612 37.5015 14.1627 36.8867 14.1627ZM21.5264 7.13664L23.3819 3.92289C23.7918 3.21291 23.5485 2.30507 22.8385 1.89516L21.553 1.15297C20.8431 0.743062 19.9352 0.986351 19.5254 1.69633L17.6699 4.91007L21.5264 7.13664ZM1.32234 26.1381C1.95847 26.5008 2.7702 26.2639 3.13632 25.6298L12.2341 9.87197C11.8105 9.77113 11.3699 9.76476 10.9435 9.85328C10.5171 9.94181 10.1154 10.1231 9.76695 10.3842L6.6151 12.7481C5.6979 13.436 4.93586 14.3094 4.3786 15.3114L0.330484 22.5905C-0.364427 23.84 0.0714601 25.416 1.30965 26.1308L1.32234 26.1381ZM7.92358 22.3375H12.7502L20.4131 9.06484L16.5566 6.83828L7.60125 22.3495C7.70853 22.3419 7.81603 22.3379 7.92358 22.3375ZM3.59492 29.2886L2.44312 31.2836C2.38895 31.3775 2.34877 31.4787 2.32385 31.5841L1.26171 36.0768C1.05842 36.9366 2.09622 37.5357 2.73925 36.9298L6.09899 33.7637C6.17785 33.6894 6.24543 33.604 6.2996 33.5101L7.21027 31.9328C5.62043 31.6962 4.28182 30.681 3.59492 29.2886ZM16.7831 31.9859H9.75062L8.28124 34.5308C8.75372 35.0205 9.41627 35.3257 10.1504 35.3257C11.5851 35.3257 12.7481 34.1627 12.7481 32.728C12.7481 34.1627 13.9111 35.3257 15.3458 35.3257C16.7804 35.3257 17.9434 34.1627 17.9434 32.728V32.5584C17.6739 32.4351 17.0568 32.1216 16.7831 31.9859Z" fill="#FFC0CB"/>
<path d="M21.2128 12.1326L15.3211 22.3373H17.0703C17.6851 22.3373 18.1836 22.8357 18.1836 23.4506C18.1836 24.0653 17.6853 24.5638 17.0705 24.5638H7.92358C6.48894 24.5638 5.32593 25.7268 5.32593 27.1615C5.32593 28.5961 6.48894 29.7592 7.92358 29.7592H17.3084L18.5397 30.3743C20.6468 31.4279 23.007 31.9856 25.3651 31.9856C27.3188 31.9856 29.3384 31.6017 31.1719 30.8712V16.3996H29.4173L21.2128 12.1326Z" fill="#FFC0CB"/>
</g>
<defs>
<clipPath id="clip0_84_3509">
<rect width="38" height="38" fill="white" transform="translate(0 0.0649414)"/>
</clipPath>
</defs>
</svg>
